DrVivigray-Regular.ufo
<glyph name="dollar" format="2">
  <advance width="1295"/>
  <unicode hex="0024"/>
  <outline>
    <contour>
      <point x="576" y="-116" type="line"/>
      <point x="717" y="-116" type="line"/>
      <point x="717" y="106" type="line"/>
      <point x="1005" y="132"/>
      <point x="1172" y="254"/>
      <point x="1172" y="440" type="curve" smooth="yes"/>
      <point x="1172" y="640"/>
      <point x="1021" y="714"/>
      <point x="717" y="790" type="curve"/>
      <point x="717" y="1192" type="line"/>
      <point x="840" y="1184"/>
      <point x="962" y="1156"/>
      <point x="1060" y="1122" type="curve"/>
      <point x="1118" y="1270" type="line"/>
      <point x="1009" y="1310"/>
      <point x="879" y="1340"/>
      <point x="717" y="1344" type="curve"/>
      <point x="717" y="1518" type="line"/>
      <point x="576" y="1518" type="line"/>
      <point x="576" y="1342" type="line"/>
      <point x="309" y="1328"/>
      <point x="141" y="1212"/>
      <point x="141" y="1016" type="curve" smooth="yes"/>
      <point x="141" y="826"/>
      <point x="268" y="728"/>
      <point x="576" y="656" type="curve"/>
      <point x="576" y="252" type="line" name=".hr01"/>
      <point x="417" y="254"/>
      <point x="236" y="292"/>
      <point x="136" y="334" type="curve"/>
      <point x="136" y="164" type="line"/>
      <point x="232" y="124"/>
      <point x="408" y="100"/>
      <point x="576" y="98" type="curve"/>
    </contour>
    <contour>
      <point x="717" y="614" type="line"/>
      <point x="930" y="570"/>
      <point x="994" y="528"/>
      <point x="994" y="428" type="curve" smooth="yes"/>
      <point x="994" y="338"/>
      <point x="908" y="278"/>
      <point x="717" y="262" type="curve" name=".hr02"/>
    </contour>
    <contour>
      <point x="576" y="834" type="line"/>
      <point x="380" y="874"/>
      <point x="320" y="924"/>
      <point x="320" y="1030" type="curve" smooth="yes"/>
      <point x="320" y="1118"/>
      <point x="400" y="1178"/>
      <point x="576" y="1188" type="curve"/>
    </contour>
  </outline>
</glyph>
<glyph name="parenright" format="2">
  <advance width="666"/>
  <unicode hex="0029"/>
  <outline>
    <contour>
      <point x="578" y="548" type="curve" smooth="yes"/>
      <point x="578" y="874"/>
      <point x="470" y="1186"/>
      <point x="238" y="1428" type="curve"/>
      <point x="66" y="1428" type="line"/>
      <point x="281" y="1178"/>
      <point x="394" y="866"/>
      <point x="394" y="550" type="curve" smooth="yes"/>
      <point x="394" y="240"/>
      <point x="281" y="-66"/>
      <point x="69" y="-316" type="curve"/>
      <point x="238" y="-316" type="line"/>
      <point x="470" y="-82"/>
      <point x="578" y="226"/>
    </contour>
  </outline>
</glyph>
<glyph name="asterisk" format="2">
  <advance width="987"/>
  <unicode hex="002A"/>
  <outline>
    <contour>
      <point x="400" y="1520" type="line"/>
      <point x="435" y="1136" type="line"/>
      <point x="116" y="1244" type="line"/>
      <point x="90" y="1060" type="line"/>
      <point x="393" y="1030" type="line"/>
      <point x="198" y="714" type="line"/>
      <point x="361" y="620" type="line"/>
      <point x="488" y="970" type="line"/>
      <point x="629" y="620" type="line"/>
      <point x="786" y="714" type="line"/>
      <point x="587" y="1030" type="line"/>
      <point x="893" y="1060" type="line"/>
      <point x="868" y="1244" type="line"/>
      <point x="546" y="1136" type="line"/>
      <point x="580" y="1520" type="line"/>
    </contour>
  </outline>
</glyph>
<glyph name="comma" format="2">
  <advance width="648"/>
  <unicode hex="002C"/>
  <outline>
    <contour>
      <point x="461" y="232" type="line"/>
      <point x="241" y="232" type="line"/>
      <point x="210" y="92"/>
      <point x="147" y="-106"/>
      <point x="90" y="-258" type="curve"/>
      <point x="224" y="-258" type="line"/>
      <point x="319" y="-114"/>
      <point x="428" y="68"/>
      <point x="481" y="210" type="curve"/>
    </contour>
  </outline>
</glyph>
<glyph name="one" format="2">
  <advance width="1295"/>
  <unicode hex="0031"/>
  <outline>
    <contour>
      <point x="818" y="1428" type="line"/>
      <point x="681" y="1428" type="line"/>
      <point x="195" y="1128" type="line"/>
      <point x="287" y="1010" type="line"/>
      <point x="487" y="1134" type="line"/>
      <point x="564" y="1178"/>
      <point x="604" y="1200"/>
      <point x="663" y="1244" type="curve"/>
      <point x="655" y="1168"/>
      <point x="652" y="1112"/>
      <point x="652" y="998" type="curve" smooth="yes"/>
      <point x="652" y="0" type="line"/>
      <point x="818" y="0" type="line"/>
    </contour>
  </outline>
</glyph>
<glyph name="two" format="2">
  <advance width="1295"/>
  <unicode hex="0032"/>
  <outline>
    <contour>
      <point x="1181" y="160" type="line"/>
      <point x="326" y="160" type="line"/>
      <point x="326" y="168" type="line"/>
      <point x="694" y="462" type="line"/>
      <point x="941" y="676"/>
      <point x="1111" y="844"/>
      <point x="1111" y="1068" type="curve" smooth="yes"/>
      <point x="1111" y="1304"/>
      <point x="922" y="1448"/>
      <point x="619" y="1448" type="curve" smooth="yes"/>
      <point x="422" y="1448"/>
      <point x="255" y="1374"/>
      <point x="128" y="1280" type="curve"/>
      <point x="221" y="1162" type="line"/>
      <point x="347" y="1248"/>
      <point x="456" y="1298"/>
      <point x="624" y="1298" type="curve" smooth="yes"/>
      <point x="807" y="1298"/>
      <point x="929" y="1214"/>
      <point x="929" y="1058" type="curve" smooth="yes"/>
      <point x="929" y="864"/>
      <point x="787" y="739"/>
      <point x="540" y="524" type="curve" smooth="yes"/>
      <point x="105" y="146" type="line"/>
      <point x="105" y="0" type="line"/>
      <point x="1181" y="0" type="line"/>
    </contour>
  </outline>
</glyph>
<glyph name="six" format="2">
  <advance width="1295"/>
  <unicode hex="0036"/>
  <outline>
    <contour>
      <point x="121" y="610" type="curve" smooth="yes"/>
      <point x="121" y="182"/>
      <point x="366" y="-20"/>
      <point x="675" y="-20" type="curve" smooth="yes"/>
      <point x="992" y="-20"/>
      <point x="1192" y="162"/>
      <point x="1192" y="460" type="curve" smooth="yes"/>
      <point x="1192" y="736"/>
      <point x="999" y="894"/>
      <point x="713" y="894" type="curve" smooth="yes"/>
      <point x="512" y="894"/>
      <point x="386" y="820"/>
      <point x="316" y="726" type="curve"/>
      <point x="302" y="726" type="line"/>
      <point x="319" y="1038"/>
      <point x="433" y="1304"/>
      <point x="870" y="1304" type="curve" smooth="yes"/>
      <point x="934" y="1304"/>
      <point x="1008" y="1296"/>
      <point x="1063" y="1280" type="curve"/>
      <point x="1063" y="1430" type="line"/>
      <point x="1014" y="1442"/>
      <point x="928" y="1448"/>
      <point x="864" y="1448" type="curve" smooth="yes"/>
      <point x="255" y="1448"/>
      <point x="121" y="1020"/>
    </contour>
    <contour>
      <point x="674" y="128" type="curve" smooth="yes"/>
      <point x="428" y="128"/>
      <point x="300" y="320"/>
      <point x="300" y="494" type="curve" smooth="yes"/>
      <point x="300" y="620"/>
      <point x="452" y="756"/>
      <point x="681" y="756" type="curve" smooth="yes"/>
      <point x="905" y="756"/>
      <point x="1018" y="642"/>
      <point x="1018" y="460" type="curve" smooth="yes"/>
      <point x="1018" y="234"/>
      <point x="879" y="128"/>
    </contour>
  </outline>
</glyph>
<glyph name="seven" format="2">
  <advance width="1295"/>
  <unicode hex="0037"/>
  <outline>
    <contour>
      <point x="512" y="0" type="line"/>
      <point x="1188" y="1292" type="line"/>
      <point x="1188" y="1428" type="line"/>
      <point x="96" y="1428" type="line"/>
      <point x="96" y="1268" type="line"/>
      <point x="1001" y="1268" type="line"/>
      <point x="315" y="0" type="line"/>
    </contour>
  </outline>
</glyph>
<glyph name="at" format="2">
  <advance width="1758"/>
  <unicode hex="0040"/>
  <outline>
    <contour>
      <point x="1631" y="714" type="curve" smooth="yes"/>
      <point x="1631" y="1156"/>
      <point x="1342" y="1428"/>
      <point x="941" y="1428" type="curve" smooth="yes"/>
      <point x="435" y="1428"/>
      <point x="127" y="1058"/>
      <point x="127" y="560" type="curve" smooth="yes"/>
      <point x="127" y="96"/>
      <point x="395" y="-178"/>
      <point x="849" y="-178" type="curve" smooth="yes"/>
      <point x="1014" y="-178"/>
      <point x="1153" y="-144"/>
      <point x="1263" y="-96" type="curve"/>
      <point x="1263" y="40" type="line"/>
      <point x="1152" y="-4"/>
      <point x="1003" y="-46"/>
      <point x="848" y="-46" type="curve" smooth="yes"/>
      <point x="474" y="-46"/>
      <point x="270" y="172"/>
      <point x="270" y="566" type="curve" smooth="yes"/>
      <point x="270" y="990"/>
      <point x="506" y="1296"/>
      <point x="941" y="1296" type="curve" smooth="yes"/>
      <point x="1260" y="1296"/>
      <point x="1493" y="1086"/>
      <point x="1493" y="716" type="curve" smooth="yes"/>
      <point x="1493" y="510"/>
      <point x="1427" y="342"/>
      <point x="1310" y="342" type="curve" smooth="yes"/>
      <point x="1248" y="342"/>
      <point x="1194" y="374"/>
      <point x="1194" y="514" type="curve" smooth="yes"/>
      <point x="1194" y="522"/>
      <point x="1194" y="538"/>
      <point x="1195" y="586" type="curve"/>
      <point x="1215" y="992" type="line"/>
      <point x="1153" y="1016"/>
      <point x="1033" y="1040"/>
      <point x="920" y="1040" type="curve" smooth="yes"/>
      <point x="668" y="1040"/>
      <point x="511" y="852"/>
      <point x="511" y="590" type="curve" smooth="yes"/>
      <point x="511" y="366"/>
      <point x="620" y="218"/>
      <point x="817" y="218" type="curve" smooth="yes"/>
      <point x="952" y="218"/>
      <point x="1040" y="294"/>
      <point x="1087" y="392" type="curve"/>
      <point x="1097" y="392" type="line"/>
      <point x="1113" y="300"/>
      <point x="1183" y="218"/>
      <point x="1299" y="218" type="curve" smooth="yes"/>
      <point x="1522" y="218"/>
      <point x="1631" y="470"/>
    </contour>
    <contour>
      <point x="664" y="586" type="curve" smooth="yes"/>
      <point x="664" y="750"/>
      <point x="733" y="914"/>
      <point x="922" y="914" type="curve" smooth="yes"/>
      <point x="974" y="914"/>
      <point x="1027" y="904"/>
      <point x="1061" y="894" type="curve"/>
      <point x="1049" y="644" type="line" smooth="yes"/>
      <point x="1040" y="466"/>
      <point x="983" y="342"/>
      <point x="843" y="342" type="curve" smooth="yes"/>
      <point x="733" y="342"/>
      <point x="664" y="414"/>
    </contour>
  </outline>
</glyph>
<glyph name="F" format="2">
  <advance width="1098"/>
  <unicode hex="0046"/>
  <anchor x="553" y="0" name="bottom"/>
  <anchor x="634" y="1428" name="top"/>
  <anchor x="1053" y="1428" name="topright"/>
  <outline>
    <contour>
      <point x="394" y="606" type="line"/>
      <point x="1009" y="606" type="line"/>
      <point x="1009" y="764" type="line"/>
      <point x="394" y="764" type="line"/>
      <point x="394" y="1270" type="line"/>
      <point x="1048" y="1270" type="line"/>
      <point x="1048" y="1428" type="line"/>
      <point x="213" y="1428" type="line"/>
      <point x="213" y="0" type="line"/>
      <point x="394" y="0" type="line"/>
    </contour>
  </outline>
</glyph>
<glyph name="G" format="2">
  <advance width="1480"/>
  <unicode hex="0047"/>
  <anchor x="815" y="0" name="bottom"/>
  <anchor x="821" y="1428" name="top"/>
  <anchor x="1426" y="1428" name="topright"/>
  <outline>
    <contour>
      <point x="825" y="594" type="line"/>
      <point x="1139" y="594" type="line"/>
      <point x="1139" y="170" type="line"/>
      <point x="1067" y="152"/>
      <point x="985" y="136"/>
      <point x="859" y="136" type="curve" smooth="yes"/>
      <point x="476" y="136"/>
      <point x="322" y="372"/>
      <point x="322" y="714" type="curve" smooth="yes"/>
      <point x="322" y="1070"/>
      <point x="522" y="1290"/>
      <point x="863" y="1290" type="curve" smooth="yes"/>
      <point x="999" y="1290"/>
      <point x="1129" y="1252"/>
      <point x="1231" y="1208" type="curve"/>
      <point x="1299" y="1364" type="line"/>
      <point x="1177" y="1416"/>
      <point x="1033" y="1448"/>
      <point x="873" y="1448" type="curve" smooth="yes"/>
      <point x="406" y="1448"/>
      <point x="134" y="1160"/>
      <point x="134" y="714" type="curve" smooth="yes"/>
      <point x="134" y="262"/>
      <point x="374" y="-20"/>
      <point x="817" y="-20" type="curve" smooth="yes"/>
      <point x="1017" y="-20"/>
      <point x="1165" y="4"/>
      <point x="1318" y="54" type="curve"/>
      <point x="1318" y="754" type="line"/>
      <point x="825" y="754" type="line"/>
    </contour>
  </outline>
</glyph>
<glyph name="H" format="2">
  <advance width="1505"/>
  <unicode hex="0048"/>
  <anchor x="748" y="0" name="bottom"/>
  <anchor x="754" y="714" name="center"/>
  <anchor x="754" y="1428" name="top"/>
  <anchor x="1444" y="1428" name="topright"/>
  <outline>
    <contour>
      <point x="1290" y="1428" type="line"/>
      <point x="1110" y="1428" type="line"/>
      <point x="1110" y="824" type="line"/>
      <point x="393" y="824" type="line"/>
      <point x="393" y="1428" type="line"/>
      <point x="213" y="1428" type="line"/>
      <point x="213" y="0" type="line"/>
      <point x="393" y="0" type="line"/>
      <point x="393" y="666" type="line"/>
      <point x="1110" y="666" type="line"/>
      <point x="1110" y="0" type="line"/>
      <point x="1290" y="0" type="line"/>
    </contour>
  </outline>
</glyph>
<glyph name="J" format="2">
  <advance width="637"/>
  <unicode hex="004A"/>
  <anchor x="2" y="-340" name="bottom"/>
  <anchor x="348" y="1428" name="top"/>
  <anchor x="621" y="1428" name="topright"/>
  <outline>
    <contour>
      <point x="2" y="-380" type="curve" smooth="yes"/>
      <point x="266" y="-380"/>
      <point x="437" y="-254"/>
      <point x="437" y="22" type="curve" smooth="yes"/>
      <point x="437" y="1428" type="line"/>
      <point x="257" y="1428" type="line"/>
      <point x="257" y="8" type="line" smooth="yes"/>
      <point x="257" y="-174"/>
      <point x="126" y="-222"/>
      <point x="9" y="-222" type="curve" smooth="yes"/>
      <point x="-59" y="-222"/>
      <point x="-119" y="-214"/>
      <point x="-172" y="-202" type="curve"/>
      <point x="-172" y="-354" type="line"/>
      <point x="-129" y="-370"/>
      <point x="-73" y="-380"/>
    </contour>
  </outline>
</glyph>
<glyph name="Q" format="2">
  <advance width="1591"/>
  <unicode hex="0051"/>
  <anchor x="797" y="-340" name="bottom"/>
  <anchor x="797" y="1428" name="top"/>
  <anchor x="1540" y="1428" name="topright"/>
  <outline>
    <contour>
      <point x="1457" y="716" type="curve" smooth="yes"/>
      <point x="1457" y="1160"/>
      <point x="1229" y="1450"/>
      <point x="799" y="1450" type="curve" smooth="yes"/>
      <point x="349" y="1450"/>
      <point x="134" y="1156"/>
      <point x="134" y="718" type="curve" smooth="yes"/>
      <point x="134" y="276"/>
      <point x="349" y="-20"/>
      <point x="797" y="-20" type="curve" smooth="yes"/>
      <point x="813" y="-20"/>
      <point x="831" y="-18"/>
      <point x="847" y="-18" type="curve"/>
      <point x="1125" y="-340" type="line"/>
      <point x="1383" y="-340" type="line"/>
      <point x="1039" y="16" type="line"/>
      <point x="1315" y="108"/>
      <point x="1457" y="366"/>
    </contour>
    <contour>
      <point x="325" y="716" type="curve" smooth="yes"/>
      <point x="325" y="1076"/>
      <point x="473" y="1292"/>
      <point x="799" y="1292" type="curve" smooth="yes"/>
      <point x="1123" y="1292"/>
      <point x="1267" y="1076"/>
      <point x="1267" y="716" type="curve" smooth="yes"/>
      <point x="1267" y="356"/>
      <point x="1123" y="136"/>
      <point x="797" y="136" type="curve" smooth="yes"/>
      <point x="473" y="136"/>
      <point x="325" y="356"/>
    </contour>
  </outline>
</glyph>
<glyph name="f" format="2">
  <advance width="753"/>
  <unicode hex="0066"/>
  <anchor x="333" y="0" name="bottom"/>
  <anchor x="555" y="1530" name="top"/>
  <anchor x="833" y="1530" name="topright"/>
  <outline>
    <contour>
      <point x="723" y="1072" type="line"/>
      <point x="421" y="1072" type="line"/>
      <point x="421" y="1142" type="line" smooth="yes"/>
      <point x="421" y="1310"/>
      <point x="486" y="1386"/>
      <point x="622" y="1386" type="curve" smooth="yes"/>
      <point x="686" y="1386"/>
      <point x="752" y="1370"/>
      <point x="801" y="1356" type="curve"/>
      <point x="848" y="1494" type="line"/>
      <point x="795" y="1512"/>
      <point x="717" y="1530"/>
      <point x="627" y="1530" type="curve" smooth="yes"/>
      <point x="388" y="1530"/>
      <point x="244" y="1416"/>
      <point x="244" y="1140" type="curve" smooth="yes"/>
      <point x="244" y="1078" type="line"/>
      <point x="33" y="1018" type="line"/>
      <point x="33" y="936" type="line"/>
      <point x="245" y="936" type="line"/>
      <point x="245" y="0" type="line"/>
      <point x="421" y="0" type="line"/>
      <point x="421" y="936" type="line"/>
      <point x="723" y="936" type="line"/>
    </contour>
  </outline>
</glyph>
<glyph name="r" format="2">
  <advance width="838"/>
  <unicode hex="0072"/>
  <anchor x="270" y="0" name="bottom"/>
  <anchor x="493" y="1072" name="top"/>
  <anchor x="795" y="1072" name="topright"/>
  <outline>
    <contour>
      <point x="682" y="1092" type="curve" smooth="yes"/>
      <point x="534" y="1092"/>
      <point x="426" y="994"/>
      <point x="359" y="876" type="curve"/>
      <point x="351" y="876" type="line"/>
      <point x="331" y="1072" type="line"/>
      <point x="187" y="1072" type="line"/>
      <point x="187" y="0" type="line"/>
      <point x="363" y="0" type="line"/>
      <point x="363" y="572" type="line" smooth="yes"/>
      <point x="363" y="788"/>
      <point x="507" y="932"/>
      <point x="669" y="932" type="curve" smooth="yes"/>
      <point x="705" y="932"/>
      <point x="750" y="926"/>
      <point x="784" y="918" type="curve"/>
      <point x="805" y="1080" type="line"/>
      <point x="770" y="1088"/>
      <point x="721" y="1092"/>
    </contour>
  </outline>
</glyph>
<glyph name="braceleft" format="2">
  <advance width="666"/>
  <unicode hex="007B"/>
  <outline>
    <contour>
      <point x="596" y="-172" type="line"/>
      <point x="492" y="-170"/>
      <point x="423" y="-116"/>
      <point x="423" y="14" type="curve" smooth="yes"/>
      <point x="423" y="308" type="line" smooth="yes"/>
      <point x="423" y="444"/>
      <point x="364" y="526"/>
      <point x="244" y="552" type="curve"/>
      <point x="244" y="564" type="line"/>
      <point x="362" y="590"/>
      <point x="423" y="672"/>
      <point x="423" y="808" type="curve" smooth="yes"/>
      <point x="423" y="1096" type="line" smooth="yes"/>
      <point x="423" y="1226"/>
      <point x="494" y="1280"/>
      <point x="596" y="1284" type="curve"/>
      <point x="596" y="1428" type="line"/>
      <point x="378" y="1428"/>
      <point x="258" y="1324"/>
      <point x="258" y="1112" type="curve" smooth="yes"/>
      <point x="258" y="816" type="line" smooth="yes"/>
      <point x="258" y="682"/>
      <point x="184" y="632"/>
      <point x="61" y="630" type="curve"/>
      <point x="61" y="484" type="line"/>
      <point x="184" y="484"/>
      <point x="258" y="432"/>
      <point x="258" y="296" type="curve" smooth="yes"/>
      <point x="258" y="2" type="line" smooth="yes"/>
      <point x="258" y="-212"/>
      <point x="371" y="-314"/>
      <point x="596" y="-316" type="curve"/>
    </contour>
  </outline>
</glyph>
<glyph name="brokenbar" format="2">
  <advance width="765"/>
  <unicode hex="00A6"/>
  <outline>
    <contour>
      <point x="315" y="758" type="line"/>
      <point x="451" y="758" type="line"/>
      <point x="451" y="1520" type="line"/>
      <point x="315" y="1520" type="line"/>
    </contour>
    <contour>
      <point x="315" y="-482" type="line"/>
      <point x="451" y="-482" type="line"/>
      <point x="451" y="280" type="line"/>
      <point x="315" y="280" type="line"/>
    </contour>
  </outline>
</glyph>
<glyph name="copyright" format="2">
  <advance width="1752"/>
  <unicode hex="00A9"/>
  <outline>
    <contour>
      <point x="909" y="266" type="curve" smooth="yes"/>
      <point x="1007" y="266"/>
      <point x="1069" y="286"/>
      <point x="1135" y="314" type="curve"/>
      <point x="1135" y="442" type="line"/>
      <point x="1067" y="416"/>
      <point x="981" y="396"/>
      <point x="917" y="396" type="curve" smooth="yes"/>
      <point x="730" y="396"/>
      <point x="657" y="510"/>
      <point x="657" y="714" type="curve" smooth="yes"/>
      <point x="657" y="910"/>
      <point x="752" y="1030"/>
      <point x="920" y="1030" type="curve" smooth="yes"/>
      <point x="977" y="1030"/>
      <point x="1045" y="1012"/>
      <point x="1114" y="978" type="curve"/>
      <point x="1173" y="1100" type="line"/>
      <point x="1097" y="1138"/>
      <point x="1003" y="1160"/>
      <point x="918" y="1160" type="curve" smooth="yes"/>
      <point x="647" y="1160"/>
      <point x="498" y="974"/>
      <point x="498" y="714" type="curve" smooth="yes"/>
      <point x="498" y="444"/>
      <point x="633" y="266"/>
    </contour>
    <contour>
      <point x="876" y="-20" type="curve" smooth="yes"/>
      <point x="1323" y="-20"/>
      <point x="1645" y="288"/>
      <point x="1645" y="714" type="curve" smooth="yes"/>
      <point x="1645" y="1140"/>
      <point x="1301" y="1448"/>
      <point x="876" y="1448" type="curve" smooth="yes"/>
      <point x="430" y="1448"/>
      <point x="107" y="1140"/>
      <point x="107" y="714" type="curve" smooth="yes"/>
      <point x="107" y="288"/>
      <point x="430" y="-20"/>
    </contour>
    <contour>
      <point x="876" y="86" type="curve" smooth="yes"/>
      <point x="496" y="86"/>
      <point x="222" y="368"/>
      <point x="222" y="714" type="curve" smooth="yes"/>
      <point x="222" y="1080"/>
      <point x="496" y="1342"/>
      <point x="876" y="1342" type="curve" smooth="yes"/>
      <point x="1257" y="1342"/>
      <point x="1529" y="1060"/>
      <point x="1529" y="714" type="curve" smooth="yes"/>
      <point x="1529" y="348"/>
      <point x="1235" y="86"/>
    </contour>
  </outline>
</glyph>
<glyph name="ordfeminine" format="2">
  <advance width="962"/>
  <unicode hex="00AA"/>
  <anchor x="470" y="768" name="bottom"/>
  <anchor x="470" y="1450" name="top"/>
  <outline>
    <contour>
      <point x="472" y="1444" type="curve" smooth="yes"/>
      <point x="362" y="1444"/>
      <point x="223" y="1420"/>
      <point x="133" y="1386" type="curve"/>
      <point x="187" y="1288" type="line"/>
      <point x="266" y="1318"/>
      <point x="375" y="1340"/>
      <point x="488" y="1340" type="curve" smooth="yes"/>
      <point x="610" y="1340"/>
      <point x="719" y="1310"/>
      <point x="719" y="1222" type="curve" smooth="yes"/>
      <point x="719" y="1178" type="line"/>
      <point x="540" y="1174" type="line" smooth="yes"/>
      <point x="220" y="1167"/>
      <point x="74" y="1098"/>
      <point x="74" y="964" type="curve" smooth="yes"/>
      <point x="74" y="830"/>
      <point x="186" y="766"/>
      <point x="374" y="766" type="curve" smooth="yes"/>
      <point x="516" y="766"/>
      <point x="632" y="806"/>
      <point x="712" y="862" type="curve"/>
      <point x="739" y="778" type="line"/>
      <point x="853" y="778" type="line"/>
      <point x="853" y="1218" type="line" smooth="yes"/>
      <point x="853" y="1376"/>
      <point x="730" y="1444"/>
    </contour>
    <contour>
      <point x="719" y="1088" type="line"/>
      <point x="719" y="1042" type="line" smooth="yes"/>
      <point x="719" y="936"/>
      <point x="626" y="868"/>
      <point x="395" y="868" type="curve" smooth="yes"/>
      <point x="287" y="868"/>
      <point x="216" y="896"/>
      <point x="216" y="964" type="curve" smooth="yes"/>
      <point x="216" y="1036"/>
      <point x="295" y="1077"/>
      <point x="569" y="1084" type="curve" smooth="yes"/>
    </contour>
  </outline>
</glyph>
<glyph name="logicalnot" format="2">
  <advance width="1628"/>
  <unicode hex="00AC"/>
  <outline>
    <contour>
      <point x="119" y="776" type="line"/>
      <point x="119" y="634" type="line"/>
      <point x="1347" y="634" type="line"/>
      <point x="1347" y="256" type="line"/>
      <point x="1507" y="256" type="line"/>
      <point x="1507" y="776" type="line"/>
    </contour>
  </outline>
</glyph>
<glyph name="softhyphen" format="2">
  <advance width="1185"/>
  <unicode hex="00AD"/>
  <outline>
    <contour>
      <point x="941" y="458" type="line"/>
      <point x="941" y="614" type="line"/>
      <point x="244" y="614" type="line"/>
      <point x="244" y="458" type="line"/>
    </contour>
  </outline>
</glyph>
<glyph name="twosuperior" format="2">
  <advance width="864"/>
  <unicode hex="00B2"/>
  <outline>
    <contour>
      <point x="762" y="956" type="line"/>
      <point x="242" y="956" type="line"/>
      <point x="477" y="1110" type="line"/>
      <point x="674" y="1250"/>
      <point x="770" y="1338"/>
      <point x="770" y="1470" type="curve" smooth="yes"/>
      <point x="770" y="1616"/>
      <point x="633" y="1706"/>
      <point x="418" y="1706" type="curve" smooth="yes"/>
      <point x="285" y="1706"/>
      <point x="171" y="1662"/>
      <point x="72" y="1596" type="curve"/>
      <point x="146" y="1504" type="line"/>
      <point x="232" y="1556"/>
      <point x="316" y="1590"/>
      <point x="430" y="1590" type="curve" smooth="yes"/>
      <point x="544" y="1590"/>
      <point x="621" y="1546"/>
      <point x="621" y="1462" type="curve" smooth="yes"/>
      <point x="621" y="1372"/>
      <point x="576" y="1325"/>
      <point x="357" y="1164" type="curve" smooth="yes"/>
      <point x="52" y="940" type="line"/>
      <point x="52" y="832" type="line"/>
      <point x="762" y="832" type="line"/>
    </contour>
  </outline>
</glyph>
<glyph name="ordmasculine" format="2">
  <advance width="962"/>
  <unicode hex="00BA"/>
  <anchor x="469" y="760" name="bottom"/>
  <anchor x="485" y="1450" name="top"/>
  <outline>
    <contour>
      <point x="894" y="1106" type="curve" smooth="yes"/>
      <point x="894" y="1326"/>
      <point x="735" y="1444"/>
      <point x="484" y="1444" type="curve" smooth="yes"/>
      <point x="229" y="1444"/>
      <point x="70" y="1324"/>
      <point x="70" y="1106" type="curve" smooth="yes"/>
      <point x="70" y="884"/>
      <point x="242" y="766"/>
      <point x="479" y="766" type="curve" smooth="yes"/>
      <point x="731" y="766"/>
      <point x="894" y="890"/>
    </contour>
    <contour>
      <point x="205" y="1106" type="curve" smooth="yes"/>
      <point x="205" y="1264"/>
      <point x="288" y="1338"/>
      <point x="481" y="1338" type="curve" smooth="yes"/>
      <point x="675" y="1338"/>
      <point x="758" y="1264"/>
      <point x="758" y="1106" type="curve" smooth="yes"/>
      <point x="758" y="950"/>
      <point x="675" y="872"/>
      <point x="481" y="872" type="curve" smooth="yes"/>
      <point x="284" y="872"/>
      <point x="205" y="950"/>
    </contour>
  </outline>
</glyph>
<glyph name="threequarters" format="2">
  <advance width="1641"/>
  <unicode hex="00BE"/>
  <outline>
    <contour>
      <point x="510" y="0" type="line"/>
      <point x="1438" y="1428" type="line"/>
      <point x="1286" y="1428" type="line"/>
      <point x="358" y="0" type="line"/>
    </contour>
    <contour>
      <point x="308" y="556" type="curve" smooth="yes"/>
      <point x="558" y="556"/>
      <point x="673" y="664"/>
      <point x="673" y="818" type="curve" smooth="yes"/>
      <point x="673" y="926"/>
      <point x="601" y="996"/>
      <point x="492" y="1016" type="curve"/>
      <point x="492" y="1022" type="line"/>
      <point x="575" y="1048"/>
      <point x="646" y="1118"/>
      <point x="646" y="1226" type="curve" smooth="yes"/>
      <point x="646" y="1354"/>
      <point x="545" y="1446" name=".hr01"/>
      <point x="345" y="1446" type="curve" smooth="yes"/>
      <point x="214" y="1446"/>
      <point x="124" y="1408"/>
      <point x="38" y="1348" type="curve"/>
      <point x="112" y="1256" type="line"/>
      <point x="188" y="1302"/>
      <point x="261" y="1332"/>
      <point x="349" y="1332" type="curve" smooth="yes"/>
      <point x="432" y="1332"/>
      <point x="499" y="1294"/>
      <point x="499" y="1210" type="curve" smooth="yes"/>
      <point x="499" y="1126"/>
      <point x="435" y="1070"/>
      <point x="291" y="1070" type="curve" smooth="yes"/>
      <point x="169" y="1070" type="line"/>
      <point x="169" y="960" type="line"/>
      <point x="290" y="960" type="line" smooth="yes"/>
      <point x="438" y="960"/>
      <point x="527" y="918"/>
      <point x="527" y="822" type="curve" smooth="yes"/>
      <point x="527" y="728"/>
      <point x="460" y="670"/>
      <point x="311" y="670" type="curve" smooth="yes"/>
      <point x="229" y="670"/>
      <point x="129" y="694"/>
      <point x="33" y="738" type="curve"/>
      <point x="33" y="612" type="line"/>
      <point x="118" y="572"/>
      <point x="206" y="556"/>
    </contour>
    <contour>
      <point x="1494" y="0" type="line"/>
      <point x="1494" y="192" type="line"/>
      <point x="1622" y="192" type="line"/>
      <point x="1622" y="312" type="line"/>
      <point x="1494" y="312" type="line"/>
      <point x="1494" y="862" type="line"/>
      <point x="1346" y="862" type="line"/>
      <point x="927" y="296" type="line"/>
      <point x="927" y="192" type="line"/>
      <point x="1341" y="192" type="line"/>
      <point x="1341" y="0" type="line"/>
    </contour>
    <contour>
      <point x="1244" y="546" type="line" smooth="yes"/>
      <point x="1276" y="590"/>
      <point x="1333" y="670"/>
      <point x="1347" y="700" type="curve"/>
      <point x="1343" y="636"/>
      <point x="1341" y="554"/>
      <point x="1341" y="498" type="curve" smooth="yes"/>
      <point x="1341" y="312" type="line"/>
      <point x="1072" y="312" type="line"/>
    </contour>
  </outline>
</glyph>
<glyph name="questiondown" format="2">
  <advance width="864"/>
  <unicode hex="00BF"/>
  <outline>
    <contour>
      <point x="582" y="662" type="line"/>
      <point x="442" y="662" type="line"/>
      <point x="442" y="628" type="line" smooth="yes"/>
      <point x="442" y="514"/>
      <point x="416" y="462"/>
      <point x="285" y="348" type="curve" smooth="yes"/>
      <point x="143" y="228"/>
      <point x="52" y="146"/>
      <point x="52" y="-34" type="curve" smooth="yes"/>
      <point x="52" y="-250"/>
      <point x="195" y="-384"/>
      <point x="445" y="-384" type="curve" smooth="yes"/>
      <point x="603" y="-384"/>
      <point x="730" y="-342"/>
      <point x="834" y="-286" type="curve"/>
      <point x="772" y="-146" type="line"/>
      <point x="681" y="-190"/>
      <point x="587" y="-230"/>
      <point x="457" y="-230" type="curve" smooth="yes"/>
      <point x="305" y="-230"/>
      <point x="220" y="-158"/>
      <point x="220" y="-30" type="curve" smooth="yes"/>
      <point x="220" y="90"/>
      <point x="265" y="138"/>
      <point x="417" y="268" type="curve" smooth="yes"/>
      <point x="545" y="378"/>
      <point x="582" y="458"/>
      <point x="582" y="608" type="curve" smooth="yes"/>
    </contour>
    <contour>
      <point x="627" y="956" type="curve" smooth="yes"/>
      <point x="627" y="1052"/>
      <point x="576" y="1092"/>
      <point x="504" y="1092" type="curve" smooth="yes"/>
      <point x="439" y="1092"/>
      <point x="383" y="1052"/>
      <point x="383" y="956" type="curve" smooth="yes"/>
      <point x="383" y="858"/>
      <point x="439" y="822"/>
      <point x="504" y="822" type="curve" smooth="yes"/>
      <point x="576" y="822"/>
      <point x="627" y="858"/>
    </contour>
  </outline>
</glyph>
<glyph name="Aring" format="2">
  <advance width="1413"/>
  <unicode hex="00C5"/>
  <anchor x="718" y="0" name="bottom"/>
  <anchor x="704" y="1756" name="top"/>
  <outline>
    <contour>
      <point x="1411" y="0" type="line"/>
      <point x="780" y="1434" type="line"/>
      <point x="635" y="1434" type="line"/>
      <point x="0" y="0" type="line"/>
      <point x="179" y="0" type="line"/>
      <point x="380" y="442" type="line"/>
      <point x="1024" y="442" type="line"/>
      <point x="1228" y="0" type="line"/>
    </contour>
    <contour>
      <point x="967" y="602" type="line"/>
      <point x="445" y="602" type="line"/>
      <point x="637" y="1034" type="line"/>
      <point x="654" y="1080"/>
      <point x="681" y="1166"/>
      <point x="704" y="1248" type="curve"/>
      <point x="719" y="1198"/>
      <point x="765" y="1066"/>
      <point x="777" y="1034" type="curve"/>
    </contour>
    <contour>
      <point x="702" y="1334" type="curve" smooth="yes"/>
      <point x="843" y="1334"/>
      <point x="946" y="1412"/>
      <point x="946" y="1548" type="curve" smooth="yes"/>
      <point x="946" y="1678"/>
      <point x="841" y="1756"/>
      <point x="702" y="1756" type="curve" smooth="yes"/>
      <point x="559" y="1756"/>
      <point x="462" y="1678"/>
      <point x="462" y="1546" type="curve" smooth="yes"/>
      <point x="462" y="1412"/>
      <point x="559" y="1334"/>
    </contour>
    <contour>
      <point x="702" y="1434" type="curve" smooth="yes"/>
      <point x="619" y="1434"/>
      <point x="573" y="1476"/>
      <point x="573" y="1546" type="curve" smooth="yes"/>
      <point x="573" y="1616"/>
      <point x="628" y="1658"/>
      <point x="702" y="1658" type="curve" smooth="yes"/>
      <point x="775" y="1658"/>
      <point x="830" y="1616"/>
      <point x="830" y="1546" type="curve" smooth="yes"/>
      <point x="830" y="1476"/>
      <point x="778" y="1434"/>
    </contour>
  </outline>
</glyph>
<glyph name="Thorn" format="2">
  <advance width="1132"/>
  <unicode hex="00DE"/>
  <anchor x="578" y="0" name="bottom"/>
  <anchor x="578" y="1428" name="top"/>
  <outline>
    <contour>
      <point x="1020" y="764" type="curve" smooth="yes"/>
      <point x="1020" y="1026"/>
      <point x="882" y="1180"/>
      <point x="550" y="1180" type="curve" smooth="yes"/>
      <point x="393" y="1180" type="line"/>
      <point x="393" y="1428" type="line"/>
      <point x="213" y="1428" type="line"/>
      <point x="213" y="0" type="line"/>
      <point x="393" y="0" type="line"/>
      <point x="393" y="310" type="line"/>
      <point x="528" y="310" type="line" smooth="yes"/>
      <point x="902" y="310"/>
      <point x="1020" y="524"/>
    </contour>
    <contour>
      <point x="393" y="462" type="line"/>
      <point x="393" y="1026" type="line"/>
      <point x="538" y="1026" type="line" smooth="yes"/>
      <point x="748" y="1026"/>
      <point x="836" y="938"/>
      <point x="836" y="754" type="curve" smooth="yes"/>
      <point x="836" y="544"/>
      <point x="732" y="462"/>
      <point x="510" y="462" type="curve" smooth="yes"/>
    </contour>
  </outline>
</glyph>
<glyph name="germandbls" format="2">
  <advance width="1225"/>
  <unicode hex="00DF"/>
  <anchor x="621" y="0" name="bottom"/>
  <anchor x="621" y="1530" name="top"/>
  <outline>
    <contour>
      <point x="1009" y="1234" type="curve" smooth="yes"/>
      <point x="1009" y="1432"/>
      <point x="845" y="1530"/>
      <point x="603" y="1530" type="curve" smooth="yes"/>
      <point x="366" y="1530"/>
      <point x="187" y="1436"/>
      <point x="187" y="1168" type="curve" smooth="yes"/>
      <point x="187" y="0" type="line"/>
      <point x="363" y="0" type="line"/>
      <point x="363" y="1168" type="line" smooth="yes"/>
      <point x="363" y="1338"/>
      <point x="475" y="1384"/>
      <point x="603" y="1384" type="curve" smooth="yes"/>
      <point x="737" y="1384"/>
      <point x="831" y="1336"/>
      <point x="831" y="1224" type="curve" smooth="yes"/>
      <point x="831" y="1046"/>
      <point x="582" y="1022"/>
      <point x="582" y="814" type="curve" smooth="yes"/>
      <point x="582" y="708"/>
      <point x="628" y="642"/>
      <point x="781" y="534" type="curve" smooth="yes"/>
      <point x="913" y="442"/>
      <point x="953" y="390"/>
      <point x="953" y="294" type="curve" smooth="yes"/>
      <point x="953" y="188"/>
      <point x="898" y="122" name=".hr01"/>
      <point x="770" y="122" type="curve" smooth="yes"/>
      <point x="674" y="122"/>
      <point x="573" y="164"/>
      <point x="510" y="206" type="curve"/>
      <point x="510" y="48" type="line"/>
      <point x="576" y="4"/>
      <point x="662" y="-20"/>
      <point x="781" y="-20" type="curve" smooth="yes"/>
      <point x="987" y="-20"/>
      <point x="1126" y="78"/>
      <point x="1126" y="306" type="curve" smooth="yes"/>
      <point x="1126" y="464"/>
      <point x="1048" y="550"/>
      <point x="917" y="646" type="curve" smooth="yes"/>
      <point x="783" y="744"/>
      <point x="754" y="770"/>
      <point x="754" y="824" type="curve" smooth="yes"/>
      <point x="754" y="944"/>
      <point x="1009" y="1006"/>
    </contour>
  </outline>
</glyph>
<glyph name="ccedilla" format="2">
  <advance width="1049"/>
  <unicode hex="00E7"/>
  <anchor x="615" y="-480" name="bottom"/>
  <anchor x="626" y="1072" name="top"/>
  <outline>
    <contour>
      <point x="660" y="-20" type="curve" smooth="yes"/>
      <point x="793" y="-20"/>
      <point x="881" y="0"/>
      <point x="959" y="38" type="curve"/>
      <point x="959" y="194" type="line"/>
      <point x="879" y="160"/>
      <point x="784" y="132"/>
      <point x="655" y="132" type="curve" smooth="yes"/>
      <point x="422" y="132"/>
      <point x="304" y="274"/>
      <point x="304" y="532" type="curve" smooth="yes"/>
      <point x="304" y="800"/>
      <point x="420" y="938"/>
      <point x="667" y="938" type="curve" smooth="yes"/>
      <point x="748" y="938"/>
      <point x="855" y="912"/>
      <point x="923" y="888" type="curve"/>
      <point x="977" y="1034" type="line"/>
      <point x="910" y="1066"/>
      <point x="789" y="1092"/>
      <point x="672" y="1092" type="curve" smooth="yes"/>
      <point x="356" y="1092"/>
      <point x="121" y="926"/>
      <point x="121" y="530" type="curve" smooth="yes"/>
      <point x="121" y="150"/>
      <point x="347" y="-20"/>
    </contour>
    <contour>
      <point x="837" y="-278" type="curve" smooth="yes"/>
      <point x="837" y="-176"/>
      <point x="753" y="-128"/>
      <point x="644" y="-106" type="curve"/>
      <point x="705" y="0" type="line"/>
      <point x="583" y="0" type="line"/>
      <point x="485" y="-172" type="line"/>
      <point x="599" y="-186"/>
      <point x="691" y="-212"/>
      <point x="691" y="-282" type="curve" smooth="yes"/>
      <point x="691" y="-348"/>
      <point x="631" y="-370"/>
      <point x="520" y="-370" type="curve" smooth="yes"/>
      <point x="479" y="-370"/>
      <point x="430" y="-366"/>
      <point x="405" y="-360" type="curve"/>
      <point x="405" y="-470" type="line"/>
      <point x="427" y="-476"/>
      <point x="466" y="-480"/>
      <point x="505" y="-480" type="curve" smooth="yes"/>
      <point x="726" y="-480"/>
      <point x="837" y="-406"/>
    </contour>
  </outline>
</glyph>
<glyph name="aogonek" format="2">
  <advance width="1131"/>
  <unicode hex="0105"/>
  <anchor x="566" y="-440" name="bottom"/>
  <anchor x="566" y="1072" name="top"/>
  <outline>
    <contour>
      <point x="580" y="1090" type="curve" smooth="yes"/>
      <point x="441" y="1090"/>
      <point x="311" y="1048"/>
      <point x="218" y="998" type="curve"/>
      <point x="272" y="866" type="line"/>
      <point x="359" y="908"/>
      <point x="459" y="948"/>
      <point x="570" y="948" type="curve" smooth="yes"/>
      <point x="707" y="948"/>
      <point x="788" y="888"/>
      <point x="788" y="710" type="curve" smooth="yes"/>
      <point x="788" y="646" type="line"/>
      <point x="608" y="640" type="line" smooth="yes"/>
      <point x="263" y="629"/>
      <point x="101" y="512"/>
      <point x="101" y="298" type="curve" smooth="yes"/>
      <point x="101" y="80"/>
      <point x="244" y="-20"/>
      <point x="435" y="-20" type="curve" smooth="yes"/>
      <point x="612" y="-20"/>
      <point x="697" y="34"/>
      <point x="790" y="152" type="curve"/>
      <point x="798" y="152" type="line"/>
      <point x="832" y="0" type="line"/>
      <point x="960" y="0" type="line"/>
      <point x="960" y="730" type="line" smooth="yes"/>
      <point x="960" y="980"/>
      <point x="837" y="1090"/>
    </contour>
    <contour>
      <point x="786" y="524" type="line"/>
      <point x="786" y="428" type="line" smooth="yes"/>
      <point x="786" y="220"/>
      <point x="652" y="122"/>
      <point x="476" y="122" type="curve" smooth="yes"/>
      <point x="362" y="122"/>
      <point x="283" y="176"/>
      <point x="283" y="296" type="curve" smooth="yes"/>
      <point x="283" y="432"/>
      <point x="368" y="508"/>
      <point x="631" y="518" type="curve" smooth="yes"/>
    </contour>
    <contour>
      <point x="825" y="-232" type="curve" smooth="yes"/>
      <point x="825" y="-150"/>
      <point x="870" y="-86"/>
      <point x="959" y="0" type="curve"/>
      <point x="864" y="30" type="line"/>
      <point x="784" y="-26"/>
      <point x="682" y="-138"/>
      <point x="682" y="-252" type="curve" smooth="yes"/>
      <point x="682" y="-370"/>
      <point x="746" y="-440"/>
      <point x="886" y="-440" type="curve" smooth="yes"/>
      <point x="937" y="-440"/>
      <point x="971" y="-432"/>
      <point x="1008" y="-422" type="curve"/>
      <point x="1008" y="-310" type="line"/>
      <point x="987" y="-314"/>
      <point x="957" y="-322" name=".hr01"/>
      <point x="914" y="-322" type="curve" smooth="yes"/>
      <point x="858" y="-322"/>
      <point x="825" y="-292"/>
    </contour>
  </outline>
</glyph>
<glyph name="dcaron" format="2">
  <advance width="1462"/>
  <unicode hex="010F"/>
  <anchor x="691" y="0" name="bottom"/>
  <anchor x="674" y="1520" name="top"/>
  <outline>
    <contour>
      <point x="672" y="-20" type="curve" smooth="yes"/>
      <point x="881" y="-20"/>
      <point x="1010" y="52"/>
      <point x="1090" y="144" type="curve"/>
      <point x="1099" y="144" type="line"/>
      <point x="1120" y="0" type="line" name=".hr01"/>
      <point x="1266" y="0" type="line"/>
      <point x="1266" y="1520" type="line"/>
      <point x="1090" y="1520" type="line"/>
      <point x="1090" y="1092" type="line" smooth="yes"/>
      <point x="1090" y="1052"/>
      <point x="1100" y="968"/>
      <point x="1104" y="934" type="curve"/>
      <point x="1088" y="934" type="line"/>
      <point x="1006" y="1022"/>
      <point x="880" y="1092"/>
      <point x="672" y="1092" type="curve" smooth="yes"/>
      <point x="340" y="1092"/>
      <point x="121" y="902"/>
      <point x="121" y="534" type="curve" smooth="yes"/>
      <point x="121" y="166"/>
      <point x="337" y="-20" name=".hr02"/>
    </contour>
    <contour>
      <point x="681" y="126" type="curve" smooth="yes"/>
      <point x="426" y="126"/>
      <point x="305" y="274"/>
      <point x="305" y="530" type="curve" smooth="yes"/>
      <point x="305" y="784"/>
      <point x="426" y="946"/>
      <point x="679" y="946" type="curve" smooth="yes"/>
      <point x="992" y="946"/>
      <point x="1087" y="798"/>
      <point x="1087" y="532" type="curve" smooth="yes"/>
      <point x="1087" y="500" type="line" smooth="yes"/>
      <point x="1087" y="250"/>
      <point x="979" y="126"/>
    </contour>
    <contour>
      <point x="1623" y="1520" type="line"/>
      <point x="1443" y="1520" type="line"/>
      <point x="1431" y="1434"/>
      <point x="1393" y="1300"/>
      <point x="1360" y="1224" type="curve"/>
      <point x="1360" y="1200" type="line"/>
      <point x="1452" y="1200" type="line"/>
      <point x="1523" y="1288"/>
      <point x="1609" y="1430"/>
      <point x="1623" y="1502" type="curve"/>
    </contour>
  </outline>
</glyph>
<glyph name="IJ" format="2">
  <advance width="1220"/>
  <unicode hex="0132"/>
  <anchor x="603" y="-380" name="bottom"/>
  <anchor x="603" y="1428" name="top"/>
  <outline>
    <contour>
      <point x="589" y="104" type="line"/>
      <point x="429" y="142" type="line"/>
      <point x="429" y="1284" type="line"/>
      <point x="589" y="1324" type="line"/>
      <point x="589" y="1428" type="line"/>
      <point x="88" y="1428" type="line"/>
      <point x="88" y="1324" type="line"/>
      <point x="249" y="1284" type="line"/>
      <point x="249" y="142" type="line"/>
      <point x="88" y="104" type="line"/>
      <point x="88" y="0" type="line"/>
      <point x="589" y="0" type="line"/>
    </contour>
    <contour>
      <point x="661" y="-380" type="curve" smooth="yes"/>
      <point x="877" y="-380"/>
      <point x="1020" y="-254"/>
      <point x="1020" y="22" type="curve" smooth="yes"/>
      <point x="1020" y="1428" type="line"/>
      <point x="840" y="1428" type="line"/>
      <point x="840" y="8" type="line" smooth="yes"/>
      <point x="840" y="-174"/>
      <point x="752" y="-222"/>
      <point x="655" y="-222" type="curve" smooth="yes"/>
      <point x="603" y="-222"/>
      <point x="558" y="-214"/>
      <point x="518" y="-202" type="curve"/>
      <point x="518" y="-354" type="line"/>
      <point x="553" y="-370"/>
      <point x="599" y="-380"/>
    </contour>
  </outline>
</glyph>
<glyph name="Lcaron" format="2">
  <advance width="1092"/>
  <unicode hex="013D"/>
  <anchor x="630" y="0" name="bottom"/>
  <anchor x="299" y="1428" name="top"/>
  <outline>
    <contour>
      <point x="1037" y="0" type="line"/>
      <point x="1037" y="160" type="line"/>
      <point x="394" y="160" type="line"/>
      <point x="394" y="1428" type="line"/>
      <point x="213" y="1428" type="line"/>
      <point x="213" y="0" type="line"/>
    </contour>
    <contour>
      <point x="1036" y="1428" type="line"/>
      <point x="861" y="1428" type="line"/>
      <point x="851" y="1342"/>
      <point x="820" y="1208"/>
      <point x="793" y="1132" type="curve"/>
      <point x="793" y="1108" type="line"/>
      <point x="889" y="1108" type="line"/>
      <point x="950" y="1196"/>
      <point x="1018" y="1338"/>
      <point x="1036" y="1410" type="curve"/>
    </contour>
  </outline>
</glyph>
<glyph name="lcaron" format="2">
  <advance width="765"/>
  <unicode hex="013E"/>
  <anchor x="335" y="0" name="bottom"/>
  <anchor x="335" y="1520" name="top"/>
  <outline>
    <contour>
      <point x="424" y="1520" type="line"/>
      <point x="248" y="1520" type="line"/>
      <point x="248" y="0" type="line"/>
      <point x="424" y="0" type="line"/>
    </contour>
    <contour>
      <point x="858" y="1520" type="line"/>
      <point x="670" y="1520" type="line"/>
      <point x="655" y="1434"/>
      <point x="608" y="1300"/>
      <point x="567" y="1224" type="curve"/>
      <point x="567" y="1200" type="line"/>
      <point x="654" y="1200" type="line"/>
      <point x="738" y="1288"/>
      <point x="847" y="1430"/>
      <point x="858" y="1502" type="curve"/>
    </contour>
  </outline>
</glyph>
<glyph name="Ldot" format="2">
  <advance width="1092"/>
  <unicode hex="013F"/>
  <anchor x="630" y="0" name="bottom"/>
  <anchor x="299" y="1428" name="top"/>
  <outline>
    <contour>
      <point x="1037" y="0" type="line"/>
      <point x="1037" y="160" type="line"/>
      <point x="394" y="160" type="line"/>
      <point x="394" y="1428" type="line"/>
      <point x="213" y="1428" type="line"/>
      <point x="213" y="0" type="line"/>
    </contour>
    <contour>
      <point x="798" y="826" type="curve" smooth="yes"/>
      <point x="739" y="826"/>
      <point x="693" y="792"/>
      <point x="693" y="714" type="curve" smooth="yes"/>
      <point x="693" y="638"/>
      <point x="739" y="602"/>
      <point x="798" y="602" type="curve" smooth="yes"/>
      <point x="852" y="602"/>
      <point x="900" y="638"/>
      <point x="900" y="714" type="curve" smooth="yes"/>
      <point x="900" y="792"/>
      <point x="852" y="826"/>
    </contour>
  </outline>
</glyph>
<glyph name="ldot" format="2">
  <advance width="790"/>
  <unicode hex="0140"/>
  <anchor x="351" y="0" name="bottom"/>
  <anchor x="351" y="1520" name="top"/>
  <outline>
    <contour>
      <point x="440" y="1520" type="line"/>
      <point x="264" y="1520" type="line"/>
      <point x="264" y="0" type="line"/>
      <point x="440" y="0" type="line"/>
    </contour>
    <contour>
      <point x="684" y="870" type="curve" smooth="yes"/>
      <point x="620" y="870"/>
      <point x="570" y="836"/>
      <point x="570" y="758" type="curve" smooth="yes"/>
      <point x="570" y="682"/>
      <point x="620" y="646"/>
      <point x="684" y="646" type="curve" smooth="yes"/>
      <point x="741" y="646"/>
      <point x="794" y="682"/>
      <point x="794" y="758" type="curve" smooth="yes"/>
      <point x="794" y="836"/>
      <point x="741" y="870"/>
    </contour>
  </outline>
</glyph>
<glyph name="lslash" format="2">
  <advance width="672"/>
  <unicode hex="0142"/>
  <anchor x="335" y="0" name="bottom"/>
  <anchor x="335" y="1520" name="top"/>
  <outline>
    <contour>
      <point x="396" y="0" type="line"/>
      <point x="396" y="684" type="line"/>
      <point x="677" y="820" type="line"/>
      <point x="595" y="938" type="line"/>
      <point x="396" y="850" type="line"/>
      <point x="396" y="1520" type="line"/>
      <point x="220" y="1520" type="line"/>
      <point x="220" y="736" type="line"/>
      <point x="-5" y="624" type="line"/>
      <point x="75" y="506" type="line"/>
      <point x="220" y="570" type="line"/>
      <point x="220" y="0" type="line"/>
    </contour>
  </outline>
</glyph>
<glyph name="OE" format="2">
  <advance width="2048"/>
  <unicode hex="0152"/>
  <anchor x="1025" y="0" name="bottom"/>
  <anchor x="1025" y="1428" name="top"/>
  <outline>
    <contour>
      <point x="856" y="1450" type="curve" smooth="yes"/>
      <point x="370" y="1450"/>
      <point x="134" y="1160"/>
      <point x="134" y="718" type="curve" smooth="yes"/>
      <point x="134" y="274"/>
      <point x="371" y="-20"/>
      <point x="868" y="-20" type="curve" smooth="yes"/>
      <point x="943" y="-20"/>
      <point x="1012" y="-12"/>
      <point x="1079" y="0" type="curve" name=".hr01"/>
      <point x="1916" y="0" type="line"/>
      <point x="1916" y="158" type="line"/>
      <point x="1269" y="158" type="line"/>
      <point x="1269" y="668" type="line"/>
      <point x="1874" y="668" type="line"/>
      <point x="1874" y="824" type="line"/>
      <point x="1269" y="824" type="line"/>
      <point x="1269" y="1270" type="line"/>
      <point x="1916" y="1270" type="line"/>
      <point x="1916" y="1428" type="line"/>
      <point x="1064" y="1428" type="line"/>
      <point x="999" y="1442"/>
      <point x="931" y="1450" name=".hr02"/>
    </contour>
    <contour>
      <point x="875" y="1292" type="curve" smooth="yes"/>
      <point x="956" y="1292"/>
      <point x="1027" y="1282"/>
      <point x="1091" y="1260" type="curve"/>
      <point x="1091" y="170" type="line"/>
      <point x="1030" y="148"/>
      <point x="954" y="136"/>
      <point x="872" y="136" type="curve" smooth="yes"/>
      <point x="496" y="136"/>
      <point x="322" y="356"/>
      <point x="322" y="716" type="curve" smooth="yes"/>
      <point x="322" y="1076"/>
      <point x="496" y="1292"/>
    </contour>
  </outline>
</glyph>
<glyph name="oe" format="2">
  <advance width="1901"/>
  <unicode hex="0153"/>
  <anchor x="951" y="0" name="bottom"/>
  <anchor x="951" y="1072" name="top"/>
  <outline>
    <contour>
      <point x="1356" y="1090" type="curve" smooth="yes"/>
      <point x="1193" y="1090"/>
      <point x="1066" y="1012"/>
      <point x="989" y="870" type="curve"/>
      <point x="909" y="1014"/>
      <point x="772" y="1090"/>
      <point x="605" y="1090" type="curve" smooth="yes"/>
      <point x="303" y="1090"/>
      <point x="118" y="890"/>
      <point x="118" y="538" type="curve" smooth="yes"/>
      <point x="118" y="180"/>
      <point x="321" y="-20"/>
      <point x="600" y="-20" type="curve" smooth="yes"/>
      <point x="774" y="-20"/>
      <point x="913" y="56"/>
      <point x="995" y="202" type="curve"/>
      <point x="1078" y="54"/>
      <point x="1219" y="-20"/>
      <point x="1400" y="-20" type="curve" smooth="yes"/>
      <point x="1541" y="-20"/>
      <point x="1632" y="2"/>
      <point x="1740" y="50" type="curve"/>
      <point x="1740" y="204" type="line"/>
      <point x="1634" y="156"/>
      <point x="1541" y="130"/>
      <point x="1402" y="130" type="curve" smooth="yes"/>
      <point x="1198" y="130"/>
      <point x="1087" y="246"/>
      <point x="1081" y="502" type="curve"/>
      <point x="1787" y="502" type="line"/>
      <point x="1787" y="608" type="line" smooth="yes"/>
      <point x="1787" y="900"/>
      <point x="1624" y="1090"/>
    </contour>
    <contour>
      <point x="598" y="944" type="curve" smooth="yes"/>
      <point x="806" y="944"/>
      <point x="899" y="808"/>
      <point x="899" y="530" type="curve" smooth="yes"/>
      <point x="899" y="264"/>
      <point x="808" y="126"/>
      <point x="602" y="126" type="curve" smooth="yes"/>
      <point x="392" y="126"/>
      <point x="302" y="268"/>
      <point x="302" y="538" type="curve" smooth="yes"/>
      <point x="302" y="806"/>
      <point x="390" y="944"/>
    </contour>
    <contour>
      <point x="1354" y="946" type="curve" smooth="yes"/>
      <point x="1527" y="946"/>
      <point x="1602" y="826"/>
      <point x="1602" y="642" type="curve"/>
      <point x="1085" y="642" type="line"/>
      <point x="1100" y="840"/>
      <point x="1196" y="946"/>
    </contour>
  </outline>
</glyph>
<glyph name="tcedilla" format="2">
  <advance width="766"/>
  <unicode hex="0163"/>
  <anchor x="437" y="-480" name="bottom"/>
  <anchor x="321" y="1319" name="top"/>
  <outline>
    <contour>
      <point x="543" y="139" type="curve" smooth="yes"/>
      <point x="448" y="139"/>
      <point x="382" y="198"/>
      <point x="382" y="323" type="curve" smooth="yes"/>
      <point x="382" y="926" type="line"/>
      <point x="688" y="926" type="line"/>
      <point x="688" y="1076" type="line"/>
      <point x="382" y="1076" type="line"/>
      <point x="382" y="1319" type="line"/>
      <point x="261" y="1319" type="line"/>
      <point x="188" y="1091" type="line"/>
      <point x="32" y="1017" type="line"/>
      <point x="32" y="926" type="line"/>
      <point x="182" y="926" type="line"/>
      <point x="182" y="317" type="line" smooth="yes"/>
      <point x="182" y="54"/>
      <point x="328" y="-20"/>
      <point x="501" y="-20" type="curve" smooth="yes"/>
      <point x="575" y="-20"/>
      <point x="653" y="-4"/>
      <point x="696" y="15" type="curve"/>
      <point x="696" y="162" type="line"/>
      <point x="659" y="149"/>
      <point x="596" y="139"/>
    </contour>
    <contour>
      <point x="642" y="-275" type="curve" smooth="yes"/>
      <point x="642" y="-170"/>
      <point x="561" y="-123"/>
      <point x="467" y="-101" type="curve"/>
      <point x="515" y="0" type="line"/>
      <point x="391" y="0" type="line"/>
      <point x="308" y="-168" type="line"/>
      <point x="410" y="-183"/>
      <point x="485" y="-208"/>
      <point x="485" y="-276" type="curve" smooth="yes"/>
      <point x="485" y="-339"/>
      <point x="436" y="-361"/>
      <point x="345" y="-361" type="curve" smooth="yes"/>
      <point x="306" y="-361"/>
      <point x="262" y="-357"/>
      <point x="236" y="-350" type="curve"/>
      <point x="236" y="-467" type="line"/>
      <point x="261" y="-474"/>
      <point x="304" y="-480"/>
      <point x="350" y="-480" type="curve" smooth="yes"/>
      <point x="542" y="-480"/>
      <point x="642" y="-404"/>
    </contour>
  </outline>
</glyph>
<glyph name="tcaron" format="2">
  <advance width="773"/>
  <unicode hex="0165"/>
  <anchor x="347" y="0" name="bottom"/>
  <anchor x="252" y="1520" name="top"/>
  <outline>
    <contour>
      <point x="436" y="124" type="curve" smooth="yes"/>
      <point x="360" y="124"/>
      <point x="306" y="186"/>
      <point x="306" y="316" type="curve" smooth="yes"/>
      <point x="306" y="936" type="line"/>
      <point x="558" y="936" type="line"/>
      <point x="558" y="1072" type="line"/>
      <point x="306" y="1072" type="line"/>
      <point x="306" y="1318" type="line"/>
      <point x="199" y="1318" type="line"/>
      <point x="137" y="1090" type="line"/>
      <point x="8" y="1020" type="line"/>
      <point x="8" y="936" type="line"/>
      <point x="130" y="936" type="line"/>
      <point x="130" y="312" type="line" smooth="yes"/>
      <point x="130" y="52"/>
      <point x="251" y="-20"/>
      <point x="397" y="-20" type="curve" smooth="yes"/>
      <point x="462" y="-20"/>
      <point x="527" y="-6"/>
      <point x="566" y="12" type="curve"/>
      <point x="566" y="146" type="line"/>
      <point x="533" y="134"/>
      <point x="482" y="124"/>
    </contour>
    <contour>
      <point x="803" y="1520" type="line"/>
      <point x="634" y="1520" type="line"/>
      <point x="626" y="1434"/>
      <point x="602" y="1300"/>
      <point x="581" y="1224" type="curve"/>
      <point x="581" y="1200" type="line"/>
      <point x="680" y="1200" type="line"/>
      <point x="732" y="1288"/>
      <point x="783" y="1430"/>
      <point x="803" y="1502" type="curve"/>
    </contour>
  </outline>
</glyph>
<glyph name="Bhook" format="2">
  <advance width="1431"/>
  <unicode hex="0181"/>
  <anchor x="742" y="0" name="bottom"/>
  <anchor x="742" y="1428" name="top"/>
  <outline>
    <contour>
      <point x="874" y="0" type="line" smooth="yes"/>
      <point x="1183" y="0"/>
      <point x="1374" y="144"/>
      <point x="1374" y="406" type="curve" smooth="yes"/>
      <point x="1374" y="625"/>
      <point x="1236" y="718"/>
      <point x="1063" y="749" type="curve"/>
      <point x="1063" y="758" type="line"/>
      <point x="1234" y="790"/>
      <point x="1327" y="908"/>
      <point x="1327" y="1075" type="curve" smooth="yes"/>
      <point x="1327" y="1333"/>
      <point x="1139" y="1428"/>
      <point x="779" y="1428" type="curve" smooth="yes"/>
      <point x="314" y="1428" type="line" smooth="yes"/>
      <point x="111" y="1428"/>
      <point x="20" y="1346"/>
      <point x="20" y="1177" type="curve" smooth="yes"/>
      <point x="20" y="1144"/>
      <point x="31" y="1094"/>
      <point x="43" y="1066" type="curve"/>
      <point x="214" y="1066" type="line"/>
      <point x="206" y="1084"/>
      <point x="194" y="1130"/>
      <point x="194" y="1174" type="curve" smooth="yes"/>
      <point x="194" y="1239"/>
      <point x="231" y="1282"/>
      <point x="313" y="1282" type="curve" smooth="yes"/>
      <point x="365" y="1282" type="line"/>
      <point x="365" y="0" type="line"/>
    </contour>
    <contour>
      <point x="566" y="145" type="line"/>
      <point x="566" y="675" type="line"/>
      <point x="826" y="675" type="line" smooth="yes"/>
      <point x="1079" y="675"/>
      <point x="1161" y="576"/>
      <point x="1161" y="419" type="curve" smooth="yes"/>
      <point x="1161" y="253"/>
      <point x="1081" y="145"/>
      <point x="839" y="145" type="curve" smooth="yes"/>
    </contour>
    <contour>
      <point x="566" y="817" type="line"/>
      <point x="566" y="1282" type="line"/>
      <point x="789" y="1282" type="line" smooth="yes"/>
      <point x="1020" y="1282"/>
      <point x="1120" y="1217"/>
      <point x="1120" y="1057" type="curve" smooth="yes"/>
      <point x="1120" y="899"/>
      <point x="1049" y="817"/>
      <point x="815" y="817" type="curve" smooth="yes"/>
    </contour>
  </outline>
</glyph>
<glyph name="Oopen" format="2">
  <advance width="1417"/>
  <unicode hex="0186"/>
  <anchor x="497" y="0" name="bottom"/>
  <anchor x="497" y="1428" name="top"/>
  <outline>
    <contour>
      <point x="487" y="-20" type="curve" smooth="yes"/>
      <point x="906" y="-20"/>
      <point x="1147" y="283"/>
      <point x="1147" y="715" type="curve" smooth="yes"/>
      <point x="1147" y="1163"/>
      <point x="929" y="1448"/>
      <point x="490" y="1448" type="curve" smooth="yes"/>
      <point x="320" y="1448"/>
      <point x="174" y="1418"/>
      <point x="62" y="1364" type="curve"/>
      <point x="136" y="1220" type="line"/>
      <point x="226" y="1261"/>
      <point x="335" y="1298"/>
      <point x="462" y="1298" type="curve" smooth="yes"/>
      <point x="776" y="1298"/>
      <point x="937" y="1074"/>
      <point x="937" y="717" type="curve" smooth="yes"/>
      <point x="937" y="355"/>
      <point x="756" y="130"/>
      <point x="459" y="130" type="curve" smooth="yes"/>
      <point x="335" y="130"/>
      <point x="227" y="154"/>
      <point x="118" y="187" type="curve"/>
      <point x="118" y="38" type="line"/>
      <point x="225" y="-1"/>
      <point x="330" y="-20"/>
    </contour>
  </outline>
</glyph>
<glyph name="Chook" format="2">
  <advance width="1418"/>
  <unicode hex="0187"/>
  <anchor x="746" y="0" name="bottom"/>
  <anchor x="758" y="1669" name="top"/>
  <outline>
    <contour>
      <point x="1272" y="1716" type="curve" smooth="yes"/>
      <point x="1105" y="1716"/>
      <point x="1029" y="1623"/>
      <point x="1029" y="1454" type="curve" smooth="yes"/>
      <point x="1029" y="1419" type="line"/>
      <point x="958" y="1438"/>
      <point x="882" y="1448"/>
      <point x="805" y="1448" type="curve" smooth="yes"/>
      <point x="364" y="1448"/>
      <point x="122" y="1148"/>
      <point x="122" y="717" type="curve" smooth="yes"/>
      <point x="122" y="267"/>
      <point x="337" y="-20"/>
      <point x="776" y="-20" type="curve" smooth="yes"/>
      <point x="934" y="-20"/>
      <point x="1039" y="-1"/>
      <point x="1148" y="39" type="curve"/>
      <point x="1148" y="187" type="line"/>
      <point x="1036" y="154"/>
      <point x="925" y="130"/>
      <point x="802" y="130" type="curve" smooth="yes"/>
      <point x="487" y="130"/>
      <point x="332" y="356"/>
      <point x="332" y="715" type="curve" smooth="yes"/>
      <point x="332" y="1075"/>
      <point x="511" y="1298"/>
      <point x="803" y="1298" type="curve" smooth="yes"/>
      <point x="929" y="1298"/>
      <point x="1030" y="1262"/>
      <point x="1119" y="1221" type="curve"/>
      <point x="1196" y="1369" type="line"/>
      <point x="1196" y="1474" type="line" smooth="yes"/>
      <point x="1196" y="1541"/>
      <point x="1230" y="1574"/>
      <point x="1290" y="1574" type="curve" smooth="yes"/>
      <point x="1334" y="1574"/>
      <point x="1376" y="1562"/>
      <point x="1395" y="1554" type="curve"/>
      <point x="1395" y="1691" type="line"/>
      <point x="1368" y="1703"/>
      <point x="1323" y="1716"/>
    </contour>
  </outline>
</glyph>
<glyph name="deltaturned" format="2">
  <advance width="1209"/>
  <unicode hex="018D"/>
  <anchor x="611" y="-446" name="bottom"/>
  <anchor x="611" y="1076" name="top"/>
  <outline>
    <contour>
      <point x="634" y="1096" type="curve" smooth="yes"/>
      <point x="368" y="1096"/>
      <point x="140" y="940"/>
      <point x="140" y="606" type="curve" smooth="yes"/>
      <point x="140" y="431"/>
      <point x="197" y="257"/>
      <point x="547" y="69" type="curve" smooth="yes"/>
      <point x="736" y="-32"/>
      <point x="768" y="-87"/>
      <point x="768" y="-155" type="curve" smooth="yes"/>
      <point x="768" y="-217"/>
      <point x="723" y="-299"/>
      <point x="565" y="-299" type="curve" smooth="yes"/>
      <point x="450" y="-299"/>
      <point x="352" y="-246"/>
      <point x="267" y="-180" type="curve"/>
      <point x="183" y="-330" type="line"/>
      <point x="241" y="-376"/>
      <point x="371" y="-454"/>
      <point x="565" y="-454" type="curve" smooth="yes"/>
      <point x="844" y="-454"/>
      <point x="962" y="-300"/>
      <point x="962" y="-153" type="curve" smooth="yes"/>
      <point x="962" y="-1"/>
      <point x="870" y="73"/>
      <point x="772" y="132" type="curve"/>
      <point x="1004" y="222"/>
      <point x="1132" y="374"/>
      <point x="1132" y="626" type="curve" smooth="yes"/>
      <point x="1132" y="912"/>
      <point x="924" y="1096"/>
    </contour>
    <contour>
      <point x="630" y="939" type="curve" smooth="yes"/>
      <point x="811" y="939"/>
      <point x="929" y="808"/>
      <point x="929" y="608" type="curve" smooth="yes"/>
      <point x="929" y="397"/>
      <point x="810" y="281"/>
      <point x="616" y="214" type="curve"/>
      <point x="446" y="297"/>
      <point x="337" y="419"/>
      <point x="337" y="608" type="curve" smooth="yes"/>
      <point x="337" y="800"/>
      <point x="442" y="939"/>
    </contour>
  </outline>
</glyph>
<glyph name="Ereversed" format="2">
  <advance width="1110"/>
  <unicode hex="018E"/>
  <anchor x="529" y="0" name="bottom"/>
  <anchor x="537" y="1428" name="top"/>
  <anchor x="1001" y="1428" name="topright"/>
  <outline>
    <contour>
      <point x="923" y="0" type="line"/>
      <point x="923" y="1428" type="line"/>
      <point x="120" y="1428" type="line"/>
      <point x="120" y="1278" type="line"/>
      <point x="723" y="1278" type="line"/>
      <point x="723" y="821" type="line"/>
      <point x="156" y="821" type="line"/>
      <point x="156" y="673" type="line"/>
      <point x="723" y="673" type="line"/>
      <point x="723" y="150" type="line"/>
      <point x="120" y="150" type="line"/>
      <point x="120" y="0" type="line"/>
    </contour>
  </outline>
</glyph>
<glyph name="Eopen" format="2">
  <advance width="1079"/>
  <unicode hex="0190"/>
  <anchor x="596" y="0" name="bottom"/>
  <anchor x="596" y="1428" name="top"/>
  <outline>
    <contour>
      <point x="635" y="1448" type="curve" smooth="yes"/>
      <point x="334" y="1448"/>
      <point x="173" y="1301"/>
      <point x="173" y="1093" type="curve" smooth="yes"/>
      <point x="173" y="898"/>
      <point x="294" y="786"/>
      <point x="480" y="754" type="curve"/>
      <point x="480" y="746" type="line" name=".hr01"/>
      <point x="239" y="713"/>
      <point x="108" y="591"/>
      <point x="108" y="389" type="curve" smooth="yes"/>
      <point x="108" y="150"/>
      <point x="262" y="-20"/>
      <point x="665" y="-20" type="curve" smooth="yes"/>
      <point x="846" y="-20"/>
      <point x="991" y="12"/>
      <point x="1111" y="69" type="curve"/>
      <point x="1111" y="225" type="line"/>
      <point x="987" y="165"/>
      <point x="828" y="121"/>
      <point x="684" y="121" type="curve" smooth="yes"/>
      <point x="443" y="121"/>
      <point x="315" y="222"/>
      <point x="315" y="402" type="curve" smooth="yes"/>
      <point x="315" y="586"/>
      <point x="478" y="668"/>
      <point x="752" y="668" type="curve" smooth="yes"/>
      <point x="945" y="668" type="line"/>
      <point x="945" y="811" type="line"/>
      <point x="763" y="811" type="line" smooth="yes"/>
      <point x="501" y="811"/>
      <point x="378" y="913"/>
      <point x="378" y="1076" type="curve" smooth="yes"/>
      <point x="378" y="1225"/>
      <point x="485" y="1308"/>
      <point x="643" y="1308" type="curve" smooth="yes"/>
      <point x="812" y="1308"/>
      <point x="911" y="1258"/>
      <point x="1016" y="1188" type="curve"/>
      <point x="1109" y="1304" type="line"/>
      <point x="997" y="1384"/>
      <point x="837" y="1448"/>
    </contour>
  </outline>
</glyph>
<glyph name="Fhook" format="2">
  <advance width="1098"/>
  <unicode hex="0191"/>
  <anchor x="276" y="0" name="bottom"/>
  <anchor x="771" y="1428" name="top"/>
  <anchor x="1195" y="1428" name="topright"/>
  <outline>
    <contour>
      <point x="259" y="-484" type="curve" smooth="yes"/>
      <point x="444" y="-484"/>
      <point x="584" y="-377"/>
      <point x="584" y="-131" type="curve" smooth="yes"/>
      <point x="584" y="672" type="line"/>
      <point x="1109" y="672" type="line"/>
      <point x="1109" y="822" type="line"/>
      <point x="584" y="822" type="line"/>
      <point x="584" y="1278" type="line"/>
      <point x="1146" y="1278" type="line"/>
      <point x="1146" y="1428" type="line"/>
      <point x="385" y="1428" type="line"/>
      <point x="385" y="-115" type="line" smooth="yes"/>
      <point x="385" y="-276"/>
      <point x="327" y="-334"/>
      <point x="255" y="-334" type="curve" smooth="yes"/>
      <point x="192" y="-334"/>
      <point x="152" y="-286"/>
      <point x="152" y="-206" type="curve" smooth="yes"/>
      <point x="152" y="-182"/>
      <point x="154" y="-162"/>
      <point x="160" y="-144" type="curve"/>
      <point x="-9" y="-98" type="line"/>
      <point x="-25" y="-140"/>
      <point x="-34" y="-180"/>
      <point x="-34" y="-217" type="curve" smooth="yes"/>
      <point x="-34" y="-381"/>
      <point x="70" y="-484"/>
    </contour>
  </outline>
</glyph>
<glyph name="florin" format="2">
  <advance width="1295"/>
  <unicode hex="0192"/>
  <anchor x="364" y="0" name="bottom"/>
  <anchor x="957" y="1530" name="top"/>
  <anchor x="1317" y="1530" name="topright"/>
  <outline>
    <contour>
      <point x="398" y="-484" type="curve" smooth="yes"/>
      <point x="652" y="-484"/>
      <point x="737" y="-362"/>
      <point x="737" y="-158" type="curve" smooth="yes"/>
      <point x="737" y="936" type="line"/>
      <point x="1156" y="936" type="line"/>
      <point x="1156" y="1072" type="line"/>
      <point x="737" y="1072" type="line"/>
      <point x="737" y="1142" type="line" smooth="yes"/>
      <point x="737" y="1310"/>
      <point x="833" y="1386"/>
      <point x="1036" y="1386" type="curve" smooth="yes"/>
      <point x="1125" y="1386"/>
      <point x="1217" y="1370"/>
      <point x="1285" y="1356" type="curve"/>
      <point x="1339" y="1494" type="line"/>
      <point x="1282" y="1512"/>
      <point x="1180" y="1530"/>
      <point x="1067" y="1530" type="curve" smooth="yes"/>
      <point x="758" y="1530"/>
      <point x="557" y="1416"/>
      <point x="557" y="1140" type="curve" smooth="yes"/>
      <point x="557" y="1078" type="line"/>
      <point x="261" y="1018" type="line"/>
      <point x="261" y="936" type="line"/>
      <point x="561" y="936" type="line"/>
      <point x="561" y="-164" type="line" smooth="yes"/>
      <point x="561" y="-294"/>
      <point x="490" y="-338"/>
      <point x="373" y="-338" type="curve" smooth="yes"/>
      <point x="280" y="-338"/>
      <point x="195" y="-298"/>
      <point x="195" y="-214" type="curve" smooth="yes"/>
      <point x="195" y="-198"/>
      <point x="195" y="-184"/>
      <point x="191" y="-172" type="curve"/>
      <point x="22" y="-140" type="line"/>
      <point x="18" y="-170"/>
      <point x="26" y="-200"/>
      <point x="26" y="-226" type="curve" smooth="yes"/>
      <point x="26" y="-384"/>
      <point x="187" y="-484"/>
    </contour>
  </outline>
</glyph>
<glyph name="Ghook" format="2">
  <advance width="1474"/>
  <unicode hex="0193"/>
  <anchor x="804" y="0" name="bottom"/>
  <anchor x="863" y="1540" name="top"/>
  <outline>
    <contour>
      <point x="1365" y="1716" type="curve" smooth="yes"/>
      <point x="1198" y="1716"/>
      <point x="1122" y="1623"/>
      <point x="1122" y="1454" type="curve" smooth="yes"/>
      <point x="1122" y="1412" type="line"/>
      <point x="1042" y="1436"/>
      <point x="955" y="1449"/>
      <point x="863" y="1449" type="curve" smooth="yes"/>
      <point x="393" y="1449"/>
      <point x="122" y="1158"/>
      <point x="122" y="714" type="curve" smooth="yes"/>
      <point x="122" y="261"/>
      <point x="361" y="-20"/>
      <point x="802" y="-20" type="curve" smooth="yes"/>
      <point x="1004" y="-20"/>
      <point x="1152" y="5"/>
      <point x="1307" y="56" type="curve"/>
      <point x="1307" y="750" type="line"/>
      <point x="804" y="750" type="line"/>
      <point x="804" y="599" type="line"/>
      <point x="1107" y="599" type="line"/>
      <point x="1107" y="165" type="line"/>
      <point x="1039" y="145"/>
      <point x="962" y="129"/>
      <point x="842" y="129" type="curve" smooth="yes"/>
      <point x="475" y="129"/>
      <point x="330" y="362"/>
      <point x="330" y="714" type="curve" smooth="yes"/>
      <point x="330" y="1073"/>
      <point x="525" y="1299"/>
      <point x="854" y="1299" type="curve" smooth="yes"/>
      <point x="988" y="1299"/>
      <point x="1116" y="1262"/>
      <point x="1215" y="1216" type="curve"/>
      <point x="1289" y="1364" type="line"/>
      <point x="1289" y="1474" type="line" smooth="yes"/>
      <point x="1289" y="1541"/>
      <point x="1323" y="1574"/>
      <point x="1383" y="1574" type="curve" smooth="yes"/>
      <point x="1427" y="1574"/>
      <point x="1469" y="1562"/>
      <point x="1488" y="1554" type="curve"/>
      <point x="1488" y="1691" type="line"/>
      <point x="1460" y="1703"/>
      <point x="1416" y="1716"/>
    </contour>
  </outline>
</glyph>
<glyph name="hv" format="2">
  <advance width="1863"/>
  <unicode hex="0195"/>
  <anchor x="947" y="0" name="bottom"/>
  <anchor x="947" y="1076" name="top"/>
  <outline>
    <contour>
      <point x="1291" y="-20" type="curve" smooth="yes"/>
      <point x="1584" y="-20"/>
      <point x="1731" y="102"/>
      <point x="1731" y="427" type="curve" smooth="yes"/>
      <point x="1731" y="1075" type="line"/>
      <point x="1530" y="1075" type="line"/>
      <point x="1530" y="435" type="line" smooth="yes"/>
      <point x="1530" y="225"/>
      <point x="1456" y="140"/>
      <point x="1290" y="140" type="curve" smooth="yes"/>
      <point x="1127" y="140"/>
      <point x="1051" y="224"/>
      <point x="1051" y="393" type="curve" smooth="yes"/>
      <point x="1051" y="699" type="line" smooth="yes"/>
      <point x="1051" y="975"/>
      <point x="922" y="1094"/>
      <point x="682" y="1094" type="curve" smooth="yes"/>
      <point x="555" y="1094"/>
      <point x="437" y="1038"/>
      <point x="372" y="929" type="curve"/>
      <point x="359" y="929" type="line"/>
      <point x="366" y="977"/>
      <point x="370" y="1037"/>
      <point x="370" y="1094" type="curve" smooth="yes"/>
      <point x="370" y="1520" type="line"/>
      <point x="170" y="1520" type="line"/>
      <point x="170" y="0" type="line" name=".hr01"/>
      <point x="370" y="0" type="line"/>
      <point x="370" y="548" type="line" smooth="yes"/>
      <point x="370" y="795"/>
      <point x="435" y="933"/>
      <point x="643" y="933" type="curve" smooth="yes"/>
      <point x="785" y="933"/>
      <point x="850" y="848"/>
      <point x="850" y="680" type="curve" smooth="yes"/>
      <point x="850" y="376" type="line" smooth="yes"/>
      <point x="850" y="99"/>
      <point x="997" y="-20" name=".hr02"/>
    </contour>
  </outline>
</glyph>
<glyph name="Iotaafrican" format="2">
  <advance width="802"/>
  <unicode hex="0196"/>
  <anchor x="417" y="0" name="bottom"/>
  <anchor x="287" y="1428" name="top"/>
  <outline>
    <contour>
      <point x="496" y="-20" type="curve" smooth="yes"/>
      <point x="570" y="-20"/>
      <point x="655" y="-6"/>
      <point x="696" y="12" type="curve"/>
      <point x="696" y="153" type="line"/>
      <point x="659" y="142"/>
      <point x="590" y="130"/>
      <point x="530" y="130" type="curve" smooth="yes"/>
      <point x="427" y="130"/>
      <point x="381" y="194"/>
      <point x="381" y="326" type="curve" smooth="yes"/>
      <point x="381" y="1428" type="line"/>
      <point x="180" y="1428" type="line"/>
      <point x="180" y="310" type="line" smooth="yes"/>
      <point x="180" y="53"/>
      <point x="315" y="-20"/>
    </contour>
  </outline>
</glyph>
<glyph name="khook" format="2">
  <advance width="1197"/>
  <unicode hex="0199"/>
  <anchor x="554" y="0" name="bottom"/>
  <anchor x="554" y="1531" name="top"/>
  <outline>
    <contour>
      <point x="431" y="1531" type="curve" smooth="yes"/>
      <point x="258" y="1531"/>
      <point x="170" y="1434"/>
      <point x="170" y="1241" type="curve" smooth="yes"/>
      <point x="170" y="0" type="line"/>
      <point x="369" y="0" type="line"/>
      <point x="369" y="388" type="line"/>
      <point x="489" y="492" type="line"/>
      <point x="850" y="0" type="line"/>
      <point x="1089" y="0" type="line"/>
      <point x="625" y="615" type="line"/>
      <point x="1060" y="1076" type="line"/>
      <point x="827" y="1076" type="line"/>
      <point x="495" y="721" type="line" smooth="yes"/>
      <point x="457" y="681"/>
      <point x="392" y="598"/>
      <point x="367" y="561" type="curve"/>
      <point x="359" y="561" type="line"/>
      <point x="364" y="613"/>
      <point x="369" y="695"/>
      <point x="369" y="740" type="curve" smooth="yes"/>
      <point x="369" y="1251" type="line" smooth="yes"/>
      <point x="369" y="1334"/>
      <point x="402" y="1365"/>
      <point x="461" y="1365" type="curve" smooth="yes"/>
      <point x="505" y="1365"/>
      <point x="548" y="1353"/>
      <point x="566" y="1345" type="curve"/>
      <point x="566" y="1504" type="line"/>
      <point x="538" y="1516"/>
      <point x="483" y="1531"/>
    </contour>
  </outline>
</glyph>
<glyph name="lambdastroke" format="2">
  <advance width="1217"/>
  <unicode hex="019B"/>
  <anchor x="555" y="0" name="bottom"/>
  <anchor x="555" y="1532" name="top"/>
  <outline>
    <contour>
      <point x="195" y="0" type="line"/>
      <point x="431" y="552" type="line" smooth="yes"/>
      <point x="473" y="651"/>
      <point x="512" y="757"/>
      <point x="535" y="848" type="curve"/>
      <point x="543" y="848" type="line"/>
      <point x="558" y="773"/>
      <point x="604" y="637"/>
      <point x="637" y="542" type="curve" smooth="yes"/>
      <point x="773" y="153" type="line" smooth="yes"/>
      <point x="816" y="29"/>
      <point x="876" y="-19"/>
      <point x="986" y="-19" type="curve" smooth="yes"/>
      <point x="1038" y="-19"/>
      <point x="1079" y="-8"/>
      <point x="1109" y="6" type="curve"/>
      <point x="1109" y="148" type="line"/>
      <point x="1094" y="144"/>
      <point x="1068" y="138"/>
      <point x="1047" y="138" type="curve" smooth="yes"/>
      <point x="998" y="138"/>
      <point x="969" y="171"/>
      <point x="940" y="251" type="curve" smooth="yes"/>
      <point x="593" y="1221" type="line"/>
      <point x="791" y="1284" type="line"/>
      <point x="750" y="1417" type="line"/>
      <point x="536" y="1352" type="line"/>
      <point x="470" y="1475"/>
      <point x="389" y="1532"/>
      <point x="232" y="1532" type="curve" smooth="yes"/>
      <point x="184" y="1532"/>
      <point x="130" y="1524"/>
      <point x="94" y="1516" type="curve"/>
      <point x="94" y="1363" type="line"/>
      <point x="123" y="1369"/>
      <point x="159" y="1375"/>
      <point x="207" y="1375" type="curve" smooth="yes"/>
      <point x="276" y="1375"/>
      <point x="316" y="1356"/>
      <point x="353" y="1296" type="curve"/>
      <point x="159" y="1237" type="line"/>
      <point x="201" y="1105" type="line"/>
      <point x="410" y="1168" type="line"/>
      <point x="452" y="1051" type="line"/>
      <point x="-12" y="0" type="line"/>
    </contour>
  </outline>
</glyph>
<glyph name="Mturned" format="2">
  <advance width="2184"/>
  <unicode hex="019C"/>
  <anchor x="1034" y="0" name="bottom"/>
  <anchor x="1034" y="1428" name="top"/>
  <outline>
    <contour>
      <point x="575" y="-20" type="curve" smooth="yes"/>
      <point x="727" y="-20"/>
      <point x="875" y="47"/>
      <point x="955" y="184" type="curve"/>
      <point x="966" y="184" type="line"/>
      <point x="1025" y="47"/>
      <point x="1136" y="-20"/>
      <point x="1313" y="-20" type="curve" smooth="yes"/>
      <point x="1453" y="-20"/>
      <point x="1598" y="45"/>
      <point x="1672" y="168" type="curve"/>
      <point x="1683" y="168" type="line"/>
      <point x="1715" y="0" type="line" name=".hr01"/>
      <point x="1872" y="0" type="line"/>
      <point x="1872" y="1428" type="line"/>
      <point x="1671" y="1428" type="line"/>
      <point x="1671" y="557" type="line" smooth="yes"/>
      <point x="1671" y="277"/>
      <point x="1596" y="129"/>
      <point x="1359" y="129" type="curve" smooth="yes"/>
      <point x="1196" y="129"/>
      <point x="1126" y="222"/>
      <point x="1126" y="415" type="curve" smooth="yes"/>
      <point x="1126" y="1428" type="line"/>
      <point x="926" y="1428" type="line"/>
      <point x="926" y="520" type="line" smooth="yes"/>
      <point x="926" y="263"/>
      <point x="838" y="129"/>
      <point x="610" y="129" type="curve" smooth="yes"/>
      <point x="451" y="129"/>
      <point x="381" y="222"/>
      <point x="381" y="415" type="curve" smooth="yes"/>
      <point x="381" y="1428" type="line"/>
      <point x="180" y="1428" type="line"/>
      <point x="180" y="415" type="line" smooth="yes"/>
      <point x="180" y="109"/>
      <point x="311" y="-20" name=".hr02"/>
    </contour>
  </outline>
</glyph>
<glyph name="Ocenteredtilde" format="2">
  <advance width="1592"/>
  <unicode hex="019F"/>
  <anchor x="785" y="0" name="bottom"/>
  <anchor x="785" y="1428" name="top"/>
  <outline>
    <contour>
      <point x="1446" y="716" type="curve" smooth="yes"/>
      <point x="1446" y="1162"/>
      <point x="1221" y="1450"/>
      <point x="787" y="1450" type="curve" smooth="yes"/>
      <point x="336" y="1450"/>
      <point x="122" y="1156"/>
      <point x="122" y="718" type="curve" smooth="yes"/>
      <point x="122" y="277"/>
      <point x="336" y="-20"/>
      <point x="785" y="-20" type="curve" smooth="yes"/>
      <point x="1221" y="-20"/>
      <point x="1446" y="275"/>
    </contour>
    <contour>
      <point x="785" y="129" type="curve" smooth="yes"/>
      <point x="489" y="129"/>
      <point x="347" y="327"/>
      <point x="331" y="654" type="curve"/>
      <point x="1237" y="654" type="line"/>
      <point x="1221" y="327"/>
      <point x="1080" y="129"/>
    </contour>
    <contour>
      <point x="787" y="1300" type="curve" smooth="yes"/>
      <point x="1073" y="1300"/>
      <point x="1211" y="1114"/>
      <point x="1234" y="802" type="curve"/>
      <point x="332" y="802" type="line"/>
      <point x="356" y="1112"/>
      <point x="497" y="1300"/>
    </contour>
  </outline>
</glyph>
<glyph name="Ohorn" format="2">
  <advance width="1647"/>
  <unicode hex="01A0"/>
  <anchor x="785" y="0" name="bottom"/>
  <anchor x="786" y="1428" name="top"/>
  <outline>
    <contour>
      <point x="1445" y="716" type="curve" smooth="yes"/>
      <point x="1445" y="880"/>
      <point x="1416" y="1023"/>
      <point x="1360" y="1137" type="curve"/>
      <point x="1528" y="1198"/>
      <point x="1595" y="1338"/>
      <point x="1627" y="1499" type="curve"/>
      <point x="1613" y="1520" type="line"/>
      <point x="1406" y="1520" type="line"/>
      <point x="1406" y="1378"/>
      <point x="1389" y="1271"/>
      <point x="1284" y="1241" type="curve"/>
      <point x="1174" y="1372"/>
      <point x="1007" y="1450"/>
      <point x="787" y="1450" type="curve" smooth="yes"/>
      <point x="334" y="1450"/>
      <point x="122" y="1156"/>
      <point x="122" y="718" type="curve" smooth="yes"/>
      <point x="122" y="277"/>
      <point x="334" y="-20"/>
      <point x="785" y="-20" type="curve" smooth="yes"/>
      <point x="1221" y="-20"/>
      <point x="1445" y="275"/>
    </contour>
    <contour>
      <point x="332" y="717" type="curve" smooth="yes"/>
      <point x="332" y="1077"/>
      <point x="471" y="1300"/>
      <point x="787" y="1300" type="curve" smooth="yes"/>
      <point x="1100" y="1300"/>
      <point x="1234" y="1080"/>
      <point x="1234" y="716" type="curve" smooth="yes"/>
      <point x="1234" y="353"/>
      <point x="1100" y="129"/>
      <point x="785" y="129" type="curve" smooth="yes"/>
      <point x="471" y="129"/>
      <point x="332" y="354"/>
    </contour>
  </outline>
</glyph>
<glyph name="ohorn" format="2">
  <advance width="1382"/>
  <unicode hex="01A1"/>
  <anchor x="609" y="0" name="bottom"/>
  <anchor x="614" y="1076" name="top"/>
  <outline>
    <contour>
      <point x="1116" y="540" type="curve" smooth="yes"/>
      <point x="1116" y="659"/>
      <point x="1091" y="761"/>
      <point x="1051" y="844" type="curve"/>
      <point x="1218" y="901"/>
      <point x="1286" y="1032"/>
      <point x="1322" y="1218" type="curve"/>
      <point x="1308" y="1240" type="line"/>
      <point x="1099" y="1240" type="line"/>
      <point x="1099" y="1105"/>
      <point x="1082" y="994"/>
      <point x="968" y="958" type="curve"/>
      <point x="881" y="1046"/>
      <point x="756" y="1096"/>
      <point x="615" y="1096" type="curve" smooth="yes"/>
      <point x="303" y="1096"/>
      <point x="110" y="895"/>
      <point x="110" y="540" type="curve" smooth="yes"/>
      <point x="110" y="183"/>
      <point x="321" y="-20"/>
      <point x="609" y="-20" type="curve" smooth="yes"/>
      <point x="920" y="-20"/>
      <point x="1116" y="183"/>
    </contour>
    <contour>
      <point x="317" y="540" type="curve" smooth="yes"/>
      <point x="317" y="800"/>
      <point x="403" y="934"/>
      <point x="611" y="934" type="curve" smooth="yes"/>
      <point x="819" y="934"/>
      <point x="910" y="800"/>
      <point x="910" y="540" type="curve" smooth="yes"/>
      <point x="910" y="278"/>
      <point x="821" y="141"/>
      <point x="613" y="141" type="curve" smooth="yes"/>
      <point x="405" y="141"/>
      <point x="317" y="278"/>
    </contour>
  </outline>
</glyph>
<glyph name="Phook" format="2">
  <advance width="1386"/>
  <unicode hex="01A4"/>
  <anchor x="697" y="0" name="bottom"/>
  <anchor x="697" y="1428" name="top"/>
  <outline>
    <contour>
      <point x="566" y="0" type="line"/>
      <point x="566" y="560" type="line"/>
      <point x="723" y="560" type="line" smooth="yes"/>
      <point x="1154" y="560"/>
      <point x="1292" y="769"/>
      <point x="1292" y="1011" type="curve" smooth="yes"/>
      <point x="1292" y="1278"/>
      <point x="1130" y="1428"/>
      <point x="755" y="1428" type="curve" smooth="yes"/>
      <point x="314" y="1428" type="line" smooth="yes"/>
      <point x="111" y="1428"/>
      <point x="20" y="1346"/>
      <point x="20" y="1177" type="curve" smooth="yes"/>
      <point x="20" y="1144"/>
      <point x="31" y="1094"/>
      <point x="43" y="1066" type="curve"/>
      <point x="214" y="1066" type="line"/>
      <point x="206" y="1084"/>
      <point x="194" y="1130"/>
      <point x="194" y="1174" type="curve" smooth="yes"/>
      <point x="194" y="1239"/>
      <point x="231" y="1282"/>
      <point x="313" y="1282" type="curve" smooth="yes"/>
      <point x="365" y="1282" type="line"/>
      <point x="365" y="0" type="line"/>
    </contour>
    <contour>
      <point x="566" y="707" type="line"/>
      <point x="566" y="1282" type="line"/>
      <point x="739" y="1282" type="line" smooth="yes"/>
      <point x="978" y="1282"/>
      <point x="1086" y="1191"/>
      <point x="1086" y="1003" type="curve" smooth="yes"/>
      <point x="1086" y="787"/>
      <point x="958" y="707"/>
      <point x="701" y="707" type="curve" smooth="yes"/>
    </contour>
  </outline>
</glyph>
<glyph name="Yr" format="2">
  <advance width="1295"/>
  <unicode hex="01A6"/>
  <anchor x="631" y="-200" name="bottom"/>
  <anchor x="631" y="1428" name="top"/>
  <outline>
    <contour>
      <point x="1234" y="-200" type="line"/>
      <point x="838" y="442" type="line"/>
      <point x="979" y="492"/>
      <point x="1120" y="598"/>
      <point x="1120" y="825" type="curve" smooth="yes"/>
      <point x="1120" y="1098"/>
      <point x="952" y="1228"/>
      <point x="594" y="1228" type="curve" smooth="yes"/>
      <point x="395" y="1228" type="line"/>
      <point x="395" y="1428" type="line"/>
      <point x="194" y="1428" type="line"/>
      <point x="194" y="0" type="line"/>
      <point x="395" y="0" type="line"/>
      <point x="395" y="394" type="line"/>
      <point x="659" y="394" type="line"/>
      <point x="1003" y="-200" type="line"/>
    </contour>
    <contour>
      <point x="395" y="539" type="line"/>
      <point x="395" y="1080" type="line"/>
      <point x="582" y="1080" type="line" smooth="yes"/>
      <point x="809" y="1080"/>
      <point x="914" y="1008"/>
      <point x="914" y="817" type="curve" smooth="yes"/>
      <point x="914" y="633"/>
      <point x="817" y="539"/>
      <point x="590" y="539" type="curve" smooth="yes"/>
    </contour>
  </outline>
</glyph>
<glyph name="tonetwo" format="2">
  <advance width="1043"/>
  <unicode hex="01A8"/>
  <anchor x="485" y="0" name="bottom"/>
  <anchor x="485" y="1076" name="top"/>
  <outline>
    <contour>
      <point x="464" y="1096" type="curve" smooth="yes"/>
      <point x="350" y="1096"/>
      <point x="243" y="1068"/>
      <point x="138" y="1022" type="curve"/>
      <point x="203" y="870" type="line"/>
      <point x="296" y="909"/>
      <point x="385" y="939"/>
      <point x="470" y="939" type="curve" smooth="yes"/>
      <point x="603" y="939"/>
      <point x="676" y="892"/>
      <point x="676" y="817" type="curve" smooth="yes"/>
      <point x="676" y="734"/>
      <point x="613" y="699"/>
      <point x="408" y="621" type="curve" smooth="yes"/>
      <point x="206" y="545"/>
      <point x="90" y="472"/>
      <point x="90" y="299" type="curve" smooth="yes"/>
      <point x="90" y="89"/>
      <point x="237" y="-20"/>
      <point x="523" y="-20" type="curve" smooth="yes"/>
      <point x="672" y="-20"/>
      <point x="776" y="4"/>
      <point x="863" y="50" type="curve"/>
      <point x="863" y="221" type="line"/>
      <point x="774" y="176"/>
      <point x="645" y="135"/>
      <point x="522" y="135" type="curve" smooth="yes"/>
      <point x="357" y="135"/>
      <point x="285" y="192"/>
      <point x="285" y="283" type="curve" smooth="yes"/>
      <point x="285" y="358"/>
      <point x="330" y="403"/>
      <point x="543" y="485" type="curve" smooth="yes"/>
      <point x="752" y="565"/>
      <point x="869" y="632"/>
      <point x="869" y="809" type="curve" smooth="yes"/>
      <point x="869" y="994"/>
      <point x="722" y="1096"/>
    </contour>
  </outline>
</glyph>
<glyph name="Esh" format="2">
  <advance width="1215"/>
  <unicode hex="01A9"/>
  <anchor x="575" y="0" name="bottom"/>
  <anchor x="575" y="1428" name="top"/>
  <outline>
    <contour>
      <point x="1077" y="0" type="line"/>
      <point x="1077" y="154" type="line"/>
      <point x="601" y="154" type="line" smooth="yes"/>
      <point x="495" y="154"/>
      <point x="401" y="152"/>
      <point x="303" y="152" type="curve"/>
      <point x="748" y="731" type="line"/>
      <point x="748" y="782" type="line"/>
      <point x="349" y="1279" type="line"/>
      <point x="394" y="1277"/>
      <point x="493" y="1276"/>
      <point x="549" y="1276" type="curve" smooth="yes"/>
      <point x="1054" y="1276" type="line"/>
      <point x="1054" y="1428" type="line"/>
      <point x="96" y="1428" type="line"/>
      <point x="96" y="1287" type="line"/>
      <point x="543" y="739" type="line"/>
      <point x="76" y="141" type="line"/>
      <point x="76" y="0" type="line"/>
    </contour>
  </outline>
</glyph>
<glyph name="eshreversedloop" format="2">
  <advance width="1080"/>
  <unicode hex="01AA"/>
  <anchor x="369" y="-480" name="bottom"/>
  <anchor x="369" y="1532" name="top"/>
  <outline>
    <contour>
      <point x="241" y="1532" type="curve" smooth="yes"/>
      <point x="49" y="1532"/>
      <point x="-16" y="1422"/>
      <point x="-16" y="1308" type="curve" smooth="yes"/>
      <point x="-16" y="1177"/>
      <point x="58" y="1081"/>
      <point x="236" y="1081" type="curve" smooth="yes"/>
      <point x="316" y="1081" type="line"/>
      <point x="316" y="-141" type="line" smooth="yes"/>
      <point x="316" y="-407"/>
      <point x="450" y="-480"/>
      <point x="631" y="-480" type="curve" smooth="yes"/>
      <point x="707" y="-480"/>
      <point x="791" y="-464"/>
      <point x="833" y="-445" type="curve"/>
      <point x="833" y="-298" type="line"/>
      <point x="794" y="-309"/>
      <point x="723" y="-321"/>
      <point x="663" y="-321" type="curve" smooth="yes"/>
      <point x="561" y="-321"/>
      <point x="515" y="-260"/>
      <point x="515" y="-139" type="curve" smooth="yes"/>
      <point x="515" y="1239" type="line" smooth="yes"/>
      <point x="515" y="1434"/>
      <point x="418" y="1532"/>
    </contour>
    <contour>
      <point x="224" y="1383" type="curve" smooth="yes"/>
      <point x="294" y="1383"/>
      <point x="316" y="1330"/>
      <point x="316" y="1257" type="curve" smooth="yes"/>
      <point x="316" y="1229" type="line"/>
      <point x="247" y="1229" type="line" smooth="yes"/>
      <point x="192" y="1229"/>
      <point x="151" y="1253"/>
      <point x="151" y="1308" type="curve" smooth="yes"/>
      <point x="151" y="1347"/>
      <point x="171" y="1383"/>
    </contour>
  </outline>
</glyph>
<glyph name="Thook" format="2">
  <advance width="1376"/>
  <unicode hex="01AC"/>
  <anchor x="586" y="0" name="bottom"/>
  <anchor x="586" y="1428" name="top"/>
  <outline>
    <contour>
      <point x="709" y="0" type="line"/>
      <point x="709" y="1278" type="line"/>
      <point x="1145" y="1278" type="line"/>
      <point x="1145" y="1428" type="line"/>
      <point x="314" y="1428" type="line" smooth="yes"/>
      <point x="111" y="1428"/>
      <point x="20" y="1346"/>
      <point x="20" y="1177" type="curve" smooth="yes"/>
      <point x="20" y="1143"/>
      <point x="31" y="1094"/>
      <point x="43" y="1066" type="curve"/>
      <point x="214" y="1066" type="line"/>
      <point x="206" y="1084"/>
      <point x="194" y="1130"/>
      <point x="194" y="1175" type="curve" smooth="yes"/>
      <point x="194" y="1239"/>
      <point x="231" y="1278"/>
      <point x="313" y="1278" type="curve" smooth="yes"/>
      <point x="509" y="1278" type="line"/>
      <point x="509" y="0" type="line"/>
    </contour>
  </outline>
</glyph>
<glyph name="yhook" format="2">
  <advance width="1376"/>
  <unicode hex="01B4"/>
  <anchor x="553" y="-480" name="bottom"/>
  <anchor x="553" y="1076" name="top"/>
  <outline>
    <contour>
      <point x="984" y="1096" type="curve" smooth="yes"/>
      <point x="872" y="1096"/>
      <point x="816" y="1042"/>
      <point x="764" y="893" type="curve" smooth="yes"/>
      <point x="620" y="479" type="line" smooth="yes"/>
      <point x="584" y="374"/>
      <point x="546" y="259"/>
      <point x="531" y="195" type="curve"/>
      <point x="523" y="195" type="line"/>
      <point x="507" y="284"/>
      <point x="476" y="378"/>
      <point x="439" y="478" type="curve" smooth="yes"/>
      <point x="217" y="1076" type="line"/>
      <point x="2" y="1076" type="line"/>
      <point x="435" y="-2" type="line"/>
      <point x="389" y="-133" type="line" smooth="yes"/>
      <point x="348" y="-250"/>
      <point x="268" y="-321"/>
      <point x="148" y="-321" type="curve" smooth="yes"/>
      <point x="103" y="-321"/>
      <point x="58" y="-315"/>
      <point x="31" y="-309" type="curve"/>
      <point x="31" y="-464" type="line"/>
      <point x="64" y="-472"/>
      <point x="115" y="-480"/>
      <point x="177" y="-480" type="curve" smooth="yes"/>
      <point x="392" y="-480"/>
      <point x="510" y="-349"/>
      <point x="585" y="-144" type="curve" smooth="yes"/>
      <point x="936" y="816" type="line" smooth="yes"/>
      <point x="967" y="902"/>
      <point x="998" y="936"/>
      <point x="1047" y="936" type="curve" smooth="yes"/>
      <point x="1067" y="936"/>
      <point x="1093" y="930"/>
      <point x="1108" y="926" type="curve"/>
      <point x="1108" y="1070" type="line"/>
      <point x="1077" y="1085"/>
      <point x="1032" y="1096"/>
    </contour>
  </outline>
</glyph>
<glyph name="Zstroke" format="2">
  <advance width="1239"/>
  <unicode hex="01B5"/>
  <anchor x="577" y="0" name="bottom"/>
  <anchor x="577" y="1428" name="top"/>
  <outline>
    <contour>
      <point x="159" y="676" type="line"/>
      <point x="419" y="676" type="line"/>
      <point x="76" y="129" type="line"/>
      <point x="76" y="0" type="line"/>
      <point x="1076" y="0" type="line"/>
      <point x="1076" y="152" type="line"/>
      <point x="318" y="152" type="line"/>
      <point x="641" y="676" type="line"/>
      <point x="981" y="676" type="line"/>
      <point x="981" y="811" type="line"/>
      <point x="748" y="811" type="line"/>
      <point x="1057" y="1300" type="line"/>
      <point x="1057" y="1428" type="line"/>
      <point x="99" y="1428" type="line"/>
      <point x="99" y="1277" type="line"/>
      <point x="815" y="1277" type="line"/>
      <point x="525" y="811" type="line"/>
      <point x="159" y="811" type="line"/>
    </contour>
  </outline>
</glyph>
<glyph name="zstroke" format="2">
  <advance width="1175"/>
  <unicode hex="01B6"/>
  <anchor x="478" y="0" name="bottom"/>
  <anchor x="478" y="1076" name="top"/>
  <outline>
    <contour>
      <point x="111" y="1076" type="line"/>
      <point x="111" y="926" type="line"/>
      <point x="640" y="926" type="line"/>
      <point x="435" y="631" type="line"/>
      <point x="114" y="631" type="line"/>
      <point x="114" y="482" type="line"/>
      <point x="327" y="482" type="line"/>
      <point x="78" y="126" type="line"/>
      <point x="78" y="0" type="line"/>
      <point x="877" y="0" type="line"/>
      <point x="877" y="150" type="line"/>
      <point x="310" y="150" type="line"/>
      <point x="539" y="482" type="line"/>
      <point x="844" y="482" type="line"/>
      <point x="844" y="631" type="line"/>
      <point x="649" y="631" type="line"/>
      <point x="862" y="934" type="line"/>
      <point x="862" y="1076" type="line"/>
    </contour>
  </outline>
</glyph>
<glyph name="ezhreversed" format="2">
  <advance width="1049"/>
  <unicode hex="01B9"/>
  <anchor x="513" y="-480" name="bottom"/>
  <anchor x="513" y="1076" name="top"/>
  <outline>
    <contour>
      <point x="588" y="-480" type="curve"/>
      <point x="770" y="-480"/>
      <point x="898" y="-453"/>
      <point x="990" y="-408" type="curve"/>
      <point x="990" y="-233" type="line"/>
      <point x="897" y="-277"/>
      <point x="758" y="-319"/>
      <point x="606" y="-319" type="curve" smooth="yes"/>
      <point x="399" y="-319"/>
      <point x="269" y="-195"/>
      <point x="269" y="-13" type="curve" smooth="yes"/>
      <point x="269" y="216"/>
      <point x="420" y="310"/>
      <point x="669" y="310" type="curve" smooth="yes"/>
      <point x="786" y="310" type="line"/>
      <point x="786" y="445" type="line"/>
      <point x="359" y="915" type="line"/>
      <point x="965" y="915" type="line"/>
      <point x="965" y="1076" type="line"/>
      <point x="122" y="1076" type="line"/>
      <point x="122" y="937" type="line"/>
      <point x="555" y="463" type="line"/>
      <point x="276" y="440"/>
      <point x="68" y="289"/>
      <point x="68" y="-18" type="curve" smooth="yes"/>
      <point x="68" y="-280"/>
      <point x="259" y="-479"/>
    </contour>
  </outline>
</glyph>
<glyph name="ezhtail" format="2">
  <advance width="1061"/>
  <unicode hex="01BA"/>
  <anchor x="506" y="-480" name="bottom"/>
  <anchor x="506" y="1076" name="top"/>
  <outline>
    <contour>
      <point x="437" y="-480" type="curve" smooth="yes"/>
      <point x="582" y="-480"/>
      <point x="701" y="-456"/>
      <point x="779" y="-419" type="curve"/>
      <point x="779" y="-248" type="line"/>
      <point x="700" y="-284"/>
      <point x="587" y="-322"/>
      <point x="445" y="-322" type="curve" smooth="yes"/>
      <point x="312" y="-322"/>
      <point x="240" y="-287"/>
      <point x="240" y="-231" type="curve" smooth="yes"/>
      <point x="240" y="-173"/>
      <point x="276" y="-137"/>
      <point x="444" y="-136" type="curve" smooth="yes"/>
      <point x="795" y="-133"/>
      <point x="917" y="30"/>
      <point x="917" y="253" type="curve" smooth="yes"/>
      <point x="917" y="486"/>
      <point x="760" y="606"/>
      <point x="494" y="618" type="curve"/>
      <point x="862" y="938" type="line"/>
      <point x="862" y="1076" type="line"/>
      <point x="61" y="1076" type="line"/>
      <point x="61" y="917" type="line"/>
      <point x="592" y="917" type="line"/>
      <point x="237" y="600" type="line"/>
      <point x="237" y="471" type="line"/>
      <point x="356" y="471" type="line" smooth="yes"/>
      <point x="591" y="471"/>
      <point x="716" y="413"/>
      <point x="716" y="252" type="curve" smooth="yes"/>
      <point x="716" y="90"/>
      <point x="641" y="22"/>
      <point x="426" y="20" type="curve" smooth="yes"/>
      <point x="132" y="18"/>
      <point x="56" y="-97"/>
      <point x="56" y="-232" type="curve" smooth="yes"/>
      <point x="56" y="-404"/>
      <point x="217" y="-480"/>
    </contour>
  </outline>
</glyph>
<glyph name="twostroke" format="2">
  <advance width="1295"/>
  <unicode hex="01BB"/>
  <anchor x="577" y="0" name="bottom"/>
  <anchor x="577" y="1530" name="top"/>
  <outline>
    <contour>
      <point x="528" y="1530" type="curve" smooth="yes"/>
      <point x="346" y="1530"/>
      <point x="210" y="1449"/>
      <point x="109" y="1357" type="curve"/>
      <point x="214" y="1229" type="line"/>
      <point x="310" y="1315"/>
      <point x="395" y="1362"/>
      <point x="520" y="1362" type="curve" smooth="yes"/>
      <point x="648" y="1362"/>
      <point x="734" y="1291"/>
      <point x="734" y="1157" type="curve" smooth="yes"/>
      <point x="734" y="1049"/>
      <point x="711" y="959"/>
      <point x="637" y="840" type="curve"/>
      <point x="150" y="840" type="line"/>
      <point x="150" y="691" type="line"/>
      <point x="526" y="691" type="line"/>
      <point x="96" y="159" type="line"/>
      <point x="96" y="0" type="line"/>
      <point x="1051" y="0" type="line"/>
      <point x="1051" y="154" type="line"/>
      <point x="322" y="154" type="line"/>
      <point x="322" y="163" type="line"/>
      <point x="755" y="691" type="line"/>
      <point x="1043" y="691" type="line"/>
      <point x="1043" y="840" type="line"/>
      <point x="853" y="840" type="line"/>
      <point x="917" y="955"/>
      <point x="940" y="1053"/>
      <point x="940" y="1163" type="curve" smooth="yes"/>
      <point x="940" y="1389"/>
      <point x="783" y="1530"/>
    </contour>
  </outline>
</glyph>
<glyph name="Tonefive" format="2">
  <advance width="1295"/>
  <unicode hex="01BC"/>
  <anchor x="588" y="0" name="bottom"/>
  <anchor x="588" y="1428" name="top"/>
  <outline>
    <contour>
      <point x="485" y="-20" type="curve" smooth="yes"/>
      <point x="882" y="-20"/>
      <point x="1068" y="169"/>
      <point x="1068" y="442" type="curve" smooth="yes"/>
      <point x="1068" y="724"/>
      <point x="844" y="880"/>
      <point x="544" y="880" type="curve" smooth="yes"/>
      <point x="465" y="880" type="line"/>
      <point x="465" y="1277" type="line"/>
      <point x="1010" y="1277" type="line"/>
      <point x="1010" y="1428" type="line"/>
      <point x="78" y="1428" type="line"/>
      <point x="78" y="1277" type="line"/>
      <point x="269" y="1277" type="line"/>
      <point x="269" y="739" type="line"/>
      <point x="516" y="739" type="line" smooth="yes"/>
      <point x="711" y="739"/>
      <point x="860" y="648"/>
      <point x="860" y="444" type="curve" smooth="yes"/>
      <point x="860" y="236"/>
      <point x="733" y="121"/>
      <point x="484" y="121" type="curve" smooth="yes"/>
      <point x="348" y="121"/>
      <point x="190" y="156"/>
      <point x="70" y="215" type="curve"/>
      <point x="70" y="59" type="line"/>
      <point x="187" y="3"/>
      <point x="327" y="-20"/>
    </contour>
  </outline>
</glyph>
<glyph name="wynn" format="2">
  <advance width="1240"/>
  <unicode hex="01BF"/>
  <anchor x="598" y="-480" name="bottom"/>
  <anchor x="598" y="1076" name="top"/>
  <outline>
    <contour>
      <point x="684" y="1096" type="curve" smooth="yes"/>
      <point x="521" y="1096"/>
      <point x="429" y="1022"/>
      <point x="370" y="931" type="curve"/>
      <point x="361" y="931" type="line"/>
      <point x="334" y="1076" type="line"/>
      <point x="170" y="1076" type="line"/>
      <point x="170" y="-480" type="line"/>
      <point x="370" y="-480" type="line"/>
      <point x="370" y="-21" type="line"/>
      <point x="806" y="8"/>
      <point x="1099" y="268"/>
      <point x="1099" y="644" type="curve" smooth="yes"/>
      <point x="1099" y="941"/>
      <point x="924" y="1096"/>
    </contour>
    <contour>
      <point x="636" y="933" type="curve" smooth="yes"/>
      <point x="798" y="933"/>
      <point x="892" y="817"/>
      <point x="892" y="640" type="curve" smooth="yes"/>
      <point x="892" y="362"/>
      <point x="695" y="178"/>
      <point x="370" y="137" type="curve"/>
      <point x="370" y="574" type="line" smooth="yes"/>
      <point x="370" y="815"/>
      <point x="445" y="933"/>
    </contour>
  </outline>
</glyph>
<glyph name="clickretroflex" format="2">
  <advance width="592"/>
  <unicode hex="01C3"/>
  <anchor x="279" y="0" name="bottom"/>
  <anchor x="279" y="1428" name="top"/>
  <outline>
    <contour>
      <point x="397" y="1428" type="line"/>
      <point x="159" y="1428" type="line"/>
      <point x="209" y="412" type="line"/>
      <point x="347" y="412" type="line"/>
    </contour>
    <contour>
      <point x="144" y="113" type="curve" smooth="yes"/>
      <point x="144" y="14"/>
      <point x="202" y="-27"/>
      <point x="277" y="-27" type="curve" smooth="yes"/>
      <point x="348" y="-27"/>
      <point x="410" y="14"/>
      <point x="410" y="113" type="curve" smooth="yes"/>
      <point x="410" y="215"/>
      <point x="348" y="252"/>
      <point x="277" y="252" type="curve" smooth="yes"/>
      <point x="202" y="252"/>
      <point x="144" y="215"/>
    </contour>
  </outline>
</glyph>
<glyph name="DZcaron" format="2">
  <advance width="2672"/>
  <unicode hex="01C4"/>
  <anchor x="2042" y="0" name="bottom"/>
  <anchor x="2029" y="1889" name="top"/>
  <outline>
    <contour>
      <point x="1344" y="728" type="curve" smooth="yes"/>
      <point x="1344" y="1186"/>
      <point x="1072" y="1428"/>
      <point x="639" y="1428" type="curve" smooth="yes"/>
      <point x="194" y="1428" type="line"/>
      <point x="194" y="0" type="line"/>
      <point x="598" y="0" type="line" smooth="yes"/>
      <point x="1066" y="0"/>
      <point x="1344" y="247"/>
    </contour>
    <contour>
      <point x="1134" y="723" type="curve" smooth="yes"/>
      <point x="1134" y="341"/>
      <point x="948" y="147"/>
      <point x="577" y="147" type="curve" smooth="yes"/>
      <point x="393" y="147" type="line"/>
      <point x="393" y="1282" type="line"/>
      <point x="616" y="1282" type="line" smooth="yes"/>
      <point x="947" y="1282"/>
      <point x="1134" y="1106"/>
    </contour>
    <contour>
      <point x="2520" y="152" type="line"/>
      <point x="1762" y="152" type="line"/>
      <point x="2501" y="1300" type="line"/>
      <point x="2501" y="1428" type="line"/>
      <point x="1542" y="1428" type="line"/>
      <point x="1542" y="1277" type="line"/>
      <point x="2258" y="1277" type="line"/>
      <point x="1519" y="129" type="line"/>
      <point x="1519" y="0" type="line"/>
      <point x="2520" y="0" type="line"/>
    </contour>
    <contour>
      <point x="2127" y="1570" type="line"/>
      <point x="2177" y="1659"/>
      <point x="2302" y="1788"/>
      <point x="2377" y="1864" type="curve"/>
      <point x="2377" y="1889" type="line"/>
      <point x="2242" y="1889" type="line"/>
      <point x="2172" y="1841"/>
      <point x="2097" y="1773"/>
      <point x="2026" y="1700" type="curve"/>
      <point x="1959" y="1773"/>
      <point x="1884" y="1841"/>
      <point x="1814" y="1889" type="curve"/>
      <point x="1681" y="1889" type="line"/>
      <point x="1681" y="1864" type="line"/>
      <point x="1754" y="1788"/>
      <point x="1875" y="1659"/>
      <point x="1928" y="1570" type="curve"/>
    </contour>
  </outline>
</glyph>
<glyph name="dzcaron" format="2">
  <advance width="2365"/>
  <unicode hex="01C6"/>
  <anchor x="1727" y="0" name="bottom"/>
  <anchor x="1714" y="1532" name="top"/>
  <outline>
    <contour>
      <point x="545" y="-20" type="curve" smooth="yes"/>
      <point x="711" y="-20"/>
      <point x="811" y="52"/>
      <point x="874" y="144" type="curve"/>
      <point x="883" y="144" type="line"/>
      <point x="915" y="0" type="line" name=".hr01"/>
      <point x="1074" y="0" type="line"/>
      <point x="1074" y="1520" type="line"/>
      <point x="874" y="1520" type="line"/>
      <point x="874" y="1104" type="line" smooth="yes"/>
      <point x="874" y="1059"/>
      <point x="882" y="973"/>
      <point x="887" y="937" type="curve"/>
      <point x="875" y="937" type="line"/>
      <point x="810" y="1026"/>
      <point x="712" y="1096"/>
      <point x="548" y="1096" type="curve" smooth="yes"/>
      <point x="285" y="1096"/>
      <point x="110" y="905"/>
      <point x="110" y="536" type="curve" smooth="yes"/>
      <point x="110" y="168"/>
      <point x="283" y="-20" name=".hr02"/>
    </contour>
    <contour>
      <point x="588" y="140" type="curve" smooth="yes"/>
      <point x="407" y="140"/>
      <point x="316" y="282"/>
      <point x="316" y="532" type="curve" smooth="yes"/>
      <point x="316" y="780"/>
      <point x="407" y="935"/>
      <point x="586" y="935" type="curve" smooth="yes"/>
      <point x="811" y="935"/>
      <point x="880" y="792"/>
      <point x="880" y="534" type="curve" smooth="yes"/>
      <point x="880" y="502" type="line" smooth="yes"/>
      <point x="880" y="260"/>
      <point x="802" y="140"/>
    </contour>
    <contour>
      <point x="2114" y="150" type="line"/>
      <point x="1546" y="150" type="line"/>
      <point x="2099" y="934" type="line"/>
      <point x="2099" y="1076" type="line"/>
      <point x="1348" y="1076" type="line"/>
      <point x="1348" y="926" type="line"/>
      <point x="1877" y="926" type="line"/>
      <point x="1315" y="126" type="line"/>
      <point x="1315" y="0" type="line"/>
      <point x="2114" y="0" type="line"/>
    </contour>
    <contour>
      <point x="1815" y="1212" type="line" name=".hr03"/>
      <point x="1865" y="1303"/>
      <point x="1990" y="1431"/>
      <point x="2065" y="1506" type="curve"/>
      <point x="2065" y="1532" type="line"/>
      <point x="1927" y="1532" type="line"/>
      <point x="1857" y="1487"/>
      <point x="1783" y="1423"/>
      <point x="1711" y="1352" type="curve"/>
      <point x="1645" y="1423"/>
      <point x="1570" y="1487"/>
      <point x="1500" y="1532" type="curve"/>
      <point x="1365" y="1532" type="line"/>
      <point x="1365" y="1506" type="line"/>
      <point x="1437" y="1431"/>
      <point x="1558" y="1303"/>
      <point x="1611" y="1212" type="curve"/>
    </contour>
  </outline>
</glyph>
<glyph name="LJ" format="2">
  <advance width="1756"/>
  <unicode hex="01C7"/>
  <anchor x="1059" y="-377" name="bottom"/>
  <anchor x="1344" y="1428" name="top"/>
  <outline>
    <contour>
      <point x="1010" y="0" type="line"/>
      <point x="1010" y="152" type="line"/>
      <point x="393" y="152" type="line"/>
      <point x="393" y="1428" type="line"/>
      <point x="194" y="1428" type="line"/>
      <point x="194" y="0" type="line"/>
    </contour>
    <contour>
      <point x="1059" y="-377" type="curve" smooth="yes"/>
      <point x="1291" y="-377"/>
      <point x="1445" y="-249"/>
      <point x="1445" y="21" type="curve" smooth="yes"/>
      <point x="1445" y="1428" type="line"/>
      <point x="1245" y="1428" type="line"/>
      <point x="1245" y="9" type="line" smooth="yes"/>
      <point x="1245" y="-173"/>
      <point x="1154" y="-227"/>
      <point x="1050" y="-227" type="curve" smooth="yes"/>
      <point x="996" y="-227"/>
      <point x="948" y="-219"/>
      <point x="906" y="-206" type="curve"/>
      <point x="906" y="-351" type="line"/>
      <point x="944" y="-367"/>
      <point x="993" y="-377"/>
    </contour>
  </outline>
</glyph>
<glyph name="Lj" format="2">
  <advance width="1684"/>
  <unicode hex="01C8"/>
  <anchor x="1117" y="-480" name="bottom"/>
  <anchor x="1332" y="1481" name="top"/>
  <outline>
    <contour>
      <point x="1013" y="0" type="line"/>
      <point x="1013" y="174" type="line"/>
      <point x="398" y="174" type="line"/>
      <point x="398" y="1428" type="line" name=".hr01"/>
      <point x="194" y="1428" type="line"/>
      <point x="194" y="0" type="line"/>
    </contour>
    <contour>
      <point x="1117" y="-480" type="curve" smooth="yes"/>
      <point x="1338" y="-480"/>
      <point x="1432" y="-353"/>
      <point x="1432" y="-153" type="curve" smooth="yes"/>
      <point x="1432" y="1076" type="line"/>
      <point x="1232" y="1076" type="line"/>
      <point x="1232" y="-152" type="line" smooth="yes"/>
      <point x="1232" y="-282"/>
      <point x="1171" y="-319"/>
      <point x="1087" y="-319" type="curve" smooth="yes"/>
      <point x="1036" y="-319"/>
      <point x="997" y="-312"/>
      <point x="957" y="-300" type="curve"/>
      <point x="957" y="-456" type="line"/>
      <point x="995" y="-470"/>
      <point x="1050" y="-480"/>
    </contour>
    <contour>
      <point x="1218" y="1364" type="curve" smooth="yes"/>
      <point x="1218" y="1283"/>
      <point x="1269" y="1247"/>
      <point x="1333" y="1247" type="curve" smooth="yes"/>
      <point x="1394" y="1247"/>
      <point x="1447" y="1283"/>
      <point x="1447" y="1364" type="curve" smooth="yes"/>
      <point x="1447" y="1447"/>
      <point x="1394" y="1481"/>
      <point x="1333" y="1481" type="curve" smooth="yes"/>
      <point x="1269" y="1481"/>
      <point x="1218" y="1447"/>
    </contour>
  </outline>
</glyph>
<glyph name="lj" format="2">
  <advance width="1135"/>
  <unicode hex="01C9"/>
  <anchor x="587" y="-480" name="bottom"/>
  <anchor x="801" y="1523" name="top"/>
  <outline>
    <contour>
      <point x="370" y="1520" type="line"/>
      <point x="170" y="1520" type="line"/>
      <point x="170" y="0" type="line"/>
      <point x="370" y="0" type="line"/>
    </contour>
    <contour>
      <point x="587" y="-480" type="curve" smooth="yes"/>
      <point x="808" y="-480"/>
      <point x="901" y="-353"/>
      <point x="901" y="-153" type="curve" smooth="yes"/>
      <point x="901" y="1076" type="line"/>
      <point x="701" y="1076" type="line"/>
      <point x="701" y="-152" type="line" smooth="yes"/>
      <point x="701" y="-282"/>
      <point x="640" y="-319"/>
      <point x="557" y="-319" type="curve" smooth="yes"/>
      <point x="506" y="-319"/>
      <point x="467" y="-312"/>
      <point x="427" y="-300" type="curve"/>
      <point x="427" y="-456" type="line"/>
      <point x="464" y="-470"/>
      <point x="519" y="-480"/>
    </contour>
    <contour>
      <point x="688" y="1364" type="curve" smooth="yes"/>
      <point x="688" y="1283"/>
      <point x="739" y="1247"/>
      <point x="803" y="1247" type="curve" smooth="yes"/>
      <point x="864" y="1247"/>
      <point x="917" y="1283"/>
      <point x="917" y="1364" type="curve" smooth="yes"/>
      <point x="917" y="1447"/>
      <point x="864" y="1481"/>
      <point x="803" y="1481" type="curve" smooth="yes"/>
      <point x="739" y="1481"/>
      <point x="688" y="1447"/>
    </contour>
  </outline>
</glyph>
<glyph name="Nj" format="2">
  <advance width="2099"/>
  <unicode hex="01CB"/>
  <anchor x="1593" y="-480" name="bottom"/>
  <anchor x="1807" y="1481" name="top"/>
  <outline>
    <contour>
      <point x="1352" y="1428" type="line"/>
      <point x="1164" y="1428" type="line"/>
      <point x="1164" y="637" type="line" smooth="yes"/>
      <point x="1164" y="510"/>
      <point x="1174" y="330"/>
      <point x="1178" y="264" type="curve"/>
      <point x="1170" y="264" type="line"/>
      <point x="436" y="1428" type="line"/>
      <point x="194" y="1428" type="line"/>
      <point x="194" y="0" type="line"/>
      <point x="380" y="0" type="line"/>
      <point x="380" y="785" type="line" smooth="yes"/>
      <point x="380" y="927"/>
      <point x="370" y="1077"/>
      <point x="364" y="1170" type="curve"/>
      <point x="372" y="1170" type="line"/>
      <point x="1108" y="0" type="line"/>
      <point x="1352" y="0" type="line"/>
    </contour>
    <contour>
      <point x="1593" y="-480" type="curve" smooth="yes"/>
      <point x="1814" y="-480"/>
      <point x="1907" y="-353"/>
      <point x="1907" y="-153" type="curve" smooth="yes"/>
      <point x="1907" y="1076" type="line"/>
      <point x="1707" y="1076" type="line"/>
      <point x="1707" y="-152" type="line" smooth="yes"/>
      <point x="1707" y="-282"/>
      <point x="1646" y="-319"/>
      <point x="1563" y="-319" type="curve" smooth="yes"/>
      <point x="1512" y="-319"/>
      <point x="1473" y="-312"/>
      <point x="1433" y="-300" type="curve"/>
      <point x="1433" y="-456" type="line"/>
      <point x="1471" y="-470"/>
      <point x="1525" y="-480"/>
    </contour>
    <contour>
      <point x="1694" y="1364" type="curve" smooth="yes"/>
      <point x="1694" y="1283"/>
      <point x="1745" y="1247"/>
      <point x="1809" y="1247" type="curve" smooth="yes"/>
      <point x="1870" y="1247"/>
      <point x="1923" y="1283"/>
      <point x="1923" y="1364" type="curve" smooth="yes" name=".hr01"/>
      <point x="1923" y="1447"/>
      <point x="1870" y="1481"/>
      <point x="1809" y="1481" type="curve" smooth="yes"/>
      <point x="1745" y="1481"/>
      <point x="1694" y="1447"/>
    </contour>
  </outline>
</glyph>
<glyph name="nj" format="2">
  <advance width="1851"/>
  <unicode hex="01CC"/>
  <anchor x="1304" y="-480" name="bottom"/>
  <anchor x="1518" y="1481" name="top"/>
  <outline>
    <contour>
      <point x="707" y="1096" type="curve" smooth="yes"/>
      <point x="568" y="1096"/>
      <point x="439" y="1041"/>
      <point x="369" y="930" type="curve"/>
      <point x="358" y="930" type="line"/>
      <point x="329" y="1076" type="line"/>
      <point x="170" y="1076" type="line"/>
      <point x="170" y="0" type="line"/>
      <point x="370" y="0" type="line"/>
      <point x="370" y="550" type="line" smooth="yes"/>
      <point x="370" y="797"/>
      <point x="442" y="934"/>
      <point x="669" y="934" type="curve" smooth="yes"/>
      <point x="825" y="934"/>
      <point x="896" y="849"/>
      <point x="896" y="679" type="curve" smooth="yes"/>
      <point x="896" y="0" type="line"/>
      <point x="1095" y="0" type="line"/>
      <point x="1095" y="700" type="line" smooth="yes"/>
      <point x="1095" y="977"/>
      <point x="959" y="1096"/>
    </contour>
    <contour>
      <point x="1304" y="-480" type="curve" smooth="yes"/>
      <point x="1525" y="-480"/>
      <point x="1618" y="-353"/>
      <point x="1618" y="-153" type="curve" smooth="yes"/>
      <point x="1618" y="1076" type="line"/>
      <point x="1418" y="1076" type="line"/>
      <point x="1418" y="-152" type="line" smooth="yes"/>
      <point x="1418" y="-282"/>
      <point x="1357" y="-319"/>
      <point x="1274" y="-319" type="curve" smooth="yes"/>
      <point x="1223" y="-319"/>
      <point x="1184" y="-312"/>
      <point x="1144" y="-300" type="curve"/>
      <point x="1144" y="-456" type="line"/>
      <point x="1181" y="-470"/>
      <point x="1236" y="-480"/>
    </contour>
    <contour>
      <point x="1405" y="1364" type="curve" smooth="yes"/>
      <point x="1405" y="1283"/>
      <point x="1456" y="1247"/>
      <point x="1520" y="1247" type="curve" smooth="yes"/>
      <point x="1581" y="1247"/>
      <point x="1634" y="1283"/>
      <point x="1634" y="1364" type="curve" smooth="yes"/>
      <point x="1634" y="1447"/>
      <point x="1581" y="1481"/>
      <point x="1520" y="1481" type="curve" smooth="yes"/>
      <point x="1456" y="1481"/>
      <point x="1405" y="1447"/>
    </contour>
  </outline>
</glyph>
<glyph name="acaron" format="2">
  <advance width="1131"/>
  <unicode hex="01CE"/>
  <anchor x="572" y="0" name="bottom"/>
  <anchor x="572" y="1532" name="top"/>
  <outline>
    <contour>
      <point x="590" y="1094" type="curve" smooth="yes"/>
      <point x="443" y="1094"/>
      <point x="307" y="1052"/>
      <point x="209" y="1001" type="curve"/>
      <point x="270" y="858" type="line"/>
      <point x="360" y="901"/>
      <point x="463" y="940"/>
      <point x="573" y="940" type="curve" smooth="yes"/>
      <point x="706" y="940"/>
      <point x="784" y="882"/>
      <point x="784" y="711" type="curve" smooth="yes"/>
      <point x="784" y="652" type="line"/>
      <point x="602" y="646" type="line" smooth="yes"/>
      <point x="257" y="635"/>
      <point x="92" y="518"/>
      <point x="92" y="302" type="curve" smooth="yes"/>
      <point x="92" y="82"/>
      <point x="236" y="-20"/>
      <point x="430" y="-20" type="curve" smooth="yes"/>
      <point x="610" y="-20"/>
      <point x="696" y="34"/>
      <point x="790" y="152" type="curve"/>
      <point x="798" y="152" type="line"/>
      <point x="837" y="0" type="line" name=".hr01"/>
      <point x="981" y="0" type="line"/>
      <point x="981" y="730" type="line" smooth="yes"/>
      <point x="981" y="981"/>
      <point x="852" y="1094"/>
    </contour>
    <contour>
      <point x="783" y="522" type="line"/>
      <point x="783" y="427" type="line" smooth="yes"/>
      <point x="783" y="229"/>
      <point x="654" y="134"/>
      <point x="484" y="134" type="curve" smooth="yes"/>
      <point x="374" y="134"/>
      <point x="298" y="186"/>
      <point x="298" y="302" type="curve" smooth="yes"/>
      <point x="298" y="433"/>
      <point x="380" y="506"/>
      <point x="633" y="516" type="curve" smooth="yes"/>
    </contour>
    <contour>
      <point x="672" y="1212" type="line"/>
      <point x="722" y="1303"/>
      <point x="847" y="1431"/>
      <point x="922" y="1506" type="curve"/>
      <point x="922" y="1532" type="line"/>
      <point x="784" y="1532" type="line"/>
      <point x="714" y="1487"/>
      <point x="640" y="1423"/>
      <point x="568" y="1352" type="curve"/>
      <point x="502" y="1423"/>
      <point x="427" y="1487"/>
      <point x="357" y="1532" type="curve"/>
      <point x="222" y="1532" type="line"/>
      <point x="222" y="1506" type="line"/>
      <point x="294" y="1431"/>
      <point x="416" y="1303"/>
      <point x="469" y="1212" type="curve"/>
    </contour>
  </outline>
</glyph>
<glyph name="Icaron" format="2">
  <advance width="590"/>
  <unicode hex="01CF"/>
  <anchor x="350" y="0" name="bottom"/>
  <anchor x="350" y="1889" name="top"/>
  <outline>
    <contour>
      <point x="617" y="100" type="line"/>
      <point x="448" y="135" type="line"/>
      <point x="448" y="1292" type="line"/>
      <point x="617" y="1329" type="line"/>
      <point x="617" y="1428" type="line"/>
      <point x="79" y="1428" type="line"/>
      <point x="79" y="1329" type="line"/>
      <point x="248" y="1292" type="line"/>
      <point x="248" y="135" type="line"/>
      <point x="79" y="100" type="line"/>
      <point x="79" y="0" type="line"/>
      <point x="617" y="0" type="line"/>
    </contour>
    <contour>
      <point x="448" y="1570" type="line"/>
      <point x="498" y="1659"/>
      <point x="623" y="1788"/>
      <point x="698" y="1864" type="curve"/>
      <point x="698" y="1889" type="line"/>
      <point x="563" y="1889" type="line"/>
      <point x="493" y="1841"/>
      <point x="418" y="1773"/>
      <point x="347" y="1700" type="curve"/>
      <point x="280" y="1773"/>
      <point x="205" y="1841"/>
      <point x="135" y="1889" type="curve"/>
      <point x="2" y="1889" type="line"/>
      <point x="2" y="1864" type="line"/>
      <point x="75" y="1788"/>
      <point x="196" y="1659"/>
      <point x="249" y="1570" type="curve"/>
    </contour>
  </outline>
</glyph>
<glyph name="ucaron" format="2">
  <advance width="1271"/>
  <unicode hex="01D4"/>
  <anchor x="600" y="0" name="bottom"/>
  <anchor x="628" y="1532" name="top"/>
  <outline>
    <contour>
      <point x="886" y="1076" type="line"/>
      <point x="886" y="524" type="line" smooth="yes"/>
      <point x="886" y="277"/>
      <point x="813" y="140"/>
      <point x="586" y="140" type="curve" smooth="yes"/>
      <point x="432" y="140"/>
      <point x="360" y="224"/>
      <point x="360" y="393" type="curve" smooth="yes"/>
      <point x="360" y="1076" type="line"/>
      <point x="158" y="1076" type="line"/>
      <point x="158" y="372" type="line" smooth="yes"/>
      <point x="158" y="99"/>
      <point x="294" y="-20"/>
      <point x="548" y="-20" type="curve" smooth="yes"/>
      <point x="686" y="-20"/>
      <point x="817" y="30"/>
      <point x="887" y="142" type="curve"/>
      <point x="897" y="142" type="line"/>
      <point x="925" y="0" type="line" name=".hr01"/>
      <point x="1086" y="0" type="line"/>
      <point x="1086" y="1076" type="line"/>
    </contour>
    <contour>
      <point x="728" y="1212" type="line"/>
      <point x="778" y="1303"/>
      <point x="903" y="1431"/>
      <point x="978" y="1506" type="curve"/>
      <point x="978" y="1532" type="line"/>
      <point x="840" y="1532" type="line"/>
      <point x="770" y="1487"/>
      <point x="696" y="1423"/>
      <point x="624" y="1352" type="curve"/>
      <point x="558" y="1423"/>
      <point x="483" y="1487"/>
      <point x="413" y="1532" type="curve"/>
      <point x="278" y="1532" type="line"/>
      <point x="278" y="1506" type="line"/>
      <point x="350" y="1431"/>
      <point x="471" y="1303"/>
      <point x="524" y="1212" type="curve"/>
    </contour>
  </outline>
</glyph>
<glyph name="Udieresiscaron" format="2">
  <advance width="1419"/>
  <unicode hex="01D9"/>
  <anchor x="734" y="0" name="bottom"/>
  <anchor x="738" y="2120" name="top"/>
  <outline>
    <contour>
      <point x="1292" y="1428" type="line"/>
      <point x="1094" y="1428" type="line"/>
      <point x="1094" y="503" type="line" smooth="yes"/>
      <point x="1094" y="281"/>
      <point x="988" y="129"/>
      <point x="740" y="129" type="curve" smooth="yes"/>
      <point x="500" y="129"/>
      <point x="380" y="265"/>
      <point x="380" y="503" type="curve" smooth="yes"/>
      <point x="380" y="1428" type="line"/>
      <point x="180" y="1428" type="line"/>
      <point x="180" y="508" type="line" smooth="yes"/>
      <point x="180" y="188"/>
      <point x="371" y="-20"/>
      <point x="730" y="-20" type="curve" smooth="yes"/>
      <point x="1111" y="-20"/>
      <point x="1292" y="204"/>
      <point x="1292" y="504" type="curve" smooth="yes"/>
    </contour>
    <contour>
      <point x="833" y="1822" type="line"/>
      <point x="883" y="1911"/>
      <point x="1005" y="2021"/>
      <point x="1080" y="2095" type="curve"/>
      <point x="1080" y="2120" type="line"/>
      <point x="954" y="2120" type="line"/>
      <point x="883" y="2073"/>
      <point x="806" y="2025"/>
      <point x="735" y="1953" type="curve"/>
      <point x="668" y="2025"/>
      <point x="590" y="2073"/>
      <point x="519" y="2120" type="curve"/>
      <point x="396" y="2120" type="line"/>
      <point x="396" y="2095" type="line"/>
      <point x="469" y="2021"/>
      <point x="586" y="1911"/>
      <point x="639" y="1822" type="curve"/>
    </contour>
    <contour>
      <point x="548" y="1566" type="curve" smooth="yes"/>
      <point x="602" y="1566"/>
      <point x="646" y="1594"/>
      <point x="646" y="1662" type="curve" smooth="yes"/>
      <point x="646" y="1727"/>
      <point x="602" y="1759"/>
      <point x="548" y="1759" type="curve" smooth="yes"/>
      <point x="494" y="1759"/>
      <point x="449" y="1727"/>
      <point x="449" y="1662" type="curve" smooth="yes"/>
      <point x="449" y="1594"/>
      <point x="494" y="1566"/>
    </contour>
    <contour>
      <point x="926" y="1566" type="curve" smooth="yes"/>
      <point x="981" y="1566"/>
      <point x="1025" y="1594"/>
      <point x="1025" y="1662" type="curve" smooth="yes"/>
      <point x="1025" y="1727"/>
      <point x="981" y="1759"/>
      <point x="926" y="1759" type="curve" smooth="yes"/>
      <point x="871" y="1759"/>
      <point x="827" y="1727"/>
      <point x="827" y="1662" type="curve" smooth="yes"/>
      <point x="827" y="1594"/>
      <point x="871" y="1566"/>
    </contour>
  </outline>
</glyph>
<glyph name="udieresiscaron" format="2">
  <advance width="1271"/>
  <unicode hex="01DA"/>
  <anchor x="600" y="0" name="bottom"/>
  <anchor x="628" y="1763" name="top"/>
  <outline>
    <contour>
      <point x="886" y="1076" type="line"/>
      <point x="886" y="524" type="line" smooth="yes"/>
      <point x="886" y="277"/>
      <point x="813" y="140"/>
      <point x="586" y="140" type="curve" smooth="yes"/>
      <point x="432" y="140"/>
      <point x="360" y="224"/>
      <point x="360" y="393" type="curve" smooth="yes"/>
      <point x="360" y="1076" type="line"/>
      <point x="158" y="1076" type="line"/>
      <point x="158" y="372" type="line" smooth="yes"/>
      <point x="158" y="99"/>
      <point x="294" y="-20"/>
      <point x="548" y="-20" type="curve" smooth="yes"/>
      <point x="686" y="-20"/>
      <point x="817" y="30"/>
      <point x="887" y="142" type="curve"/>
      <point x="897" y="142" type="line"/>
      <point x="925" y="0" type="line" name=".hr01"/>
      <point x="1086" y="0" type="line"/>
      <point x="1086" y="1076" type="line"/>
    </contour>
    <contour>
      <point x="724" y="1466" type="line"/>
      <point x="775" y="1556"/>
      <point x="895" y="1661"/>
      <point x="970" y="1737" type="curve"/>
      <point x="970" y="1763" type="line"/>
      <point x="844" y="1763" type="line"/>
      <point x="773" y="1718"/>
      <point x="696" y="1672"/>
      <point x="624" y="1601" type="curve"/>
      <point x="558" y="1672"/>
      <point x="480" y="1718"/>
      <point x="408" y="1763" type="curve"/>
      <point x="285" y="1763" type="line"/>
      <point x="285" y="1737" type="line"/>
      <point x="358" y="1661"/>
      <point x="474" y="1556"/>
      <point x="527" y="1466" type="curve"/>
    </contour>
    <contour>
      <point x="438" y="1202" type="curve" smooth="yes"/>
      <point x="492" y="1202"/>
      <point x="536" y="1232"/>
      <point x="536" y="1303" type="curve" smooth="yes"/>
      <point x="536" y="1373"/>
      <point x="492" y="1406"/>
      <point x="438" y="1406" type="curve" smooth="yes"/>
      <point x="383" y="1406"/>
      <point x="337" y="1373"/>
      <point x="337" y="1303" type="curve" smooth="yes"/>
      <point x="337" y="1232"/>
      <point x="383" y="1202"/>
    </contour>
    <contour>
      <point x="815" y="1202" type="curve" smooth="yes"/>
      <point x="872" y="1202"/>
      <point x="916" y="1232"/>
      <point x="916" y="1303" type="curve" smooth="yes"/>
      <point x="916" y="1373"/>
      <point x="872" y="1406"/>
      <point x="815" y="1406" type="curve" smooth="yes"/>
      <point x="761" y="1406"/>
      <point x="715" y="1373"/>
      <point x="715" y="1303" type="curve" smooth="yes"/>
      <point x="715" y="1232"/>
      <point x="761" y="1202"/>
    </contour>
  </outline>
</glyph>
<glyph name="Udieresisgrave" format="2">
  <advance width="1419"/>
  <unicode hex="01DB"/>
  <anchor x="734" y="0" name="bottom"/>
  <anchor x="738" y="2103" name="top"/>
  <outline>
    <contour>
      <point x="1292" y="1428" type="line"/>
      <point x="1094" y="1428" type="line"/>
      <point x="1094" y="503" type="line" smooth="yes"/>
      <point x="1094" y="281"/>
      <point x="988" y="129"/>
      <point x="740" y="129" type="curve" smooth="yes"/>
      <point x="500" y="129"/>
      <point x="380" y="265"/>
      <point x="380" y="503" type="curve" smooth="yes"/>
      <point x="380" y="1428" type="line"/>
      <point x="180" y="1428" type="line"/>
      <point x="180" y="508" type="line" smooth="yes"/>
      <point x="180" y="188"/>
      <point x="371" y="-20"/>
      <point x="730" y="-20" type="curve" smooth="yes"/>
      <point x="1111" y="-20"/>
      <point x="1292" y="204"/>
      <point x="1292" y="504" type="curve" smooth="yes"/>
    </contour>
    <contour>
      <point x="431" y="2103" type="line"/>
      <point x="431" y="2084" type="line"/>
      <point x="480" y="2008"/>
      <point x="626" y="1886"/>
      <point x="718" y="1814" type="curve"/>
      <point x="849" y="1814" type="line"/>
      <point x="849" y="1837" type="line"/>
      <point x="787" y="1911"/>
      <point x="704" y="2014"/>
      <point x="659" y="2103" type="curve"/>
    </contour>
    <contour>
      <point x="548" y="1759" type="curve" smooth="yes"/>
      <point x="494" y="1759"/>
      <point x="449" y="1727"/>
      <point x="449" y="1662" type="curve" smooth="yes"/>
      <point x="449" y="1594"/>
      <point x="494" y="1566"/>
      <point x="548" y="1566" type="curve" smooth="yes"/>
      <point x="602" y="1566"/>
      <point x="646" y="1594"/>
      <point x="646" y="1662" type="curve" smooth="yes"/>
      <point x="646" y="1727"/>
      <point x="602" y="1759"/>
    </contour>
    <contour>
      <point x="926" y="1759" type="curve" smooth="yes"/>
      <point x="871" y="1759"/>
      <point x="827" y="1727"/>
      <point x="827" y="1662" type="curve" smooth="yes"/>
      <point x="827" y="1594"/>
      <point x="871" y="1566"/>
      <point x="926" y="1566" type="curve" smooth="yes"/>
      <point x="981" y="1566"/>
      <point x="1025" y="1594"/>
      <point x="1025" y="1662" type="curve" smooth="yes"/>
      <point x="1025" y="1727"/>
      <point x="981" y="1759"/>
    </contour>
  </outline>
</glyph>
<glyph name="adieresismacron" format="2">
  <advance width="1131"/>
  <unicode hex="01DF"/>
  <anchor x="572" y="0" name="bottom"/>
  <anchor x="572" y="1678" name="top"/>
  <outline>
    <contour>
      <point x="590" y="1094" type="curve" smooth="yes"/>
      <point x="443" y="1094"/>
      <point x="307" y="1052"/>
      <point x="209" y="1001" type="curve"/>
      <point x="270" y="858" type="line"/>
      <point x="360" y="901"/>
      <point x="463" y="940"/>
      <point x="573" y="940" type="curve" smooth="yes"/>
      <point x="706" y="940"/>
      <point x="784" y="882"/>
      <point x="784" y="711" type="curve" smooth="yes"/>
      <point x="784" y="652" type="line"/>
      <point x="602" y="646" type="line" smooth="yes"/>
      <point x="257" y="635"/>
      <point x="92" y="518"/>
      <point x="92" y="302" type="curve" smooth="yes"/>
      <point x="92" y="82"/>
      <point x="236" y="-20"/>
      <point x="430" y="-20" type="curve" smooth="yes"/>
      <point x="610" y="-20"/>
      <point x="696" y="34"/>
      <point x="790" y="152" type="curve"/>
      <point x="798" y="152" type="line"/>
      <point x="837" y="0" type="line" name=".hr01"/>
      <point x="981" y="0" type="line"/>
      <point x="981" y="730" type="line" smooth="yes"/>
      <point x="981" y="981"/>
      <point x="852" y="1094"/>
    </contour>
    <contour>
      <point x="783" y="522" type="line"/>
      <point x="783" y="427" type="line" smooth="yes"/>
      <point x="783" y="229"/>
      <point x="654" y="134"/>
      <point x="484" y="134" type="curve" smooth="yes"/>
      <point x="374" y="134"/>
      <point x="298" y="186"/>
      <point x="298" y="302" type="curve" smooth="yes"/>
      <point x="298" y="433"/>
      <point x="380" y="506"/>
      <point x="633" y="516" type="curve" smooth="yes"/>
    </contour>
    <contour>
      <point x="268" y="1678" type="line"/>
      <point x="268" y="1530" type="line"/>
      <point x="875" y="1530" type="line"/>
      <point x="875" y="1678" type="line"/>
    </contour>
    <contour>
      <point x="382" y="1406" type="curve" smooth="yes"/>
      <point x="327" y="1406"/>
      <point x="282" y="1373"/>
      <point x="282" y="1303" type="curve" smooth="yes"/>
      <point x="282" y="1232"/>
      <point x="327" y="1202"/>
      <point x="382" y="1202" type="curve" smooth="yes"/>
      <point x="437" y="1202"/>
      <point x="481" y="1232"/>
      <point x="481" y="1303" type="curve" smooth="yes"/>
      <point x="481" y="1373"/>
      <point x="437" y="1406"/>
    </contour>
    <contour>
      <point x="760" y="1406" type="curve" smooth="yes"/>
      <point x="705" y="1406"/>
      <point x="660" y="1373"/>
      <point x="660" y="1303" type="curve" smooth="yes"/>
      <point x="660" y="1232"/>
      <point x="705" y="1202"/>
      <point x="760" y="1202" type="curve" smooth="yes"/>
      <point x="816" y="1202"/>
      <point x="860" y="1232"/>
      <point x="860" y="1303" type="curve" smooth="yes"/>
      <point x="860" y="1373"/>
      <point x="816" y="1406"/>
    </contour>
  </outline>
</glyph>
<glyph name="Adotmacron" format="2">
  <advance width="1413"/>
  <unicode hex="01E0"/>
  <anchor x="656" y="0" name="bottom"/>
  <anchor x="645" y="1995" name="top"/>
  <outline>
    <contour>
      <point x="1293" y="0" type="line"/>
      <point x="745" y="1434" type="line"/>
      <point x="550" y="1434" type="line"/>
      <point x="0" y="0" type="line"/>
      <point x="206" y="0" type="line"/>
      <point x="366" y="450" type="line"/>
      <point x="923" y="450" type="line"/>
      <point x="1085" y="0" type="line"/>
    </contour>
    <contour>
      <point x="866" y="602" type="line"/>
      <point x="428" y="602" type="line"/>
      <point x="581" y="1046" type="line" smooth="yes"/>
      <point x="597" y="1092"/>
      <point x="625" y="1177"/>
      <point x="645" y="1257" type="curve"/>
      <point x="660" y="1205"/>
      <point x="704" y="1079"/>
      <point x="715" y="1046" type="curve" smooth="yes"/>
    </contour>
    <contour>
      <point x="342" y="1995" type="line"/>
      <point x="342" y="1860" type="line"/>
      <point x="947" y="1860" type="line"/>
      <point x="947" y="1995" type="line"/>
    </contour>
    <contour>
      <point x="647" y="1760" type="curve" smooth="yes"/>
      <point x="585" y="1760"/>
      <point x="539" y="1727"/>
      <point x="539" y="1652" type="curve" smooth="yes"/>
      <point x="539" y="1579"/>
      <point x="585" y="1544"/>
      <point x="647" y="1544" type="curve" smooth="yes"/>
      <point x="704" y="1544"/>
      <point x="753" y="1579"/>
      <point x="753" y="1652" type="curve" smooth="yes"/>
      <point x="753" y="1727"/>
      <point x="704" y="1760"/>
    </contour>
  </outline>
</glyph>
<glyph name="Gcaron" format="2">
  <advance width="1480"/>
  <unicode hex="01E6"/>
  <anchor x="801" y="0" name="bottom"/>
  <anchor x="811" y="1889" name="top"/>
  <outline>
    <contour>
      <point x="807" y="599" type="line"/>
      <point x="1115" y="599" type="line"/>
      <point x="1115" y="165" type="line"/>
      <point x="1047" y="145"/>
      <point x="965" y="129"/>
      <point x="847" y="129" type="curve" smooth="yes"/>
      <point x="480" y="129"/>
      <point x="330" y="362"/>
      <point x="330" y="714" type="curve" smooth="yes"/>
      <point x="330" y="1073"/>
      <point x="520" y="1299"/>
      <point x="854" y="1299" type="curve" smooth="yes"/>
      <point x="989" y="1299"/>
      <point x="1117" y="1262"/>
      <point x="1219" y="1216" type="curve"/>
      <point x="1292" y="1364" type="line"/>
      <point x="1170" y="1417"/>
      <point x="1024" y="1449"/>
      <point x="863" y="1449" type="curve" smooth="yes"/>
      <point x="393" y="1449"/>
      <point x="122" y="1158"/>
      <point x="122" y="714" type="curve" smooth="yes"/>
      <point x="122" y="261"/>
      <point x="365" y="-20"/>
      <point x="806" y="-20" type="curve" smooth="yes"/>
      <point x="1007" y="-20"/>
      <point x="1160" y="5"/>
      <point x="1313" y="56" type="curve"/>
      <point x="1313" y="750" type="line"/>
      <point x="807" y="750" type="line"/>
    </contour>
    <contour>
      <point x="909" y="1570" type="line"/>
      <point x="958" y="1659"/>
      <point x="1084" y="1788"/>
      <point x="1159" y="1864" type="curve"/>
      <point x="1159" y="1889" type="line"/>
      <point x="1023" y="1889" type="line"/>
      <point x="953" y="1841"/>
      <point x="879" y="1773"/>
      <point x="807" y="1700" type="curve"/>
      <point x="741" y="1773"/>
      <point x="666" y="1841"/>
      <point x="596" y="1889" type="curve"/>
      <point x="463" y="1889" type="line"/>
      <point x="463" y="1864" type="line"/>
      <point x="535" y="1788"/>
      <point x="657" y="1659"/>
      <point x="709" y="1570" type="curve"/>
    </contour>
  </outline>
</glyph>
<glyph name="gcaron" format="2">
  <advance width="1277"/>
  <unicode hex="01E7"/>
  <anchor x="598" y="-480" name="bottom"/>
  <anchor x="601" y="1532" name="top"/>
  <outline>
    <contour>
      <point x="546" y="1096" type="curve" smooth="yes"/>
      <point x="274" y="1096"/>
      <point x="110" y="881"/>
      <point x="110" y="536" type="curve" smooth="yes"/>
      <point x="110" y="184"/>
      <point x="274" y="-20"/>
      <point x="547" y="-20" type="curve" smooth="yes"/>
      <point x="694" y="-20"/>
      <point x="803" y="34"/>
      <point x="874" y="142" type="curve"/>
      <point x="883" y="142" type="line"/>
      <point x="880" y="116"/>
      <point x="876" y="42"/>
      <point x="876" y="10" type="curve" smooth="yes"/>
      <point x="876" y="-30" type="line" smooth="yes"/>
      <point x="876" y="-211"/>
      <point x="768" y="-320"/>
      <point x="588" y="-320" type="curve" smooth="yes"/>
      <point x="432" y="-320"/>
      <point x="296" y="-290"/>
      <point x="190" y="-236" type="curve"/>
      <point x="190" y="-412" type="line"/>
      <point x="295" y="-458"/>
      <point x="423" y="-480"/>
      <point x="582" y="-480" type="curve" smooth="yes"/>
      <point x="918" y="-480"/>
      <point x="1074" y="-323"/>
      <point x="1074" y="-16" type="curve" smooth="yes"/>
      <point x="1074" y="1076" type="line"/>
      <point x="912" y="1076" type="line"/>
      <point x="888" y="934" type="line"/>
      <point x="878" y="934" type="line"/>
      <point x="801" y="1042"/>
      <point x="688" y="1096"/>
    </contour>
    <contour>
      <point x="584" y="934" type="curve" smooth="yes"/>
      <point x="791" y="934"/>
      <point x="881" y="818"/>
      <point x="881" y="537" type="curve" smooth="yes"/>
      <point x="881" y="494" type="line" smooth="yes"/>
      <point x="881" y="245"/>
      <point x="794" y="138"/>
      <point x="588" y="138" type="curve" smooth="yes"/>
      <point x="409" y="138"/>
      <point x="316" y="276"/>
      <point x="316" y="534" type="curve" smooth="yes"/>
      <point x="316" y="791"/>
      <point x="413" y="934"/>
    </contour>
    <contour>
      <point x="702" y="1212" type="line"/>
      <point x="752" y="1303"/>
      <point x="877" y="1431"/>
      <point x="952" y="1506" type="curve"/>
      <point x="952" y="1532" type="line"/>
      <point x="814" y="1532" type="line"/>
      <point x="744" y="1487"/>
      <point x="670" y="1423"/>
      <point x="598" y="1352" type="curve"/>
      <point x="532" y="1423"/>
      <point x="457" y="1487"/>
      <point x="387" y="1532" type="curve"/>
      <point x="252" y="1532" type="line"/>
      <point x="252" y="1506" type="line"/>
      <point x="324" y="1431"/>
      <point x="445" y="1303"/>
      <point x="498" y="1212" type="curve"/>
    </contour>
  </outline>
</glyph>
<glyph name="Kcaron" format="2">
  <advance width="1337"/>
  <unicode hex="01E8"/>
  <anchor x="669" y="0" name="bottom"/>
  <anchor x="688" y="1889" name="top"/>
  <outline>
    <contour>
      <point x="681" y="809" type="line"/>
      <point x="1235" y="1428" type="line"/>
      <point x="1005" y="1428" type="line"/>
      <point x="627" y="978" type="line"/>
      <point x="549" y="891"/>
      <point x="469" y="805"/>
      <point x="394" y="719" type="curve"/>
      <point x="394" y="1428" type="line"/>
      <point x="194" y="1428" type="line"/>
      <point x="194" y="0" type="line"/>
      <point x="394" y="0" type="line"/>
      <point x="394" y="557" type="line"/>
      <point x="537" y="691" type="line"/>
      <point x="1021" y="0" type="line"/>
      <point x="1255" y="0" type="line"/>
    </contour>
    <contour>
      <point x="786" y="1570" type="line"/>
      <point x="836" y="1659"/>
      <point x="961" y="1788"/>
      <point x="1036" y="1864" type="curve"/>
      <point x="1036" y="1889" type="line"/>
      <point x="901" y="1889" type="line"/>
      <point x="831" y="1841"/>
      <point x="756" y="1773"/>
      <point x="685" y="1700" type="curve"/>
      <point x="618" y="1773"/>
      <point x="543" y="1841"/>
      <point x="473" y="1889" type="curve"/>
      <point x="340" y="1889" type="line"/>
      <point x="340" y="1864" type="line"/>
      <point x="413" y="1788"/>
      <point x="534" y="1659"/>
      <point x="587" y="1570" type="curve"/>
    </contour>
  </outline>
</glyph>
<glyph name="Oogonek" format="2">
  <advance width="1591"/>
  <unicode hex="01EA"/>
  <anchor x="787" y="-439" name="bottom"/>
  <anchor x="785" y="1428" name="top"/>
  <outline>
    <contour>
      <point x="1446" y="716" type="curve" smooth="yes"/>
      <point x="1446" y="1162"/>
      <point x="1221" y="1450"/>
      <point x="787" y="1450" type="curve" smooth="yes"/>
      <point x="336" y="1450"/>
      <point x="122" y="1156"/>
      <point x="122" y="718" type="curve" smooth="yes"/>
      <point x="122" y="277"/>
      <point x="336" y="-20" name=".hr01"/>
      <point x="785" y="-20" type="curve" smooth="yes"/>
      <point x="1221" y="-20"/>
      <point x="1446" y="275"/>
    </contour>
    <contour>
      <point x="332" y="717" type="curve" smooth="yes"/>
      <point x="332" y="1079"/>
      <point x="474" y="1300"/>
      <point x="787" y="1300" type="curve" smooth="yes"/>
      <point x="1098" y="1300"/>
      <point x="1236" y="1082"/>
      <point x="1236" y="716" type="curve" smooth="yes"/>
      <point x="1236" y="353"/>
      <point x="1098" y="129"/>
      <point x="785" y="129" type="curve" smooth="yes"/>
      <point x="474" y="129"/>
      <point x="332" y="354"/>
    </contour>
    <contour>
      <point x="782" y="-234" type="curve" smooth="yes"/>
      <point x="782" y="-150"/>
      <point x="827" y="-84"/>
      <point x="917" y="0" type="curve"/>
      <point x="816" y="30" type="line"/>
      <point x="726" y="-30"/>
      <point x="628" y="-140"/>
      <point x="628" y="-253" type="curve" smooth="yes"/>
      <point x="628" y="-370"/>
      <point x="697" y="-439"/>
      <point x="840" y="-439" type="curve" smooth="yes"/>
      <point x="894" y="-439"/>
      <point x="930" y="-431"/>
      <point x="968" y="-421" type="curve"/>
      <point x="968" y="-314" type="line"/>
      <point x="946" y="-318"/>
      <point x="913" y="-326"/>
      <point x="870" y="-326" type="curve" smooth="yes"/>
      <point x="815" y="-326"/>
      <point x="782" y="-295"/>
    </contour>
  </outline>
</glyph>
<glyph name="oogonek" format="2">
  <advance width="1258"/>
  <unicode hex="01EB"/>
  <anchor x="609" y="-443" name="bottom"/>
  <anchor x="613" y="1076" name="top"/>
  <outline>
    <contour>
      <point x="1116" y="540" type="curve" smooth="yes"/>
      <point x="1116" y="895"/>
      <point x="908" y="1096"/>
      <point x="615" y="1096" type="curve" smooth="yes"/>
      <point x="303" y="1096"/>
      <point x="110" y="895"/>
      <point x="110" y="540" type="curve" smooth="yes"/>
      <point x="110" y="183"/>
      <point x="321" y="-20"/>
      <point x="609" y="-20" type="curve" smooth="yes"/>
      <point x="920" y="-20"/>
      <point x="1116" y="183"/>
    </contour>
    <contour>
      <point x="316" y="540" type="curve" smooth="yes"/>
      <point x="316" y="788"/>
      <point x="405" y="935"/>
      <point x="611" y="935" type="curve" smooth="yes"/>
      <point x="818" y="935"/>
      <point x="910" y="788"/>
      <point x="910" y="540" type="curve" smooth="yes"/>
      <point x="910" y="292"/>
      <point x="818" y="139"/>
      <point x="613" y="139" type="curve" smooth="yes"/>
      <point x="407" y="139"/>
      <point x="316" y="292"/>
    </contour>
    <contour>
      <point x="612" y="-228" type="curve" smooth="yes"/>
      <point x="612" y="-148"/>
      <point x="657" y="-86"/>
      <point x="747" y="0" type="curve"/>
      <point x="645" y="32" type="line"/>
      <point x="554" y="-29"/>
      <point x="456" y="-140"/>
      <point x="456" y="-252" type="curve" smooth="yes"/>
      <point x="456" y="-372"/>
      <point x="526" y="-443"/>
      <point x="669" y="-443" type="curve" smooth="yes"/>
      <point x="724" y="-443"/>
      <point x="760" y="-435"/>
      <point x="799" y="-424" type="curve"/>
      <point x="799" y="-303" type="line"/>
      <point x="776" y="-308"/>
      <point x="743" y="-316"/>
      <point x="700" y="-316" type="curve" smooth="yes"/>
      <point x="645" y="-316"/>
      <point x="612" y="-287"/>
    </contour>
  </outline>
</glyph>
<glyph name="Oogonekmacron" format="2">
  <advance width="1591"/>
  <unicode hex="01EC"/>
  <anchor x="787" y="-439" name="bottom"/>
  <anchor x="785" y="1706" name="top"/>
  <outline>
    <contour>
      <point x="1446" y="716" type="curve" smooth="yes"/>
      <point x="1446" y="1162"/>
      <point x="1221" y="1450"/>
      <point x="787" y="1450" type="curve" smooth="yes"/>
      <point x="336" y="1450"/>
      <point x="122" y="1156"/>
      <point x="122" y="718" type="curve" smooth="yes"/>
      <point x="122" y="277"/>
      <point x="336" y="-20"/>
      <point x="785" y="-20" type="curve" smooth="yes"/>
      <point x="1221" y="-20"/>
      <point x="1446" y="275"/>
    </contour>
    <contour>
      <point x="332" y="717" type="curve" smooth="yes"/>
      <point x="332" y="1079"/>
      <point x="474" y="1300"/>
      <point x="787" y="1300" type="curve" smooth="yes"/>
      <point x="1098" y="1300"/>
      <point x="1236" y="1082"/>
      <point x="1236" y="716" type="curve" smooth="yes"/>
      <point x="1236" y="353"/>
      <point x="1098" y="129"/>
      <point x="785" y="129" type="curve" smooth="yes"/>
      <point x="474" y="129"/>
      <point x="332" y="354"/>
    </contour>
    <contour>
      <point x="482" y="1706" type="line"/>
      <point x="482" y="1571" type="line"/>
      <point x="1087" y="1571" type="line"/>
      <point x="1087" y="1706" type="line"/>
    </contour>
    <contour>
      <point x="803" y="-234" type="curve" smooth="yes"/>
      <point x="803" y="-150"/>
      <point x="848" y="-84"/>
      <point x="938" y="0" type="curve"/>
      <point x="837" y="30" type="line"/>
      <point x="748" y="-30"/>
      <point x="649" y="-140"/>
      <point x="649" y="-253" type="curve" smooth="yes"/>
      <point x="649" y="-370"/>
      <point x="718" y="-439"/>
      <point x="861" y="-439" type="curve" smooth="yes"/>
      <point x="915" y="-439"/>
      <point x="951" y="-431"/>
      <point x="989" y="-421" type="curve"/>
      <point x="989" y="-314" type="line"/>
      <point x="967" y="-318"/>
      <point x="935" y="-326"/>
      <point x="891" y="-326" type="curve" smooth="yes"/>
      <point x="836" y="-326"/>
      <point x="803" y="-295"/>
    </contour>
  </outline>
</glyph>
<glyph name="ezhcaron" format="2">
  <advance width="1049"/>
  <unicode hex="01EF"/>
  <anchor x="511" y="-480" name="bottom"/>
  <anchor x="511" y="1532" name="top"/>
  <outline>
    <contour>
      <point x="59" y="1076" type="line"/>
      <point x="59" y="915" type="line"/>
      <point x="662" y="915" type="line"/>
      <point x="233" y="444" type="line"/>
      <point x="233" y="311" type="line"/>
      <point x="353" y="311" type="line" smooth="yes"/>
      <point x="603" y="311"/>
      <point x="752" y="217"/>
      <point x="752" y="2" type="curve" smooth="yes"/>
      <point x="752" y="-196"/>
      <point x="620" y="-319"/>
      <point x="413" y="-319" type="curve" smooth="yes"/>
      <point x="257" y="-319"/>
      <point x="120" y="-277"/>
      <point x="28" y="-234" type="curve"/>
      <point x="28" y="-409" type="line"/>
      <point x="119" y="-453"/>
      <point x="245" y="-480"/>
      <point x="408" y="-480" type="curve" smooth="yes"/>
      <point x="746" y="-480"/>
      <point x="953" y="-279"/>
      <point x="953" y="9" type="curve" smooth="yes"/>
      <point x="953" y="294"/>
      <point x="741" y="443"/>
      <point x="466" y="462" type="curve"/>
      <point x="901" y="938" type="line"/>
      <point x="901" y="1076" type="line"/>
    </contour>
    <contour>
      <point x="586" y="1212" type="line"/>
      <point x="636" y="1303"/>
      <point x="761" y="1431"/>
      <point x="836" y="1506" type="curve"/>
      <point x="836" y="1532" type="line"/>
      <point x="698" y="1532" type="line"/>
      <point x="628" y="1487"/>
      <point x="554" y="1423"/>
      <point x="482" y="1352" type="curve"/>
      <point x="416" y="1423"/>
      <point x="341" y="1487"/>
      <point x="271" y="1532" type="curve"/>
      <point x="136" y="1532" type="line"/>
      <point x="136" y="1506" type="line"/>
      <point x="208" y="1431"/>
      <point x="329" y="1303"/>
      <point x="382" y="1212" type="curve"/>
    </contour>
  </outline>
</glyph>
<glyph name="jcaron" format="2">
  <advance width="623"/>
  <unicode hex="01F0"/>
  <anchor x="125" y="-480" name="bottom"/>
  <anchor x="321" y="1532" name="top"/>
  <outline>
    <contour>
      <point x="125" y="-480" type="curve" smooth="yes"/>
      <point x="324" y="-480"/>
      <point x="409" y="-360"/>
      <point x="409" y="-160" type="curve" smooth="yes"/>
      <point x="409" y="1072" type="line"/>
      <point x="233" y="1072" type="line"/>
      <point x="233" y="-166" type="line" smooth="yes"/>
      <point x="233" y="-296"/>
      <point x="177" y="-334"/>
      <point x="100" y="-334" type="curve" smooth="yes"/>
      <point x="54" y="-334"/>
      <point x="17" y="-326"/>
      <point x="-19" y="-314" type="curve"/>
      <point x="-19" y="-456" type="line"/>
      <point x="15" y="-470"/>
      <point x="64" y="-480"/>
    </contour>
    <contour>
      <point x="409" y="1212" type="line"/>
      <point x="454" y="1302"/>
      <point x="569" y="1430"/>
      <point x="638" y="1506" type="curve"/>
      <point x="638" y="1532" type="line"/>
      <point x="516" y="1532" type="line"/>
      <point x="452" y="1486"/>
      <point x="383" y="1420"/>
      <point x="318" y="1348" type="curve"/>
      <point x="258" y="1420"/>
      <point x="188" y="1486"/>
      <point x="124" y="1532" type="curve"/>
      <point x="5" y="1532" type="line"/>
      <point x="5" y="1506" type="line"/>
      <point x="71" y="1430"/>
      <point x="182" y="1302"/>
      <point x="230" y="1212" type="curve"/>
    </contour>
  </outline>
</glyph>
<glyph name="Yogh" format="2">
  <advance width="1073"/>
  <unicode hex="021C"/>
  <anchor x="576" y="-239" name="bottom"/>
  <anchor x="556" y="1428" name="top"/>
  <outline>
    <contour>
      <point x="81" y="-360" type="line"/>
      <point x="768" y="-194"/>
      <point x="1057" y="-8"/>
      <point x="1057" y="360" type="curve" smooth="yes"/>
      <point x="1057" y="571"/>
      <point x="937" y="682"/>
      <point x="803" y="747" type="curve"/>
      <point x="938" y="825"/>
      <point x="1026" y="930"/>
      <point x="1026" y="1088" type="curve" smooth="yes"/>
      <point x="1026" y="1353"/>
      <point x="806" y="1448"/>
      <point x="571" y="1448" type="curve" smooth="yes"/>
      <point x="391" y="1448"/>
      <point x="229" y="1405"/>
      <point x="76" y="1300" type="curve"/>
      <point x="169" y="1184" type="line"/>
      <point x="288" y="1264"/>
      <point x="412" y="1308"/>
      <point x="566" y="1308" type="curve" smooth="yes"/>
      <point x="726" y="1308"/>
      <point x="821" y="1227"/>
      <point x="821" y="1083" type="curve" smooth="yes"/>
      <point x="821" y="895"/>
      <point x="670" y="823"/>
      <point x="293" y="724" type="curve"/>
      <point x="330" y="590" type="line"/>
      <point x="438" y="617"/>
      <point x="541" y="644"/>
      <point x="635" y="678" type="curve"/>
      <point x="766" y="607"/>
      <point x="849" y="523"/>
      <point x="849" y="360" type="curve" smooth="yes"/>
      <point x="849" y="119"/>
      <point x="680" y="-42"/>
      <point x="81" y="-196" type="curve"/>
    </contour>
  </outline>
</glyph>
<glyph name="Nlongrightleg" format="2">
  <advance width="1500"/>
  <unicode hex="0220"/>
  <anchor x="749" y="-480" name="bottom"/>
  <anchor x="749" y="1428" name="top"/>
  <outline>
    <contour>
      <point x="824" y="1450" type="curve" smooth="yes"/>
      <point x="662" y="1450"/>
      <point x="485" y="1367"/>
      <point x="394" y="1241" type="curve"/>
      <point x="384" y="1241" type="line"/>
      <point x="351" y="1430" type="line" name=".hr01"/>
      <point x="194" y="1430" type="line"/>
      <point x="194" y="0" type="line"/>
      <point x="395" y="0" type="line"/>
      <point x="395" y="853" type="line" smooth="yes"/>
      <point x="395" y="1131"/>
      <point x="504" y="1302"/>
      <point x="791" y="1302" type="curve" smooth="yes"/>
      <point x="1020" y="1302"/>
      <point x="1114" y="1178"/>
      <point x="1114" y="925" type="curve" smooth="yes"/>
      <point x="1114" y="-480" type="line"/>
      <point x="1315" y="-480" type="line"/>
      <point x="1315" y="926" type="line" smooth="yes"/>
      <point x="1315" y="1293"/>
      <point x="1126" y="1450" name=".hr02"/>
    </contour>
  </outline>
</glyph>
<glyph name="dcurl" format="2">
  <advance width="1886"/>
  <unicode hex="0221"/>
  <anchor x="869" y="-210" name="bottom"/>
  <anchor x="869" y="1520" name="top"/>
  <outline>
    <contour>
      <point x="1145" y="-210" type="line"/>
      <point x="1150" y="-128"/>
      <point x="1160" y="-51"/>
      <point x="1175" y="15" type="curve"/>
      <point x="1216" y="6"/>
      <point x="1265" y="0"/>
      <point x="1324" y="0" type="curve" smooth="yes"/>
      <point x="1608" y="0"/>
      <point x="1716" y="116"/>
      <point x="1716" y="255" type="curve" smooth="yes"/>
      <point x="1716" y="377"/>
      <point x="1626" y="466"/>
      <point x="1460" y="468" type="curve" smooth="yes"/>
      <point x="1324" y="470"/>
      <point x="1192" y="419"/>
      <point x="1101" y="261" type="curve"/>
      <point x="1082" y="301"/>
      <point x="1074" y="353"/>
      <point x="1074" y="418" type="curve" smooth="yes"/>
      <point x="1074" y="1520" type="line"/>
      <point x="874" y="1520" type="line"/>
      <point x="874" y="1101" type="line" smooth="yes"/>
      <point x="874" y="1056"/>
      <point x="884" y="966"/>
      <point x="888" y="938" type="curve"/>
      <point x="876" y="938" type="line"/>
      <point x="812" y="1025"/>
      <point x="713" y="1096"/>
      <point x="548" y="1096" type="curve" smooth="yes"/>
      <point x="286" y="1096"/>
      <point x="110" y="905"/>
      <point x="110" y="536" type="curve" smooth="yes"/>
      <point x="110" y="166"/>
      <point x="285" y="-20" name=".hr01"/>
      <point x="553" y="-20" type="curve" smooth="yes"/>
      <point x="763" y="-20"/>
      <point x="861" y="49"/>
      <point x="932" y="182" type="curve"/>
      <point x="942" y="182" type="line"/>
      <point x="952" y="155"/>
      <point x="974" y="115"/>
      <point x="1021" y="80" type="curve"/>
      <point x="997" y="2"/>
      <point x="980" y="-90"/>
      <point x="969" y="-200" type="curve"/>
    </contour>
    <contour>
      <point x="587" y="141" type="curve" smooth="yes"/>
      <point x="407" y="141"/>
      <point x="316" y="284"/>
      <point x="316" y="532" type="curve" smooth="yes"/>
      <point x="316" y="779"/>
      <point x="407" y="935"/>
      <point x="584" y="935" type="curve" smooth="yes"/>
      <point x="810" y="935"/>
      <point x="879" y="791"/>
      <point x="879" y="534" type="curve" smooth="yes"/>
      <point x="879" y="501" type="line" smooth="yes"/>
      <point x="879" y="260"/>
      <point x="800" y="141"/>
    </contour>
    <contour>
      <point x="1343" y="145" type="curve" smooth="yes"/>
      <point x="1295" y="145"/>
      <point x="1256" y="150"/>
      <point x="1222" y="160" type="curve"/>
      <point x="1267" y="259"/>
      <point x="1337" y="319"/>
      <point x="1436" y="319" type="curve" smooth="yes"/>
      <point x="1503" y="319"/>
      <point x="1537" y="282"/>
      <point x="1537" y="246" type="curve" smooth="yes"/>
      <point x="1537" y="185"/>
      <point x="1486" y="145"/>
    </contour>
  </outline>
</glyph>
<glyph name="zhook" format="2">
  <advance width="1175"/>
  <unicode hex="0225"/>
  <anchor x="478" y="-405" name="bottom"/>
  <anchor x="478" y="1076" name="top"/>
  <outline>
    <contour>
      <point x="111" y="1076" type="line"/>
      <point x="111" y="926" type="line"/>
      <point x="640" y="926" type="line"/>
      <point x="78" y="127" type="line"/>
      <point x="78" y="0" type="line"/>
      <point x="700" y="0" type="line"/>
      <point x="700" y="-135" type="line" smooth="yes"/>
      <point x="700" y="-209"/>
      <point x="665" y="-240"/>
      <point x="604" y="-240" type="curve" smooth="yes"/>
      <point x="562" y="-240"/>
      <point x="526" y="-230"/>
      <point x="503" y="-222" type="curve"/>
      <point x="503" y="-379" type="line"/>
      <point x="532" y="-389"/>
      <point x="579" y="-403"/>
      <point x="632" y="-403" type="curve" smooth="yes"/>
      <point x="798" y="-403"/>
      <point x="877" y="-307"/>
      <point x="877" y="-126" type="curve" smooth="yes"/>
      <point x="877" y="150" type="line"/>
      <point x="310" y="150" type="line"/>
      <point x="862" y="933" type="line"/>
      <point x="862" y="1076" type="line"/>
    </contour>
  </outline>
</glyph>
<glyph name="Otildemacron" format="2">
  <advance width="1591"/>
  <unicode hex="022C"/>
  <anchor x="787" y="0" name="bottom"/>
  <anchor x="785" y="2024" name="top"/>
  <outline>
    <contour>
      <point x="1446" y="716" type="curve" smooth="yes"/>
      <point x="1446" y="1162"/>
      <point x="1221" y="1450"/>
      <point x="787" y="1450" type="curve" smooth="yes"/>
      <point x="336" y="1450"/>
      <point x="122" y="1156"/>
      <point x="122" y="718" type="curve" smooth="yes"/>
      <point x="122" y="277"/>
      <point x="336" y="-20"/>
      <point x="785" y="-20" type="curve" smooth="yes"/>
      <point x="1221" y="-20"/>
      <point x="1446" y="275"/>
    </contour>
    <contour>
      <point x="332" y="717" type="curve" smooth="yes"/>
      <point x="332" y="1079"/>
      <point x="474" y="1300"/>
      <point x="787" y="1300" type="curve" smooth="yes"/>
      <point x="1098" y="1300"/>
      <point x="1236" y="1082"/>
      <point x="1236" y="716" type="curve" smooth="yes"/>
      <point x="1236" y="353"/>
      <point x="1098" y="129"/>
      <point x="785" y="129" type="curve" smooth="yes"/>
      <point x="474" y="129"/>
      <point x="332" y="354"/>
    </contour>
    <contour>
      <point x="553" y="1567" type="line"/>
      <point x="569" y="1632"/>
      <point x="587" y="1669"/>
      <point x="644" y="1669" type="curve" smooth="yes"/>
      <point x="724" y="1669"/>
      <point x="821" y="1569"/>
      <point x="926" y="1569" type="curve" smooth="yes"/>
      <point x="1048" y="1569"/>
      <point x="1109" y="1657"/>
      <point x="1123" y="1795" type="curve"/>
      <point x="1019" y="1795" type="line"/>
      <point x="1001" y="1730"/>
      <point x="983" y="1693"/>
      <point x="928" y="1693" type="curve" smooth="yes"/>
      <point x="850" y="1693"/>
      <point x="756" y="1793"/>
      <point x="643" y="1793" type="curve" smooth="yes"/>
      <point x="524" y="1793"/>
      <point x="460" y="1707"/>
      <point x="447" y="1567" type="curve"/>
    </contour>
    <contour>
      <point x="1087" y="1889" type="line"/>
      <point x="1087" y="2024" type="line"/>
      <point x="482" y="2024" type="line"/>
      <point x="482" y="1889" type="line"/>
    </contour>
  </outline>
</glyph>
<glyph name="otildemacron" format="2">
  <advance width="1258"/>
  <unicode hex="022D"/>
  <anchor x="609" y="0" name="bottom"/>
  <anchor x="613" y="1679" name="top"/>
  <outline>
    <contour>
      <point x="1116" y="540" type="curve" smooth="yes"/>
      <point x="1116" y="895"/>
      <point x="908" y="1096"/>
      <point x="615" y="1096" type="curve" smooth="yes"/>
      <point x="303" y="1096"/>
      <point x="110" y="895"/>
      <point x="110" y="540" type="curve" smooth="yes"/>
      <point x="110" y="183"/>
      <point x="321" y="-20"/>
      <point x="609" y="-20" type="curve" smooth="yes"/>
      <point x="920" y="-20"/>
      <point x="1116" y="183"/>
    </contour>
    <contour>
      <point x="316" y="540" type="curve" smooth="yes"/>
      <point x="316" y="788"/>
      <point x="405" y="935"/>
      <point x="611" y="935" type="curve" smooth="yes"/>
      <point x="818" y="935"/>
      <point x="910" y="788"/>
      <point x="910" y="540" type="curve" smooth="yes"/>
      <point x="910" y="292"/>
      <point x="818" y="139"/>
      <point x="613" y="139" type="curve" smooth="yes"/>
      <point x="407" y="139"/>
      <point x="316" y="292"/>
    </contour>
    <contour>
      <point x="381" y="1210" type="line"/>
      <point x="397" y="1270"/>
      <point x="416" y="1306"/>
      <point x="472" y="1306" type="curve" smooth="yes"/>
      <point x="552" y="1306"/>
      <point x="649" y="1212"/>
      <point x="754" y="1212" type="curve" smooth="yes"/>
      <point x="876" y="1212" name=".hr01"/>
      <point x="938" y="1304"/>
      <point x="952" y="1440" type="curve"/>
      <point x="846" y="1440" type="line"/>
      <point x="829" y="1381"/>
      <point x="810" y="1345"/>
      <point x="756" y="1345" type="curve" smooth="yes"/>
      <point x="678" y="1345"/>
      <point x="585" y="1439"/>
      <point x="471" y="1439" type="curve" smooth="yes"/>
      <point x="352" y="1439"/>
      <point x="288" y="1349"/>
      <point x="274" y="1210" type="curve"/>
    </contour>
    <contour>
      <point x="916" y="1531" type="line"/>
      <point x="916" y="1679" type="line"/>
      <point x="309" y="1679" type="line"/>
      <point x="309" y="1531" type="line"/>
    </contour>
  </outline>
</glyph>
<glyph name="Odotaccentmacron" format="2">
  <advance width="1591"/>
  <unicode hex="0230"/>
  <anchor x="787" y="0" name="bottom"/>
  <anchor x="785" y="1995" name="top"/>
  <outline>
    <contour>
      <point x="1446" y="716" type="curve" smooth="yes"/>
      <point x="1446" y="1162"/>
      <point x="1221" y="1450"/>
      <point x="787" y="1450" type="curve" smooth="yes"/>
      <point x="336" y="1450"/>
      <point x="122" y="1156"/>
      <point x="122" y="718" type="curve" smooth="yes"/>
      <point x="122" y="277"/>
      <point x="336" y="-20"/>
      <point x="785" y="-20" type="curve" smooth="yes"/>
      <point x="1221" y="-20"/>
      <point x="1446" y="275"/>
    </contour>
    <contour>
      <point x="332" y="717" type="curve" smooth="yes"/>
      <point x="332" y="1079"/>
      <point x="474" y="1300"/>
      <point x="787" y="1300" type="curve" smooth="yes"/>
      <point x="1098" y="1300"/>
      <point x="1236" y="1082"/>
      <point x="1236" y="716" type="curve" smooth="yes"/>
      <point x="1236" y="353"/>
      <point x="1098" y="129"/>
      <point x="785" y="129" type="curve" smooth="yes"/>
      <point x="474" y="129"/>
      <point x="332" y="354"/>
    </contour>
    <contour>
      <point x="482" y="1995" type="line"/>
      <point x="482" y="1860" type="line"/>
      <point x="1087" y="1860" type="line"/>
      <point x="1087" y="1995" type="line"/>
    </contour>
    <contour>
      <point x="787" y="1760" type="curve" smooth="yes"/>
      <point x="725" y="1760"/>
      <point x="678" y="1727"/>
      <point x="678" y="1652" type="curve" smooth="yes"/>
      <point x="678" y="1579"/>
      <point x="725" y="1544"/>
      <point x="787" y="1544" type="curve" smooth="yes"/>
      <point x="844" y="1544"/>
      <point x="893" y="1579"/>
      <point x="893" y="1652" type="curve" smooth="yes"/>
      <point x="893" y="1727"/>
      <point x="844" y="1760"/>
    </contour>
  </outline>
</glyph>
<glyph name="ncurl" format="2">
  <advance width="1855"/>
  <unicode hex="0235"/>
  <anchor x="754" y="0" name="bottom"/>
  <anchor x="754" y="1076" name="top"/>
  <outline>
    <contour>
      <point x="885" y="-63" type="line"/>
      <point x="906" y="-1"/>
      <point x="929" y="57"/>
      <point x="953" y="101" type="curve"/>
      <point x="1003" y="28"/>
      <point x="1088" y="-20"/>
      <point x="1209" y="-20" type="curve" smooth="yes"/>
      <point x="1392" y="-20"/>
      <point x="1489" y="76"/>
      <point x="1489" y="226" type="curve" smooth="yes"/>
      <point x="1489" y="359"/>
      <point x="1399" y="467"/>
      <point x="1226" y="467" type="curve" smooth="yes"/>
      <point x="1175" y="467"/>
      <point x="1129" y="459"/>
      <point x="1088" y="442" type="curve"/>
      <point x="1088" y="700" type="line" smooth="yes"/>
      <point x="1088" y="978"/>
      <point x="953" y="1096"/>
      <point x="702" y="1096" type="curve" smooth="yes"/>
      <point x="570" y="1096"/>
      <point x="439" y="1042"/>
      <point x="369" y="930" type="curve"/>
      <point x="358" y="930" type="line"/>
      <point x="329" y="1076" type="line"/>
      <point x="170" y="1076" type="line"/>
      <point x="170" y="0" type="line" name=".hr01"/>
      <point x="370" y="0" type="line"/>
      <point x="370" y="550" type="line" smooth="yes"/>
      <point x="370" y="796"/>
      <point x="440" y="933"/>
      <point x="665" y="933" type="curve" smooth="yes"/>
      <point x="818" y="933"/>
      <point x="889" y="848"/>
      <point x="889" y="680" type="curve" smooth="yes"/>
      <point x="889" y="408" type="line" smooth="yes"/>
      <point x="889" y="366"/>
      <point x="891" y="326"/>
      <point x="895" y="289" type="curve"/>
      <point x="840" y="219"/>
      <point x="791" y="123"/>
      <point x="746" y="0" type="curve"/>
    </contour>
    <contour>
      <point x="1213" y="124" type="curve" smooth="yes"/>
      <point x="1126" y="124"/>
      <point x="1092" y="185"/>
      <point x="1088" y="277" type="curve"/>
      <point x="1126" y="309"/>
      <point x="1166" y="325"/>
      <point x="1208" y="325" type="curve" smooth="yes"/>
      <point x="1276" y="325"/>
      <point x="1319" y="290"/>
      <point x="1319" y="225" type="curve" smooth="yes"/>
      <point x="1319" y="168"/>
      <point x="1287" y="124"/>
    </contour>
  </outline>
</glyph>
<glyph name="tcurl" format="2">
  <advance width="1172"/>
  <unicode hex="0236"/>
  <anchor x="394" y="0" name="bottom"/>
  <anchor x="394" y="1319" name="top"/>
  <outline>
    <contour>
      <point x="174" y="-63" type="line"/>
      <point x="195" y="-1"/>
      <point x="218" y="57"/>
      <point x="242" y="101" type="curve"/>
      <point x="292" y="28"/>
      <point x="378" y="-20"/>
      <point x="500" y="-20" type="curve" smooth="yes"/>
      <point x="683" y="-20"/>
      <point x="780" y="76"/>
      <point x="780" y="226" type="curve" smooth="yes"/>
      <point x="780" y="359"/>
      <point x="690" y="467"/>
      <point x="517" y="467" type="curve" smooth="yes"/>
      <point x="466" y="467"/>
      <point x="419" y="459"/>
      <point x="379" y="442" type="curve"/>
      <point x="379" y="926" type="line"/>
      <point x="688" y="926" type="line"/>
      <point x="688" y="1076" type="line"/>
      <point x="379" y="1076" type="line"/>
      <point x="379" y="1319" type="line"/>
      <point x="258" y="1319" type="line"/>
      <point x="184" y="1092" type="line"/>
      <point x="28" y="1017" type="line"/>
      <point x="28" y="926" type="line"/>
      <point x="178" y="926" type="line"/>
      <point x="178" y="433" type="line" smooth="yes"/>
      <point x="178" y="382"/>
      <point x="180" y="336"/>
      <point x="184" y="289" type="curve"/>
      <point x="129" y="219"/>
      <point x="80" y="123"/>
      <point x="35" y="0" type="curve"/>
    </contour>
    <contour>
      <point x="504" y="124" type="curve" smooth="yes"/>
      <point x="417" y="124"/>
      <point x="383" y="185"/>
      <point x="379" y="277" type="curve"/>
      <point x="417" y="309"/>
      <point x="457" y="325"/>
      <point x="499" y="325" type="curve" smooth="yes"/>
      <point x="567" y="325"/>
      <point x="610" y="290"/>
      <point x="610" y="225" type="curve" smooth="yes"/>
      <point x="610" y="168"/>
      <point x="578" y="124"/>
    </contour>
  </outline>
</glyph>
<glyph name="jdotless" format="2">
  <advance width="623"/>
  <unicode hex="0237"/>
  <anchor x="50" y="-480" name="bottom"/>
  <anchor x="265" y="1076" name="top"/>
  <outline>
    <contour>
      <point x="50" y="-480" type="curve" smooth="yes"/>
      <point x="271" y="-480"/>
      <point x="365" y="-353"/>
      <point x="365" y="-153" type="curve" smooth="yes"/>
      <point x="365" y="1076" type="line"/>
      <point x="165" y="1076" type="line"/>
      <point x="165" y="-152" type="line" smooth="yes"/>
      <point x="165" y="-282"/>
      <point x="104" y="-319"/>
      <point x="21" y="-319" type="curve" smooth="yes"/>
      <point x="-30" y="-319"/>
      <point x="-69" y="-312"/>
      <point x="-110" y="-300" type="curve"/>
      <point x="-110" y="-456" type="line"/>
      <point x="-72" y="-470"/>
      <point x="-17" y="-480"/>
    </contour>
  </outline>
</glyph>
<glyph name="aturned" format="2">
  <advance width="1131"/>
  <unicode hex="0250"/>
  <anchor x="573" y="-18" name="bottom"/>
  <anchor x="573" y="1096" name="top"/>
  <anchor x="1050" y="1096" name="topright"/>
  <outline>
    <contour>
      <point x="553" y="-18" type="curve" smooth="yes"/>
      <point x="700" y="-18"/>
      <point x="835" y="24"/>
      <point x="933" y="75" type="curve"/>
      <point x="872" y="218" type="line"/>
      <point x="782" y="175"/>
      <point x="679" y="136"/>
      <point x="570" y="136" type="curve" smooth="yes"/>
      <point x="437" y="136"/>
      <point x="358" y="194"/>
      <point x="358" y="365" type="curve" smooth="yes"/>
      <point x="358" y="424" type="line"/>
      <point x="540" y="430" type="line" smooth="yes"/>
      <point x="886" y="441"/>
      <point x="1050" y="558"/>
      <point x="1050" y="774" type="curve" smooth="yes"/>
      <point x="1050" y="994"/>
      <point x="906" y="1096"/>
      <point x="713" y="1096" type="curve" smooth="yes"/>
      <point x="532" y="1096"/>
      <point x="446" y="1042"/>
      <point x="352" y="924" type="curve"/>
      <point x="344" y="924" type="line"/>
      <point x="305" y="1076" type="line"/>
      <point x="162" y="1076" type="line"/>
      <point x="162" y="346" type="line" smooth="yes"/>
      <point x="162" y="95"/>
      <point x="290" y="-18"/>
    </contour>
    <contour>
      <point x="360" y="554" type="line"/>
      <point x="360" y="649" type="line" smooth="yes"/>
      <point x="360" y="847"/>
      <point x="489" y="942"/>
      <point x="658" y="942" type="curve" smooth="yes"/>
      <point x="768" y="942"/>
      <point x="844" y="890"/>
      <point x="844" y="774" type="curve" smooth="yes"/>
      <point x="844" y="643"/>
      <point x="762" y="570"/>
      <point x="509" y="560" type="curve" smooth="yes"/>
    </contour>
  </outline>
</glyph>
<glyph name="bhook" format="2">
  <advance width="1289"/>
  <unicode hex="0253"/>
  <anchor x="622" y="0" name="bottom"/>
  <anchor x="622" y="1531" name="top"/>
  <outline>
    <contour>
      <point x="429" y="1531" type="curve" smooth="yes"/>
      <point x="257" y="1531"/>
      <point x="170" y="1435"/>
      <point x="170" y="1243" type="curve" smooth="yes"/>
      <point x="170" y="0" type="line"/>
      <point x="316" y="0" type="line"/>
      <point x="355" y="133" type="line"/>
      <point x="370" y="133" type="line"/>
      <point x="430" y="50"/>
      <point x="529" y="-20" name=".hr01"/>
      <point x="697" y="-20" type="curve" smooth="yes"/>
      <point x="956" y="-20"/>
      <point x="1134" y="168"/>
      <point x="1134" y="538" type="curve" smooth="yes"/>
      <point x="1134" y="907"/>
      <point x="958" y="1094"/>
      <point x="698" y="1094" type="curve" smooth="yes"/>
      <point x="531" y="1094"/>
      <point x="429" y="1023"/>
      <point x="370" y="934" type="curve"/>
      <point x="360" y="934" type="line"/>
      <point x="364" y="980"/>
      <point x="370" y="1064"/>
      <point x="370" y="1153" type="curve" smooth="yes"/>
      <point x="370" y="1254" type="line" smooth="yes"/>
      <point x="370" y="1334"/>
      <point x="403" y="1365"/>
      <point x="461" y="1365" type="curve" smooth="yes"/>
      <point x="506" y="1365"/>
      <point x="549" y="1353"/>
      <point x="567" y="1345" type="curve"/>
      <point x="567" y="1504" type="line"/>
      <point x="539" y="1516"/>
      <point x="483" y="1531"/>
    </contour>
    <contour>
      <point x="655" y="933" type="curve" smooth="yes"/>
      <point x="837" y="933"/>
      <point x="927" y="802"/>
      <point x="927" y="540" type="curve" smooth="yes"/>
      <point x="927" y="283"/>
      <point x="837" y="141"/>
      <point x="659" y="141" type="curve" smooth="yes"/>
      <point x="436" y="141"/>
      <point x="370" y="281"/>
      <point x="370" y="546" type="curve"/>
      <point x="371" y="811"/>
      <point x="442" y="933"/>
    </contour>
  </outline>
</glyph>
<glyph name="oopen" format="2">
  <advance width="1037"/>
  <unicode hex="0254"/>
  <anchor x="389" y="0" name="bottom"/>
  <anchor x="389" y="1076" name="top"/>
  <outline>
    <contour>
      <point x="385" y="1096" type="curve" smooth="yes"/>
      <point x="257" y="1096"/>
      <point x="132" y="1069"/>
      <point x="66" y="1035" type="curve"/>
      <point x="126" y="876" type="line"/>
      <point x="191" y="908"/>
      <point x="288" y="930"/>
      <point x="363" y="930" type="curve" smooth="yes"/>
      <point x="563" y="930"/>
      <point x="659" y="808"/>
      <point x="659" y="549" type="curve" smooth="yes"/>
      <point x="659" y="288"/>
      <point x="558" y="147"/>
      <point x="357" y="147" type="curve" smooth="yes"/>
      <point x="242" y="147"/>
      <point x="156" y="176"/>
      <point x="80" y="213" type="curve"/>
      <point x="80" y="42" type="line"/>
      <point x="155" y="1"/>
      <point x="238" y="-20"/>
      <point x="359" y="-20" type="curve" smooth="yes"/>
      <point x="647" y="-20"/>
      <point x="866" y="160"/>
      <point x="866" y="557" type="curve" smooth="yes"/>
      <point x="866" y="939"/>
      <point x="672" y="1096"/>
    </contour>
  </outline>
</glyph>
<glyph name="ccurl" format="2">
  <advance width="1141"/>
  <unicode hex="0255"/>
  <anchor x="538" y="0" name="bottom"/>
  <anchor x="538" y="1076" name="top"/>
  <outline>
    <contour>
      <point x="632" y="1096" type="curve" smooth="yes"/>
      <point x="337" y="1096"/>
      <point x="120" y="928"/>
      <point x="120" y="532" type="curve" smooth="yes"/>
      <point x="120" y="390"/>
      <point x="148" y="278"/>
      <point x="199" y="193" type="curve"/>
      <point x="160" y="125"/>
      <point x="125" y="49"/>
      <point x="96" y="-35" type="curve"/>
      <point x="235" y="-99" type="line"/>
      <point x="257" y="-33"/>
      <point x="283" y="25"/>
      <point x="309" y="75" type="curve"/>
      <point x="392" y="11"/>
      <point x="500" y="-20"/>
      <point x="630" y="-20" type="curve" smooth="yes"/>
      <point x="808" y="-20"/>
      <point x="992" y="66"/>
      <point x="992" y="271" type="curve" smooth="yes"/>
      <point x="992" y="417"/>
      <point x="880" y="518"/>
      <point x="685" y="518" type="curve" smooth="yes"/>
      <point x="557" y="518"/>
      <point x="439" y="462"/>
      <point x="345" y="369" type="curve"/>
      <point x="333" y="418"/>
      <point x="327" y="473"/>
      <point x="327" y="537" type="curve" smooth="yes"/>
      <point x="327" y="795"/>
      <point x="426" y="928"/>
      <point x="631" y="928" type="curve" smooth="yes"/>
      <point x="707" y="928"/>
      <point x="798" y="902"/>
      <point x="865" y="876" type="curve"/>
      <point x="925" y="1035" type="line"/>
      <point x="859" y="1068"/>
      <point x="749" y="1096"/>
    </contour>
    <contour>
      <point x="667" y="367" type="curve" smooth="yes"/>
      <point x="773" y="367"/>
      <point x="814" y="317"/>
      <point x="814" y="267" type="curve" smooth="yes"/>
      <point x="814" y="187"/>
      <point x="736" y="138"/>
      <point x="632" y="138" type="curve" smooth="yes"/>
      <point x="535" y="138"/>
      <point x="463" y="169"/>
      <point x="413" y="228" type="curve"/>
      <point x="490" y="326"/>
      <point x="579" y="367"/>
    </contour>
  </outline>
</glyph>
<glyph name="dhook" format="2">
  <advance width="1308"/>
  <unicode hex="0257"/>
  <anchor x="623" y="0" name="bottom"/>
  <anchor x="623" y="1531" name="top"/>
  <outline>
    <contour>
      <point x="545" y="-20" type="curve" smooth="yes"/>
      <point x="711" y="-20"/>
      <point x="811" y="52"/>
      <point x="874" y="144" type="curve"/>
      <point x="883" y="144" type="line"/>
      <point x="915" y="0" type="line" name=".hr01"/>
      <point x="1074" y="0" type="line"/>
      <point x="1074" y="1252" type="line" smooth="yes"/>
      <point x="1074" y="1334"/>
      <point x="1108" y="1366"/>
      <point x="1168" y="1366" type="curve" smooth="yes"/>
      <point x="1213" y="1366"/>
      <point x="1256" y="1354"/>
      <point x="1275" y="1346" type="curve"/>
      <point x="1275" y="1505" type="line"/>
      <point x="1245" y="1517"/>
      <point x="1187" y="1531"/>
      <point x="1130" y="1531" type="curve" smooth="yes"/>
      <point x="961" y="1531"/>
      <point x="874" y="1435"/>
      <point x="874" y="1246" type="curve" smooth="yes"/>
      <point x="874" y="1099" type="line" smooth="yes"/>
      <point x="874" y="1057"/>
      <point x="882" y="974"/>
      <point x="887" y="937" type="curve"/>
      <point x="875" y="937" type="line"/>
      <point x="810" y="1026"/>
      <point x="712" y="1096"/>
      <point x="548" y="1096" type="curve" smooth="yes"/>
      <point x="285" y="1096"/>
      <point x="110" y="905"/>
      <point x="110" y="536" type="curve" smooth="yes"/>
      <point x="110" y="168"/>
      <point x="283" y="-20" name=".hr02"/>
    </contour>
    <contour>
      <point x="588" y="140" type="curve" smooth="yes"/>
      <point x="407" y="140"/>
      <point x="316" y="282"/>
      <point x="316" y="532" type="curve" smooth="yes"/>
      <point x="316" y="780"/>
      <point x="407" y="935"/>
      <point x="586" y="935" type="curve" smooth="yes"/>
      <point x="811" y="935"/>
      <point x="880" y="792"/>
      <point x="880" y="534" type="curve" smooth="yes"/>
      <point x="880" y="502" type="line" smooth="yes"/>
      <point x="880" y="260"/>
      <point x="802" y="140"/>
    </contour>
  </outline>
</glyph>
<glyph name="ghook" format="2">
  <advance width="1308"/>
  <unicode hex="0260"/>
  <anchor x="623" y="-480" name="bottom"/>
  <anchor x="623" y="1531" name="top"/>
  <outline>
    <contour>
      <point x="1136" y="1531" type="curve" smooth="yes"/>
      <point x="960" y="1531"/>
      <point x="874" y="1433"/>
      <point x="874" y="1244" type="curve" smooth="yes"/>
      <point x="874" y="1112" type="line" smooth="yes"/>
      <point x="874" y="1061"/>
      <point x="882" y="982"/>
      <point x="888" y="935" type="curve"/>
      <point x="876" y="935" type="line"/>
      <point x="797" y="1043"/>
      <point x="682" y="1096"/>
      <point x="544" y="1096" type="curve" smooth="yes"/>
      <point x="272" y="1096"/>
      <point x="108" y="881"/>
      <point x="108" y="536" type="curve" smooth="yes"/>
      <point x="108" y="186"/>
      <point x="270" y="-20"/>
      <point x="545" y="-20" type="curve" smooth="yes"/>
      <point x="688" y="-20"/>
      <point x="798" y="32"/>
      <point x="872" y="142" type="curve"/>
      <point x="879" y="142" type="line"/>
      <point x="879" y="135"/>
      <point x="874" y="44"/>
      <point x="874" y="11" type="curve" smooth="yes"/>
      <point x="874" y="-29" type="line" smooth="yes"/>
      <point x="874" y="-213"/>
      <point x="767" y="-322"/>
      <point x="590" y="-322" type="curve" smooth="yes"/>
      <point x="437" y="-322"/>
      <point x="297" y="-293"/>
      <point x="189" y="-238" type="curve"/>
      <point x="189" y="-412" type="line"/>
      <point x="295" y="-459"/>
      <point x="423" y="-480"/>
      <point x="579" y="-480" type="curve" smooth="yes"/>
      <point x="913" y="-480"/>
      <point x="1073" y="-323"/>
      <point x="1073" y="-15" type="curve" smooth="yes"/>
      <point x="1073" y="1251" type="line" smooth="yes"/>
      <point x="1073" y="1333"/>
      <point x="1110" y="1366"/>
      <point x="1169" y="1366" type="curve" smooth="yes"/>
      <point x="1214" y="1366"/>
      <point x="1256" y="1353"/>
      <point x="1274" y="1345" type="curve"/>
      <point x="1274" y="1504" type="line"/>
      <point x="1246" y="1516"/>
      <point x="1191" y="1531"/>
    </contour>
    <contour>
      <point x="581" y="933" type="curve" smooth="yes"/>
      <point x="785" y="933"/>
      <point x="879" y="820"/>
      <point x="879" y="535" type="curve" smooth="yes"/>
      <point x="879" y="494" type="line" smooth="yes"/>
      <point x="879" y="243"/>
      <point x="788" y="138"/>
      <point x="586" y="138" type="curve" smooth="yes"/>
      <point x="407" y="138"/>
      <point x="315" y="277"/>
      <point x="315" y="534" type="curve" smooth="yes"/>
      <point x="315" y="790"/>
      <point x="410" y="933"/>
    </contour>
  </outline>
</glyph>
<glyph name="gscript" format="2">
  <advance width="1277"/>
  <unicode hex="0261"/>
  <outline>
    <contour>
      <point x="18" y="-778" type="curve" smooth="yes"/>
      <point x="270" y="-778"/>
      <point x="494" y="-504"/>
      <point x="592" y="-296" type="curve"/>
      <point x="748" y="-2" type="line"/>
      <point x="964" y="110"/>
      <point x="1116" y="302"/>
      <point x="1136" y="350" type="curve"/>
      <point x="1096" y="350" type="line"/>
      <point x="1056" y="296"/>
      <point x="930" y="148"/>
      <point x="774" y="56" type="curve"/>
      <point x="1186" y="776" type="line"/>
      <point x="950" y="776" type="line"/>
      <point x="858" y="648" type="line"/>
      <point x="858" y="754"/>
      <point x="806" y="794"/>
      <point x="698" y="794" type="curve" smooth="yes"/>
      <point x="544" y="794"/>
      <point x="418" y="704"/>
      <point x="324" y="596" type="curve" smooth="yes"/>
      <point x="246" y="506"/>
      <point x="172" y="416"/>
      <point x="78" y="316" type="curve"/>
      <point x="104" y="290" type="line"/>
      <point x="234" y="418" type="line"/>
      <point x="200" y="374"/>
      <point x="166" y="292"/>
      <point x="166" y="220" type="curve" smooth="yes"/>
      <point x="166" y="130"/>
      <point x="196" y="-18"/>
      <point x="340" y="-18" type="curve" smooth="yes"/>
      <point x="460" y="-18"/>
      <point x="558" y="74"/>
      <point x="590" y="110" type="curve"/>
      <point x="522" y="-32" type="line"/>
      <point x="334" y="-116"/>
      <point x="-170" y="-372"/>
      <point x="-170" y="-590" type="curve" smooth="yes"/>
      <point x="-170" y="-654"/>
      <point x="-116" y="-778"/>
    </contour>
    <contour>
      <point x="16" y="-742" type="curve" smooth="yes"/>
      <point x="-32" y="-742"/>
      <point x="-82" y="-722"/>
      <point x="-82" y="-640" type="curve" smooth="yes"/>
      <point x="-82" y="-380"/>
      <point x="440" y="-116"/>
      <point x="496" y="-88" type="curve"/>
      <point x="338" y="-396" type="line" smooth="yes"/>
      <point x="236" y="-594"/>
      <point x="150" y="-742"/>
    </contour>
    <contour>
      <point x="362" y="22" type="curve" smooth="yes"/>
      <point x="340" y="22"/>
      <point x="310" y="28"/>
      <point x="310" y="64" type="curve" smooth="yes"/>
      <point x="310" y="166"/>
      <point x="582" y="748"/>
      <point x="748" y="748" type="curve" smooth="yes"/>
      <point x="790" y="748"/>
      <point x="816" y="720"/>
      <point x="816" y="668" type="curve" smooth="yes"/>
      <point x="816" y="582"/>
      <point x="764" y="478"/>
      <point x="720" y="388" type="curve" smooth="yes"/>
      <point x="634" y="212"/>
      <point x="494" y="22"/>
    </contour>
  </outline>
</glyph>
<glyph name="ramshorn" format="2">
  <advance width="1205"/>
  <unicode hex="0264"/>
  <anchor x="518" y="0" name="bottom"/>
  <anchor x="518" y="1076" name="top"/>
  <outline>
    <contour>
      <point x="947" y="1095" type="curve" smooth="yes"/>
      <point x="851" y="1095"/>
      <point x="796" y="1049"/>
      <point x="735" y="962" type="curve" smooth="yes"/>
      <point x="622" y="800" type="line" smooth="yes"/>
      <point x="589" y="752"/>
      <point x="547" y="689"/>
      <point x="521" y="645" type="curve"/>
      <point x="513" y="645" type="line"/>
      <point x="488" y="693"/>
      <point x="449" y="752"/>
      <point x="414" y="801" type="curve" smooth="yes"/>
      <point x="301" y="959" type="line" smooth="yes"/>
      <point x="228" y="1061"/>
      <point x="178" y="1095"/>
      <point x="91" y="1095" type="curve" smooth="yes"/>
      <point x="49" y="1095"/>
      <point x="20" y="1085"/>
      <point x="-6" y="1074" type="curve"/>
      <point x="-6" y="927" type="line"/>
      <point x="9" y="931"/>
      <point x="26" y="939"/>
      <point x="50" y="937" type="curve" smooth="yes"/>
      <point x="92" y="933"/>
      <point x="121" y="913"/>
      <point x="170" y="850" type="curve"/>
      <point x="406" y="526" type="line"/>
      <point x="317" y="409"/>
      <point x="272" y="330"/>
      <point x="272" y="215" type="curve" smooth="yes"/>
      <point x="272" y="70"/>
      <point x="369" y="-19"/>
      <point x="516" y="-19" type="curve" smooth="yes"/>
      <point x="664" y="-19"/>
      <point x="762" y="73"/>
      <point x="762" y="213" type="curve" smooth="yes"/>
      <point x="762" y="329"/>
      <point x="719" y="401"/>
      <point x="625" y="526" type="curve"/>
      <point x="851" y="839" type="line" smooth="yes"/>
      <point x="912" y="923"/>
      <point x="944" y="936"/>
      <point x="981" y="936" type="curve" smooth="yes"/>
      <point x="1001" y="936"/>
      <point x="1025" y="931"/>
      <point x="1040" y="927" type="curve"/>
      <point x="1040" y="1078" type="line"/>
      <point x="1014" y="1088"/>
      <point x="985" y="1095"/>
    </contour>
    <contour>
      <point x="517" y="402" type="curve"/>
      <point x="554" y="354"/>
      <point x="590" y="297"/>
      <point x="590" y="229" type="curve" smooth="yes"/>
      <point x="590" y="168"/>
      <point x="557" y="135"/>
      <point x="517" y="135" type="curve" smooth="yes"/>
      <point x="477" y="135"/>
      <point x="445" y="165"/>
      <point x="445" y="227" type="curve" smooth="yes"/>
      <point x="445" y="289"/>
      <point x="473" y="341"/>
    </contour>
  </outline>
</glyph>
<glyph name="hturned" format="2">
  <advance width="1271"/>
  <unicode hex="0265"/>
  <anchor x="628" y="-444" name="bottom"/>
  <anchor x="628" y="1076" name="top"/>
  <anchor x="1086" y="1076" name="topright"/>
  <outline>
    <contour>
      <point x="886" y="-444" type="line"/>
      <point x="1086" y="-444" type="line"/>
      <point x="1086" y="1076" type="line"/>
      <point x="886" y="1076" type="line"/>
      <point x="886" y="528" type="line" smooth="yes"/>
      <point x="886" y="281"/>
      <point x="816" y="142"/>
      <point x="587" y="142" type="curve" smooth="yes"/>
      <point x="432" y="142"/>
      <point x="360" y="227"/>
      <point x="360" y="397" type="curve" smooth="yes"/>
      <point x="360" y="1076" type="line"/>
      <point x="162" y="1076" type="line"/>
      <point x="162" y="376" type="line" smooth="yes"/>
      <point x="162" y="100"/>
      <point x="298" y="-18"/>
      <point x="554" y="-18" type="curve" smooth="yes"/>
      <point x="691" y="-18"/>
      <point x="816" y="37"/>
      <point x="884" y="147" type="curve"/>
      <point x="897" y="147" type="line"/>
      <point x="891" y="104"/>
      <point x="886" y="43"/>
      <point x="886" y="-19" type="curve" smooth="yes"/>
    </contour>
  </outline>
</glyph>
<glyph name="hhook" format="2">
  <advance width="1271"/>
  <unicode hex="0266"/>
  <anchor x="629" y="0" name="bottom"/>
  <anchor x="629" y="1530" name="top"/>
  <outline>
    <contour>
      <point x="170" y="0" type="line"/>
      <point x="370" y="0" type="line"/>
      <point x="370" y="544" type="line" smooth="yes"/>
      <point x="370" y="791"/>
      <point x="441" y="930"/>
      <point x="669" y="930" type="curve" smooth="yes"/>
      <point x="824" y="930"/>
      <point x="896" y="845"/>
      <point x="896" y="675" type="curve" smooth="yes"/>
      <point x="896" y="0" type="line"/>
      <point x="1095" y="0" type="line"/>
      <point x="1095" y="696" type="line" smooth="yes"/>
      <point x="1095" y="971"/>
      <point x="958" y="1090"/>
      <point x="703" y="1090" type="curve" smooth="yes"/>
      <point x="565" y="1090"/>
      <point x="441" y="1035"/>
      <point x="372" y="924" type="curve"/>
      <point x="359" y="924" type="line"/>
      <point x="366" y="965"/>
      <point x="370" y="1020"/>
      <point x="370" y="1075" type="curve" smooth="yes"/>
      <point x="370" y="1253" type="line" smooth="yes"/>
      <point x="370" y="1335"/>
      <point x="405" y="1367"/>
      <point x="465" y="1367" type="curve" smooth="yes"/>
      <point x="509" y="1367"/>
      <point x="550" y="1355"/>
      <point x="568" y="1347" type="curve"/>
      <point x="568" y="1504" type="line"/>
      <point x="540" y="1516"/>
      <point x="485" y="1530"/>
      <point x="432" y="1530" type="curve" smooth="yes"/>
      <point x="259" y="1530"/>
      <point x="170" y="1433"/>
      <point x="170" y="1241" type="curve" smooth="yes"/>
    </contour>
  </outline>
</glyph>
<glyph name="henghook" format="2">
  <advance width="1271"/>
  <unicode hex="0267"/>
  <anchor x="630" y="-480" name="bottom"/>
  <anchor x="630" y="1530" name="top"/>
  <outline>
    <contour>
      <point x="432" y="1530" type="curve" smooth="yes"/>
      <point x="259" y="1530"/>
      <point x="170" y="1433"/>
      <point x="170" y="1241" type="curve" smooth="yes"/>
      <point x="170" y="0" type="line"/>
      <point x="370" y="0" type="line"/>
      <point x="370" y="544" type="line" smooth="yes"/>
      <point x="370" y="791"/>
      <point x="441" y="930"/>
      <point x="669" y="930" type="curve" smooth="yes"/>
      <point x="824" y="930"/>
      <point x="896" y="845"/>
      <point x="896" y="675" type="curve" smooth="yes"/>
      <point x="896" y="-192" type="line" smooth="yes"/>
      <point x="896" y="-282"/>
      <point x="860" y="-314"/>
      <point x="800" y="-314" type="curve" smooth="yes"/>
      <point x="756" y="-314"/>
      <point x="715" y="-302"/>
      <point x="695" y="-294" type="curve"/>
      <point x="695" y="-454" type="line"/>
      <point x="725" y="-466"/>
      <point x="781" y="-480"/>
      <point x="833" y="-480" type="curve" smooth="yes"/>
      <point x="1014" y="-480"/>
      <point x="1095" y="-375"/>
      <point x="1095" y="-188" type="curve" smooth="yes"/>
      <point x="1095" y="696" type="line" smooth="yes"/>
      <point x="1095" y="971"/>
      <point x="958" y="1090"/>
      <point x="703" y="1090" type="curve" smooth="yes"/>
      <point x="565" y="1090"/>
      <point x="441" y="1035"/>
      <point x="372" y="924" type="curve"/>
      <point x="359" y="924" type="line"/>
      <point x="365" y="965"/>
      <point x="370" y="1020"/>
      <point x="370" y="1075" type="curve" smooth="yes"/>
      <point x="370" y="1253" type="line" smooth="yes"/>
      <point x="370" y="1335"/>
      <point x="405" y="1367"/>
      <point x="465" y="1367" type="curve" smooth="yes"/>
      <point x="509" y="1367"/>
      <point x="550" y="1355"/>
      <point x="568" y="1347" type="curve"/>
      <point x="568" y="1504" type="line"/>
      <point x="540" y="1516"/>
      <point x="485" y="1530"/>
    </contour>
  </outline>
</glyph>
<glyph name="iota-latin" format="2">
  <advance width="759"/>
  <unicode hex="0269"/>
  <outline>
    <contour>
      <point x="478" y="-20" type="curve" smooth="yes"/>
      <point x="545" y="-20"/>
      <point x="600" y="-10"/>
      <point x="638" y="4" type="curve"/>
      <point x="638" y="160" type="line"/>
      <point x="598" y="148"/>
      <point x="559" y="141"/>
      <point x="508" y="141" type="curve" smooth="yes"/>
      <point x="425" y="141"/>
      <point x="364" y="178"/>
      <point x="364" y="308" type="curve" smooth="yes"/>
      <point x="364" y="1076" type="line"/>
      <point x="164" y="1076" type="line"/>
      <point x="164" y="307" type="line" smooth="yes"/>
      <point x="164" y="107"/>
      <point x="257" y="-20"/>
    </contour>
  </outline>
</glyph>
